<svg width="18" height="13" viewBox="0 0 18 13" xmlns="http://www.w3.org/2000/svg">
<path d="M16.418 0H1.58203C0.706641 0 0 0.733056 0 1.625V11.375C0 12.2742 0.713672 13 1.58203 13H16.418C17.2863 13 18 12.2778 18 11.375V1.625C18 0.733056 17.2934 0 16.418 0ZM16.1965 1.08333C15.873 1.41194 10.3113 7.09583 10.118 7.29444C9.81914 7.60139 9.42188 7.77111 9 7.77111C8.57812 7.77111 8.18086 7.60139 7.88203 7.29444C7.75195 7.16083 2.25 1.53833 1.80352 1.08333H16.1965ZM1.05469 11.1547V1.84528L5.61094 6.50361L1.05469 11.1547ZM1.80352 11.9167L6.35977 7.26556L7.13672 8.05639C7.63594 8.56917 8.29688 8.85083 9 8.85083C9.70312 8.85083 10.3676 8.56917 10.8633 8.06L11.6402 7.26556L16.1965 11.9167H1.80352ZM16.9453 11.1547L12.3891 6.50361L16.9453 1.84528V11.1547Z"/>
</svg>
