<svg width="19" height="18" viewBox="0 0 19 18" xmlns="http://www.w3.org/2000/svg">
<path fill-rule="evenodd" clip-rule="evenodd" d="M18.3591 6.272L15.0791 3.922V1.58299C15.0799 1.47743 15.0597 1.37276 15.0199 1.275C14.98 1.17725 14.9213 1.08835 14.8469 1.01343C14.7725 0.938504 14.6841 0.879041 14.5866 0.838463C14.4892 0.797884 14.3846 0.77699 14.2791 0.776993H13.7001C13.5945 0.77699 13.49 0.797884 13.3925 0.838463C13.2951 0.879041 13.2066 0.938504 13.1322 1.01343C13.0579 1.08835 12.9991 1.17725 12.9592 1.275C12.9194 1.37276 12.8993 1.47743 12.9001 1.58299V2.35999L9.81406 0.150993C9.67882 0.0534438 9.5163 0.000946045 9.34955 0.000946045C9.1828 0.000946045 9.02031 0.0534438 8.88507 0.150993L0.338074 6.272C0.165071 6.39663 0.0482677 6.58453 0.0130623 6.79482C-0.0221432 7.00512 0.0270771 7.22081 0.150056 7.395C0.210979 7.48093 0.288276 7.55397 0.377503 7.60995C0.46673 7.66594 0.566138 7.70375 0.670014 7.72121C0.77389 7.73868 0.88019 7.73547 0.982819 7.71175C1.08545 7.68803 1.18239 7.64427 1.26807 7.58299L2.14807 6.953V16.501C2.14754 16.8386 2.28093 17.1627 2.51901 17.4021C2.7571 17.6415 3.08043 17.7767 3.41806 17.778H15.2821C15.6196 17.7767 15.9428 17.6415 16.1808 17.402C16.4187 17.1626 16.5519 16.8385 16.5511 16.501V6.953L17.4311 7.58299C17.5167 7.64427 17.6137 7.68803 17.7163 7.71175C17.8189 7.73547 17.9252 7.73868 18.0291 7.72121C18.133 7.70375 18.2324 7.66594 18.3216 7.60995C18.4109 7.55397 18.4881 7.48093 18.5491 7.395C18.6718 7.22057 18.7208 7.00471 18.6852 6.7944C18.6496 6.58408 18.5324 6.39633 18.3591 6.272ZM10.9141 16.166H7.78207V11.213H10.9141V16.166ZM14.9471 16.166H12.5161V10.878C12.5169 10.5405 12.3837 10.2164 12.1458 9.97697C11.9078 9.73754 11.5846 9.60232 11.2471 9.601H7.44705C7.10942 9.60232 6.78612 9.73751 6.54804 9.97691C6.30995 10.2163 6.17653 10.5404 6.17706 10.878V16.166H3.74707V5.80499L9.34705 1.796L14.9471 5.80499V16.166Z"/>
</svg>
