<svg width="14" height="18" viewBox="0 0 14 18" xmlns="http://www.w3.org/2000/svg">
<path d="M12.7468 3.12891C11.4252 1.14258 9.3296 0 7.00078 0C4.67195 0 2.57972 1.14258 1.25814 3.12891C-0.0566843 5.1082 -0.360885 7.61133 0.443557 9.82617C0.659878 10.4309 1.00126 11.018 1.45756 11.5664L6.54109 17.775C6.65601 17.9156 6.82502 17.9965 7.00078 17.9965C7.17654 17.9965 7.34554 17.9156 7.46046 17.775L12.5406 11.5664C13.0003 11.0145 13.3417 10.4273 13.5546 9.82617C14.3624 7.61484 14.0616 5.1082 12.7468 3.12891ZM12.4257 9.39023C12.2601 9.8543 11.9931 10.3113 11.628 10.7508L11.6246 10.7543L7.00078 16.4004L2.37692 10.7508C2.01188 10.3113 1.74486 9.8543 1.57586 9.38672C0.909998 7.55508 1.1635 5.48438 2.25186 3.84609C3.34361 2.20078 5.07417 1.25859 7.00078 1.25859C8.92738 1.25859 10.6579 2.20078 11.7497 3.84609C12.8381 5.48438 13.0916 7.55508 12.4257 9.39023Z"/>
<path d="M7.0005 3.7336C5.13135 3.7336 3.61035 5.31563 3.61035 7.25977C3.61035 9.20391 5.13135 10.7859 7.0005 10.7859C8.86964 10.7859 10.3906 9.20391 10.3906 7.25977C10.3906 5.31563 8.86964 3.7336 7.0005 3.7336ZM7.0005 9.52383C5.8006 9.52383 4.82377 8.50782 4.82377 7.25977C4.82377 6.01172 5.8006 4.99571 7.0005 4.99571C8.2004 4.99571 9.17722 6.01172 9.17722 7.25977C9.17722 8.50782 8.20378 9.52383 7.0005 9.52383Z"/>
</svg>
