<svg width="39" height="39" viewBox="0 0 39 39" xmlns="http://www.w3.org/2000/svg">
<path d="M16.4912 5.62898C13.2539 6.90867 11.1211 10.0698 11.1211 13.5356C11.1211 14.7925 12.1418 15.8208 13.4062 15.8208C14.6707 15.8208 15.6914 14.8001 15.6914 13.5356C15.6914 11.3723 17.4357 9.60515 19.6219 9.60515C21.7623 9.60515 23.56 11.4104 23.56 13.5356C23.56 15.1809 22.5697 16.6206 21.0387 17.2147C19.9418 17.6337 19.0125 18.3649 18.3498 19.3171C17.1463 21.0614 17.3443 22.5315 17.3443 24.8091C17.3443 24.9919 17.3672 25.1671 17.4053 25.3499C17.4662 25.6089 17.6947 25.7841 17.9613 25.7841C18.3346 25.7841 18.6012 25.4337 18.5174 25.0757C18.4717 24.8929 18.4869 25.0223 18.4869 22.5544C18.4869 20.6501 19.6523 18.9743 21.45 18.2811C24.8473 16.9786 25.8451 12.5987 23.2096 9.96316C20.0027 6.75632 14.5488 9.04148 14.5564 13.5432C14.5564 14.1678 14.0461 14.6858 13.4139 14.6858C12.7816 14.6858 12.2713 14.1755 12.2713 13.5432C12.2713 9.42234 15.7295 5.91843 20.1018 6.20027C23.8951 6.4364 26.9953 9.62039 26.9953 13.5432C26.9953 16.613 25.1443 19.3094 22.2727 20.4139C21.8309 20.5815 21.4576 20.871 21.1834 21.2518C20.6654 21.9907 20.7721 22.4173 20.7721 24.8091C20.7721 25.4337 20.2541 25.9516 19.6295 25.9516C19.3172 25.9516 19.0582 26.2106 19.0582 26.5229C19.0582 27.7188 21.9146 26.9952 21.9146 24.8091V22.5468C21.9146 22.0669 22.2117 21.6555 22.6764 21.4727C25.9975 20.193 28.1303 17.0395 28.1303 13.5356C28.1303 7.57136 22.067 3.41238 16.4912 5.62898Z"/>
<path d="M21.5795 30.5069C20.6883 29.0291 18.6317 29.0596 17.7252 30.4231C16.7274 31.9237 17.7709 33.9727 19.6447 33.9727C21.3738 33.9727 22.5164 32.0684 21.5795 30.5069ZM19.3553 32.792C18.9135 32.6854 18.5936 32.3502 18.5098 31.9084C18.2736 30.644 19.9418 30.0041 20.5969 31.0934C21.1301 31.977 20.3531 33.0358 19.3553 32.792Z"/>
<path d="M29.2794 2.62753C19.1334 -3.26055 6.09273 1.12695 1.53003 11.9129C-0.32856 16.2928 -0.480904 21.1982 0.973979 25.6086C1.98707 28.6707 3.64761 30.9025 3.7771 31.0244C3.7771 31.0244 3.7771 31.0244 3.78472 31.032C3.998 31.2148 4.18082 31.1615 4.25699 31.1615C4.2646 31.1615 4.31792 31.1463 4.36363 31.1311L4.37886 31.1234C4.74449 30.9635 4.81304 30.4988 4.61499 30.2627C-4.19047 18.0904 4.62261 1.1498 19.499 1.1498C29.7669 1.1498 37.8564 9.52871 37.8564 19.4996C37.8564 29.6381 29.6451 37.8494 19.499 37.8494C15.6066 37.8494 11.8818 36.6459 8.73589 34.3684C8.5607 34.2389 8.31695 34.2236 8.12652 34.3303L1.71285 37.8037C1.40816 37.9637 1.13394 37.6971 1.13394 37.4685C1.13394 37.3314 0.996831 37.6285 3.57144 32.8754C3.7771 32.4945 3.49527 32.0299 3.06871 32.0299C2.85542 32.0299 2.66499 32.1441 2.56597 32.3269C-0.0162552 37.1182 -0.00102073 36.9582 -0.00102073 37.4685C-0.00102073 38.5883 1.21773 39.3805 2.26128 38.8092L8.36265 35.5033C14.9591 40.1041 23.7418 40.165 30.4068 35.6633C42.3353 27.6119 41.7336 9.85625 29.2794 2.62753Z"/>
</svg>
