<svg width="25" height="18" viewBox="0 0 25 18" xmlns="http://www.w3.org/2000/svg">
<path d="M24.0234 7.98306H7.0459C6.50879 7.98306 6.06934 8.44068 6.06934 9C6.06934 9.55933 6.50879 10.017 7.0459 10.017H24.0234C24.5605 10.017 25 9.55933 25 9C25 8.44068 24.5605 7.98306 24.0234 7.98306Z"/>
<path d="M24.0234 0.355923H7.0459C6.50879 0.355923 6.06934 0.81355 6.06934 1.37287C6.06934 1.93219 6.50879 2.38982 7.0459 2.38982H24.0234C24.5605 2.38982 25 1.93219 25 1.37287C25 0.81355 24.5605 0.355923 24.0234 0.355923Z"/>
<path d="M24.0234 15.6102H7.0459C6.50879 15.6102 6.06934 16.0678 6.06934 16.6271C6.06934 17.1865 6.50879 17.6441 7.0459 17.6441H24.0234C24.5605 17.6441 25 17.1865 25 16.6271C25 16.0678 24.5605 15.6102 24.0234 15.6102Z"/>
<path d="M1.31836 2.74576C2.04647 2.74576 2.63672 2.1311 2.63672 1.37288C2.63672 0.61466 2.04647 0 1.31836 0C0.59025 0 0 0.61466 0 1.37288C0 2.1311 0.59025 2.74576 1.31836 2.74576Z"/>
<path d="M1.31836 10.3729C2.04647 10.3729 2.63672 9.75823 2.63672 9.00001C2.63672 8.24179 2.04647 7.62713 1.31836 7.62713C0.59025 7.62713 0 8.24179 0 9.00001C0 9.75823 0.59025 10.3729 1.31836 10.3729Z"/>
<path d="M1.31836 18C2.04647 18 2.63672 17.3854 2.63672 16.6271C2.63672 15.8689 2.04647 15.2543 1.31836 15.2543C0.59025 15.2543 0 15.8689 0 16.6271C0 17.3854 0.59025 18 1.31836 18Z"/>
</svg>
