<svg width="18" height="18" viewBox="0 0 18 18" xmlns="http://www.w3.org/2000/svg">
<path d="M12.4242 0.548437L5.47031 7.49883H2.38711C1.90195 7.49883 1.40977 7.60781 0.952734 7.81875L0.653906 7.97695C0.249609 8.1668 0 8.55703 0 9C0 9.44297 0.249609 9.8332 0.636328 10.0125L0.970313 10.1883C1.40977 10.3922 1.90195 10.5012 2.38711 10.5012H5.47031L12.4207 17.4516C12.7758 17.8066 13.2469 18 13.7461 18H14.625C14.7621 18 14.8887 17.9262 14.952 17.8066C15.0187 17.6871 15.0117 17.5395 14.9379 17.4234L10.4098 10.357C11.5453 10.2867 12.491 10.1918 13.6441 10.0758L14.8254 9.95625L16.5586 12.5824C16.6289 12.6879 16.7449 12.7512 16.8715 12.7512H17.6203C17.7328 12.7512 17.8418 12.6984 17.9121 12.6105C17.9824 12.5227 18.0105 12.4066 17.9859 12.2941L17.2547 9L17.9859 5.70586C17.993 5.67773 17.9965 5.65312 17.9965 5.625C17.9965 5.54062 17.9684 5.45625 17.9156 5.38945C17.8453 5.30156 17.7363 5.24883 17.6238 5.24883H16.875C16.7484 5.24883 16.6324 5.31211 16.5621 5.41758L14.8289 8.04375L13.6441 7.92422C12.4945 7.8082 11.5453 7.71328 10.4133 7.64297L14.9414 0.576563C15.0152 0.460546 15.0188 0.312891 14.9555 0.193359C14.8887 0.0738277 14.7656 -0.00351524 14.6285 -0.00351524H13.7496C13.2469 0 12.7758 0.193359 12.4242 0.548437Z"/>
</svg>
