<svg width="20" height="20" viewBox="0 0 20 20" xmlns="http://www.w3.org/2000/svg">
<path d="M20 7.05859C20 5.17969 19.1974 3.41016 17.7332 2.07422C16.2689 0.738281 14.3394 0 12.286 0H7.71397C5.66061 0 3.72678 0.734375 2.26681 2.07422C0.80256 3.41016 0 5.17969 0 7.05859V10.3477C0 11.8008 0.486659 13.2031 1.40448 14.3945C2.21558 15.4453 3.30416 16.2695 4.57203 16.7891V18.6758C4.57203 19.6523 5.16968 20 5.68196 20C6.04908 20 6.41194 19.8359 6.77053 19.5078L9.07149 17.4023H12.2903C14.3436 17.4023 16.2775 16.668 17.7374 15.3281C19.1974 13.9922 20.0042 12.2188 20.0042 10.3438L20 7.05859ZM12.286 16.2344H8.80255C8.63179 16.2344 8.46957 16.2969 8.35004 16.4062L5.86125 18.6836C5.85698 18.6875 5.85271 18.6914 5.85271 18.6914C5.85271 18.6875 5.85271 18.6836 5.85271 18.6797V16.3984C5.85271 16.1562 5.69049 15.9375 5.43863 15.8516C2.94984 14.9805 1.28068 12.7695 1.28068 10.3477V7.05859C1.28068 5.49219 1.9509 4.01562 3.17182 2.90234C4.38847 1.78516 6.00213 1.17188 7.71397 1.17188H12.286C13.9978 1.17188 15.6115 1.78516 16.8282 2.90234C18.0491 4.01953 18.7193 5.49609 18.7193 7.05859V10.3477C18.7193 13.5938 15.8335 16.2344 12.286 16.2344Z"/>
<path d="M11.7009 9.58203C11.449 9.35156 11.0434 9.35156 10.7959 9.58203L10.2793 10.0547L8.27291 8.22266L8.78945 7.75C8.90898 7.64062 8.97728 7.49219 8.97728 7.33594C8.97728 7.17969 8.90898 7.03125 8.78945 6.92188L6.36469 4.70313C6.24516 4.59375 6.08294 4.53125 5.91218 4.53125C5.74142 4.53125 5.5792 4.59375 5.45967 4.70313L3.76063 6.25781C2.84281 7.09766 2.84281 8.46484 3.76063 9.30469L9.09681 14.1875C9.54078 14.5938 10.1299 14.8164 10.7617 14.8164C11.3935 14.8164 11.9826 14.5938 12.4266 14.1875L14.1256 12.6328C14.2452 12.5234 14.3135 12.375 14.3135 12.2187C14.3135 12.0625 14.2452 11.9141 14.1256 11.8047L11.7009 9.58203ZM11.5258 13.3555C11.3252 13.5391 11.0563 13.6406 10.766 13.6406C10.4757 13.6406 10.2067 13.5391 10.0061 13.3555L4.66992 8.47266C4.25156 8.08984 4.25156 7.46484 4.66992 7.08203L5.91645 5.94141L7.43619 7.33203L6.91538 7.80859C6.79585 7.91797 6.72755 8.06641 6.72755 8.22266C6.72755 8.37891 6.79585 8.52734 6.91538 8.63672L9.8268 11.3008C10.0787 11.5312 10.4842 11.5312 10.7318 11.3008L11.2484 10.8281L12.7681 12.2187L11.5258 13.3555Z"/>
<path d="M10.156 2.59375C9.80164 2.59375 9.51562 2.85547 9.51562 3.17969C9.51562 3.50391 9.80164 3.76563 10.156 3.76563C11.6202 3.76563 12.9991 4.28906 14.0364 5.23438C15.0738 6.18359 15.6416 7.44141 15.6416 8.78516C15.6416 9.10938 15.9276 9.37109 16.2819 9.37109C16.6362 9.37109 16.9222 9.10938 16.9222 8.78516C16.9222 7.13281 16.2179 5.57422 14.9415 4.40625C13.665 3.23828 11.9617 2.59375 10.156 2.59375Z"/>
<path d="M12.896 8.78516C12.896 9.10937 13.182 9.37109 13.5364 9.37109C13.8907 9.37109 14.1767 9.10937 14.1767 8.78516C14.1767 6.75391 12.3709 5.10156 10.1511 5.10156C9.79676 5.10156 9.51074 5.36328 9.51074 5.6875C9.51074 6.01172 9.79676 6.27344 10.1511 6.27344C11.6666 6.27344 12.896 7.39844 12.896 8.78516Z"/>
</svg>
