<svg width="20" height="20" viewBox="0 0 20 20" xmlns="http://www.w3.org/2000/svg">
<path d="M17.1603 2.83984C15.3283 1.00781 12.8908 0 10.3009 0C9.01966 0 7.76966 0.25 6.58997 0.738281C5.41028 1.22656 4.35169 1.93359 3.44544 2.83984C1.6095 4.67188 0.601689 7.10938 0.601689 9.69922C0.601689 11.2461 0.972782 12.7812 1.67981 14.1484L0.0509075 18.8047C-0.0623738 19.1328 0.0157512 19.4922 0.261845 19.7383C0.43372 19.9102 0.660282 20.0039 0.894657 20.0039C0.99622 20.0039 1.09388 19.9883 1.19544 19.9531L5.85169 18.3203C7.21888 19.0273 8.75403 19.3984 10.3009 19.3984C12.8908 19.3984 15.3283 18.3906 17.1603 16.5586C18.9923 14.7266 20.0001 12.2891 20.0001 9.69922C20.0001 7.10938 18.9923 4.67188 17.1603 2.83984ZM16.3283 15.7266C14.7189 17.3359 12.5783 18.2227 10.3009 18.2227C8.90638 18.2227 7.52356 17.8789 6.297 17.2266C6.07435 17.1094 5.81263 17.0898 5.57825 17.1719L1.34778 18.6523L2.82825 14.4219C2.91028 14.1875 2.89075 13.9219 2.77356 13.7031C2.12122 12.4766 1.77356 11.0938 1.77356 9.69922C1.77356 7.42188 2.66028 5.28125 4.26966 3.67188C5.87903 2.0625 8.01966 1.17578 10.297 1.17578C12.5783 1.17188 14.7189 2.05859 16.3283 3.67188C17.9376 5.28125 18.8243 7.42188 18.8243 9.69922C18.8243 11.9766 17.9415 14.1172 16.3283 15.7266Z"/>
<path d="M13.9064 10.5664C13.4611 10.1211 12.7345 10.1211 12.2892 10.5664L11.8009 11.0547C10.59 10.3945 9.60952 9.41406 8.94936 8.20312L9.43764 7.71484C9.88296 7.26953 9.88296 6.54297 9.43764 6.09766L8.12124 4.78125C7.67593 4.33594 6.94936 4.33594 6.50405 4.78125L5.45327 5.83203C4.85171 6.43359 4.82046 7.46875 5.36733 8.75C5.84389 9.85938 6.71499 11.082 7.82046 12.1836C8.92593 13.2852 10.1447 14.1602 11.2541 14.6367C11.8634 14.8984 12.4142 15.0273 12.8908 15.0273C13.4181 15.0273 13.8556 14.8672 14.172 14.5508L15.2228 13.5C15.4376 13.2852 15.5587 12.9961 15.5587 12.6914C15.5587 12.3867 15.4416 12.0977 15.2228 11.8828L13.9064 10.5664ZM13.34 13.7227C13.1681 13.8945 12.6408 13.9531 11.715 13.5586C10.7384 13.1406 9.64858 12.3594 8.64858 11.3555C7.64858 10.3516 6.86343 9.26562 6.44546 8.28906C6.05093 7.36328 6.10952 6.83594 6.28139 6.66406L7.31264 5.63281L8.58608 6.90625L7.97671 7.51562C7.69936 7.79297 7.63296 8.21094 7.81264 8.55859C8.61733 10.1328 9.87124 11.3906 11.4455 12.1914C11.7931 12.3672 12.2111 12.3008 12.4884 12.0273L13.0978 11.418L14.3712 12.6914L13.34 13.7227Z"/>
</svg>
