<svg width="473" height="862" viewBox="0 0 473 862" fill="none" xmlns="http://www.w3.org/2000/svg">
<path opacity="0.29" fill-rule="evenodd" clip-rule="evenodd" d="M110.301 0.984863C111.268 1.56738 112.181 2.23587 113.028 2.9826C113.377 3.58976 113.597 4.26246 113.673 4.95839C112.971 5.09158 112.071 5.55783 111.602 5.29143C109.3 3.95946 107.114 2.43893 104.887 0.984863H110.301ZM286.065 575.563C286.874 576.751 287.323 577.405 287.884 578.227C287.068 578.959 286.287 579.67 285.591 580.292C285.349 580.288 285.111 580.235 284.89 580.136C282.86 576.795 280.094 577.217 277.011 578.405C275.009 579.182 272.762 579.37 270.805 580.225C267.949 581.479 266.292 580.469 265.023 577.805C272.208 572.522 279.421 567.227 286.594 561.955C283.074 557.604 279.993 553.641 276.676 549.878C276.145 549.279 274.563 549.545 273.461 549.512C271.63 549.445 269.622 550.677 267.994 548.968C272.285 545.128 276.411 541.431 281.082 537.258C281.082 538.812 281.389 540.099 281.024 541.165C279.953 544.295 280.348 546.482 283.24 548.724C286.243 551.044 288.515 554.307 291.526 557.626C297.715 550.833 303.75 544.217 309.782 537.591C312.459 539.178 313.057 541.143 311.46 544.018C310.159 546.36 309.551 549.068 308.327 551.466C307.268 553.53 307.285 555.117 309.17 556.593C309.594 557.036 309.963 557.528 310.269 558.059C309.464 558.813 308.713 559.524 307.868 560.312C307.067 559.735 306.378 559.246 305.259 558.447C304.283 561.822 303.258 564.941 302.547 568.126C302.51 569.164 302.872 570.177 303.559 570.957C305.338 573.21 307.604 575.13 309.086 577.55C310.049 579.115 310.885 582.478 310.198 583.022C308.257 584.543 306.182 582.689 304.615 581.279C302.753 579.581 301.03 577.737 299.463 575.763C298.21 574.209 296.943 573.487 294.875 573.976C292.094 574.642 289.251 575.008 286.065 575.563ZM150.346 662.507C142.605 667.624 135.205 672.519 127.792 677.414C125.759 675.294 125.39 673.407 127.484 671.121C129.295 669.134 130.564 666.67 132.341 664.65C133.976 662.785 134.564 661.109 132.919 659.022C132.655 658.516 132.468 657.973 132.363 657.412C133.315 656.924 134.17 656.469 135.179 655.947C135.782 656.647 136.33 657.291 137.273 658.389C139.093 655.17 140.908 652.296 142.314 649.243C142.708 648.389 142.072 646.901 141.607 645.847C140.458 643.216 139.066 640.696 137.92 638.077C137.569 637.15 137.429 636.156 137.51 635.169C137.621 632.86 138.967 632.072 140.592 633.626C142.554 635.513 144.635 637.71 145.525 640.175C147.416 645.414 151.206 646.513 156.013 646.302C157.251 646.257 158.489 646.18 159.914 646.102C159.561 645.092 159.303 644.359 158.984 643.438C159.95 642.927 160.881 642.439 161.713 642.006C161.947 642.086 162.162 642.214 162.341 642.383C163.473 645.891 166.073 646.379 169.299 645.969C171.347 645.713 173.476 646.024 175.506 645.691C178.462 645.214 180.412 645.969 181.035 649.41C172.839 652.74 164.494 656.136 156.188 659.521C158.548 664.594 160.629 669.145 162.821 673.652C163.247 674.166 163.856 674.496 164.52 674.573C165.93 674.872 167.395 674.895 168.793 675.228C169.693 675.555 170.555 675.98 171.364 676.493C165.997 679.301 161.135 681.843 155.749 684.662C155.86 683.652 155.638 682.476 156.122 681.787C158.428 678.458 158.457 675.638 155.716 672.308C153.535 669.655 152.32 666.215 150.346 662.507ZM254.499 31.9975C257.408 32.2528 259.562 32.3304 261.66 32.7077C262.312 32.8298 262.817 33.7622 263.39 34.3283C262.81 34.856 262.116 35.2434 261.362 35.4605C259.222 35.424 257.089 35.2089 254.985 34.8169C254.202 34.4298 253.506 33.8855 252.943 33.2183C253.616 32.6855 254.29 32.1529 254.499 31.9975ZM56.174 526.846C56.004 527.197 55.8026 527.531 55.5725 527.845C53.9436 529.643 52.3569 531.497 50.6101 533.173C50.1931 533.573 49.2202 533.406 48.4975 533.495C48.5231 532.774 48.2618 531.83 48.6232 531.386C50.1589 529.504 51.7918 527.704 53.5155 525.992C53.7572 525.819 54.0328 525.699 54.3243 525.639C54.6157 525.58 54.9164 525.583 55.2066 525.647C55.6256 525.959 55.9585 526.371 56.174 526.846ZM434.946 155.216C435.731 155.725 436.451 156.329 437.088 157.014C438.245 159.041 439.289 161.131 440.213 163.274C440.449 163.84 439.862 164.739 439.658 165.494C438.969 165.295 438.337 164.938 437.812 164.451C436.649 162.531 435.623 160.532 434.742 158.468C434.444 157.769 434.819 156.792 434.946 155.216ZM210.497 28.5342C212.224 28.63 213.945 28.8152 215.653 29.0892C216.277 29.437 216.813 29.9231 217.219 30.51C216.74 31.0355 216.139 31.4357 215.469 31.6755C213.322 31.6833 211.177 31.5237 209.055 31.1983C208.231 30.897 207.47 30.4454 206.81 29.8664C207.622 29.4224 208.407 28.9227 209.257 28.5565C209.665 28.4716 210.086 28.4641 210.497 28.5342ZM4.06868 628.853C4.55902 626.222 4.84701 624.102 5.40296 622.049C5.5842 621.383 6.49372 620.917 7.07079 620.351C7.54055 621.053 7.85478 621.848 7.99254 622.681C7.81448 624.72 7.44748 626.738 6.89623 628.709C6.69831 629.419 5.75986 629.918 5.15944 630.507C4.73137 629.852 4.30106 629.208 4.06868 628.853ZM443.132 169.212C443.406 169.778 443.688 170.333 443.949 170.9C444.919 173.009 445.964 175.095 446.788 177.271C446.997 177.815 446.493 178.636 446.318 179.335C445.622 178.98 444.601 178.803 444.29 178.237C443.211 176.276 442.288 174.235 441.527 172.132C441.454 171.301 441.561 170.464 441.841 169.679L443.132 169.212ZM230.616 757.699C233.715 759.774 236.175 761.373 238.571 763.071C238.684 763.289 238.742 763.531 238.741 763.777C238.74 764.022 238.679 764.264 238.564 764.481C238.417 764.682 238.225 764.845 238.002 764.957C237.78 765.069 237.534 765.126 237.285 765.124C234.775 763.593 232.298 761.994 229.925 760.263C229.717 760.107 230.282 758.886 230.616 757.699ZM77.9537 840.658C77.2521 840.836 76.1402 841.435 75.8411 841.158C73.8163 839.271 71.935 837.239 70.0915 835.175C69.9813 834.953 69.9306 834.707 69.9445 834.46C69.9583 834.213 70.0362 833.973 70.1704 833.765C70.3904 833.584 70.6468 833.451 70.9224 833.376C71.198 833.302 71.4864 833.286 71.7682 833.332C73.8108 835.33 75.7466 837.428 77.6979 839.504C77.8372 839.875 77.9247 840.263 77.9581 840.658H77.9537ZM272.748 777.823C275.587 778.533 277.955 779.043 280.263 779.754C280.766 780.163 281.155 780.694 281.394 781.297C280.781 781.663 280.094 782.44 279.57 782.34C277.192 781.895 274.845 781.298 272.544 780.553C271.996 780.375 271.697 779.432 271.284 778.844C271.875 778.433 272.466 778.022 272.748 777.823ZM39.4834 546.038C39.201 545.416 38.4338 544.428 38.6529 544.106C40.2684 541.742 42.0541 539.5 43.8787 537.291C44.1023 537.187 44.3482 537.14 44.5945 537.153C44.8409 537.167 45.0801 537.241 45.2908 537.369C45.4751 537.539 45.6152 537.75 45.6989 537.986C45.7826 538.222 45.8074 538.475 45.7712 538.723C44.0511 541.109 42.2331 543.429 40.4252 545.76C40.1274 545.9 39.8098 545.994 39.4834 546.038ZM436.492 384.115C436.344 383.082 435.846 382.039 436.176 381.484C437.438 379.418 438.836 377.438 440.361 375.557C440.607 375.339 440.898 375.178 441.213 375.084C441.528 374.99 441.86 374.966 442.185 375.013C442.398 375.194 442.565 375.423 442.67 375.683C442.775 375.942 442.816 376.222 442.789 376.5C441.232 378.887 439.564 381.206 437.896 383.526C437.46 383.79 436.987 383.989 436.492 384.115ZM377.754 747.465C377.495 747.978 377.193 748.468 376.85 748.93C375.405 750.528 373.987 752.171 372.403 753.625C371.687 753.983 370.902 754.18 370.102 754.202C370.158 753.414 369.914 752.382 370.325 751.883C371.809 750.076 373.397 748.356 375.08 746.732C375.307 746.556 375.569 746.431 375.849 746.364C376.128 746.297 376.419 746.29 376.701 746.344C377.14 746.624 377.502 747.009 377.754 747.465ZM467.61 262.051C467.409 261.181 467.32 260.29 467.346 259.398C467.607 258.795 467.997 258.257 468.49 257.822C469.004 258.232 469.899 258.577 469.97 259.043C470.364 261.603 470.624 264.181 470.748 266.768C470.77 267.223 469.938 267.734 469.501 268.222C468.95 267.87 468.489 267.395 468.153 266.835C467.811 265.27 467.725 263.649 467.539 262.051H467.612H467.61ZM6.47703 713.233C6.7685 712.71 7.19804 712.276 7.71901 711.979C8.04066 711.995 8.35325 712.091 8.62866 712.257C8.90408 712.424 9.13368 712.656 9.29679 712.933C10.0121 715.332 10.6003 717.766 11.0591 720.226C11.0556 720.553 10.9694 720.874 10.8087 721.159C10.648 721.445 10.4179 721.685 10.1396 721.858C9.82359 721.872 9.5091 721.806 9.2265 721.664C8.94389 721.522 8.70271 721.31 8.52624 721.047C7.76126 718.572 7.18975 716.041 6.47703 713.233ZM251.777 773.15C248.298 771.251 245.709 769.897 243.197 768.399C243.072 768.145 243.012 767.865 243.021 767.582C243.031 767.299 243.109 767.023 243.25 766.778C243.48 766.596 243.751 766.474 244.039 766.422C244.327 766.369 244.624 766.389 244.903 766.479C247.176 767.515 249.407 768.636 251.595 769.842C251.822 770.027 252.007 770.258 252.137 770.521C252.267 770.783 252.339 771.07 252.349 771.362C252.262 771.986 252.069 772.591 251.777 773.15ZM27.9098 768.754C28.6396 769.427 29.3093 770.163 29.9112 770.952C30.9837 772.817 31.9518 774.74 32.811 776.713C32.8963 777.5 32.8016 778.297 32.5341 779.044C31.8225 778.711 30.7896 778.577 30.456 778.033C29.2538 776.037 28.1992 773.956 27.3005 771.807C27.0514 771.207 27.5762 770.297 27.9098 768.754ZM363.7 539.034C363.409 539.356 362.922 539.877 362.442 540.399C361.833 540.026 361.318 539.517 360.939 538.912C360.444 536.648 360.11 534.352 359.938 532.041C359.895 531.43 360.732 530.764 361.162 530.121C361.736 530.545 362.209 531.091 362.547 531.719C363.023 533.983 363.286 536.292 363.7 539.034ZM72.0951 513.127C71.5807 512.882 71.122 512.535 70.7475 512.106C70.6471 511.875 70.6028 511.624 70.6183 511.374C70.6337 511.123 70.7085 510.879 70.8365 510.663C73.1303 508.965 75.4875 507.344 77.9014 505.823C78.4323 506.371 78.9225 506.958 79.368 507.577L72.0951 513.127ZM181.675 487.531C178.804 487.231 176.56 487.087 174.362 486.71C173.71 486.381 173.14 485.911 172.694 485.333C173.351 484.878 174.017 484.035 174.666 484.046C176.905 484.092 179.136 484.322 181.337 484.734C181.984 484.845 182.487 485.755 183.055 486.299C182.462 486.821 181.887 487.331 181.673 487.531H181.675ZM185.18 28.8451C182.408 28.4677 180.085 28.2568 177.827 27.7573C177.234 27.6352 176.838 26.6139 176.352 26.0035C176.915 25.5516 177.574 25.2364 178.279 25.0824C180.505 25.2278 182.716 25.5355 184.896 26.0035C185.537 26.1478 185.999 27.0912 186.543 27.6684C186.007 28.1235 185.473 28.5898 185.177 28.8451H185.18ZM372.363 457.195C370.742 459.771 369.209 462.29 367.552 464.732C367.286 464.834 367 464.872 366.718 464.841C366.435 464.81 366.164 464.711 365.927 464.554C365.754 464.322 365.642 464.05 365.601 463.763C365.559 463.476 365.59 463.184 365.689 462.912C366.896 460.714 368.183 458.549 369.587 456.474C369.835 456.265 370.124 456.113 370.437 456.026C370.749 455.94 371.076 455.922 371.395 455.974C371.819 456.29 372.152 456.711 372.363 457.195ZM374.625 452.456C374.509 451.49 374.029 450.413 374.379 449.914C375.835 447.871 377.422 445.924 379.131 444.087C379.399 443.915 379.706 443.811 380.024 443.784C380.342 443.757 380.661 443.807 380.955 443.931C381.151 444.138 381.289 444.392 381.357 444.668C381.426 444.944 381.422 445.233 381.346 445.507C379.671 447.705 377.872 449.825 376.085 451.945C375.626 452.184 375.134 452.356 374.625 452.456ZM292.299 40.5442C289.506 39.9448 287.119 39.5342 284.794 38.8904C284.28 38.7461 283.985 37.8137 283.59 37.2476C284.231 36.9035 284.924 36.2041 285.502 36.2818C287.803 36.6327 290.078 37.1296 292.316 37.7693C292.909 38.1793 293.398 38.7229 293.742 39.3565C293.195 39.8116 292.65 40.2556 292.299 40.5442ZM351.093 62.0335C350.07 62.2555 349.171 62.7437 348.639 62.4884C346.402 61.3875 344.229 60.1608 342.13 58.8144C341.904 58.5866 341.741 58.3048 341.655 57.9957C341.57 57.6866 341.565 57.361 341.642 57.0497C341.853 56.8138 342.121 56.6365 342.42 56.5353C342.72 56.4341 343.041 56.4125 343.351 56.4725C345.654 57.6379 347.886 58.9365 350.093 60.2796C350.529 60.7992 350.868 61.3934 351.093 62.0335ZM417.4 124.236C417.16 124.78 416.794 125.259 416.333 125.635C416.053 125.72 415.756 125.739 415.467 125.691C415.178 125.642 414.904 125.528 414.666 125.357C413.065 123.326 411.552 121.206 410.122 119.053C410.02 118.783 409.982 118.493 410.011 118.206C410.041 117.919 410.137 117.643 410.291 117.399C410.487 117.246 410.717 117.142 410.961 117.095C411.206 117.049 411.457 117.062 411.696 117.132C413.637 119.441 415.482 121.816 417.404 124.236H417.4ZM468.384 293.641C468.401 292.384 468.51 291.13 468.71 289.889C469.036 289.342 469.489 288.881 470.031 288.546C470.476 289.023 471.291 289.5 471.287 289.978C471.265 292.493 471.11 295.005 470.824 297.503C470.505 298.068 470.051 298.545 469.502 298.891C468.977 298.498 468.55 297.988 468.254 297.403C468.139 296.152 468.119 294.895 468.194 293.641H468.384ZM16.5052 592.08C15.5478 594.888 14.7784 597.352 13.8233 599.749C13.6937 600.061 13.4495 600.31 13.141 600.447C12.8325 600.584 12.4831 600.598 12.1647 600.486C11.8464 600.374 11.5833 600.143 11.4295 599.843C11.2758 599.543 11.2431 599.196 11.3382 598.872C12.0113 596.472 12.8081 594.109 13.7254 591.791C13.9015 591.523 14.1411 591.303 14.423 591.15C14.7048 590.997 15.0202 590.916 15.341 590.914C15.8335 591.182 16.2377 591.587 16.5052 592.08ZM225.618 29.6109C227.668 29.8107 229.472 29.8995 231.232 30.2214C231.778 30.5409 232.237 30.9912 232.566 31.5314C232.084 31.9643 231.597 32.7744 231.121 32.7633C228.608 32.7172 226.099 32.5431 223.604 32.2416C223.124 32.1861 222.738 31.3537 222.309 30.8764C222.705 30.3864 223.19 29.9757 223.739 29.6664C224.358 29.545 224.993 29.5262 225.618 29.6109ZM133.153 12.9393C135.972 14.0493 138.565 15.0148 141.092 16.1359C141.291 16.3388 141.434 16.5892 141.509 16.8632C141.583 17.1373 141.585 17.4256 141.516 17.7009C141.357 17.9366 141.142 18.1285 140.889 18.2586C140.636 18.3886 140.355 18.4527 140.07 18.4447C137.532 17.6012 135.022 16.6576 132.562 15.6031C132.352 15.4079 132.193 15.1639 132.1 14.8929C132.006 14.6219 131.981 14.3322 132.027 14.0493C132.3 13.5882 132.688 13.2058 133.153 12.9393ZM262.361 528.189C261.957 527.955 261.575 527.684 261.221 527.379C259.624 525.692 257.971 524.038 256.533 522.229C256.13 521.718 256.391 520.686 256.347 519.898C257.073 519.867 257.795 520.016 258.449 520.331C260.099 521.962 261.652 523.689 263.1 525.503C263.418 526.086 263.523 526.761 263.399 527.412C263.128 527.759 262.77 528.027 262.361 528.189ZM147.854 18.2006C150.608 18.9998 152.953 19.5991 155.214 20.4094C155.72 20.5981 155.937 21.5747 156.286 22.1852C155.777 22.596 155.168 22.8641 154.52 22.9621C152.171 22.4319 149.855 21.7612 147.586 20.9533C147.272 20.7889 147.006 20.5479 146.812 20.2528C146.617 19.9577 146.501 19.6183 146.474 19.2661C146.53 18.7999 147.512 18.4448 147.854 18.2006ZM84.7695 504.636C84.2533 504.367 83.8123 503.974 83.4864 503.492C83.4462 503.205 83.4773 502.912 83.5769 502.639C83.6766 502.366 83.8417 502.122 84.0579 501.927C86.3173 500.64 88.6278 499.441 90.9894 498.331C91.2625 498.218 91.5658 498.199 91.8506 498.279C92.1354 498.358 92.3853 498.53 92.5601 498.769C92.735 499.007 92.8247 499.296 92.8149 499.591C92.8051 499.886 92.6963 500.17 92.5061 500.396C90.0388 501.85 87.4914 503.171 84.7695 504.636ZM211.737 494.524C208.868 493.591 206.218 492.77 203.609 491.838C203.419 491.686 203.269 491.49 203.17 491.268C203.071 491.046 203.028 490.804 203.042 490.561C203.218 490.282 203.449 490.042 203.722 489.857C203.995 489.672 204.303 489.545 204.628 489.484C207.224 490.173 209.786 491.005 212.308 491.926C212.532 492.109 212.708 492.345 212.817 492.612C212.927 492.88 212.968 493.171 212.937 493.458C212.638 493.913 212.224 494.28 211.737 494.524ZM128.053 489.14C127.534 488.904 127.106 488.507 126.83 488.008C126.89 487.657 127.039 487.327 127.263 487.049C127.487 486.771 127.778 486.555 128.109 486.421C130.369 485.872 132.663 485.472 134.976 485.222C135.681 485.366 136.342 485.674 136.905 486.121C136.429 486.743 136.051 487.775 135.459 487.908C133.206 488.452 130.878 488.707 128.053 489.14ZM361.477 488.707C361.461 490.135 361.342 491.559 361.122 492.97C360.762 493.6 360.258 494.136 359.652 494.535C359.218 494.035 358.409 493.514 358.416 493.014C358.458 490.428 358.637 487.845 358.952 485.278C359.113 484.996 359.336 484.754 359.605 484.572C359.874 484.389 360.181 484.27 360.502 484.223C360.754 484.348 360.975 484.527 361.148 484.748C361.321 484.969 361.442 485.226 361.503 485.5C361.598 486.566 361.614 487.639 361.551 488.707H361.476H361.477ZM449.456 183.154C449.678 183.753 449.881 184.353 450.123 184.941C451.012 187.183 452.005 189.392 452.756 191.678C452.926 192.189 452.281 192.977 452.012 193.632C451.335 193.418 450.719 193.045 450.216 192.544C449.218 190.446 448.359 188.284 447.645 186.073C447.62 185.284 447.77 184.499 448.085 183.775C448.537 183.564 448.996 183.365 449.456 183.154ZM17.3002 586.618C17.0022 585.664 16.4284 584.843 16.623 584.288C17.4546 581.929 18.4221 579.62 19.5206 577.372C19.7276 577.122 19.9899 576.922 20.2869 576.789C20.5839 576.656 20.9077 576.594 21.2329 576.606C21.4675 576.758 21.6611 576.965 21.7969 577.209C21.9326 577.453 22.0062 577.726 22.0112 578.005C21.0428 580.591 19.9476 583.133 18.8201 585.653C18.3807 586.07 17.8646 586.397 17.3002 586.618ZM454.534 197.972C455.001 198.433 455.397 198.96 455.71 199.537C456.527 201.62 457.227 203.747 457.805 205.908C457.965 206.552 457.339 207.396 457.074 208.15C456.463 207.74 455.535 207.473 455.295 206.907C454.416 204.847 453.689 202.725 453.122 200.558C453.106 199.688 453.264 198.824 453.587 198.016C453.905 197.994 454.22 197.983 454.534 197.972ZM41.1057 791.164C40.8102 791.659 40.4027 792.077 39.916 792.385C39.6256 792.434 39.328 792.416 39.0455 792.334C38.763 792.251 38.503 792.105 38.2848 791.908C36.8894 789.721 35.5874 787.468 34.3776 785.182C34.3113 784.904 34.3108 784.615 34.3762 784.338C34.4417 784.06 34.5712 783.802 34.7546 783.583C34.9581 783.445 35.1923 783.359 35.4369 783.332C35.6814 783.305 35.9289 783.338 36.1578 783.428C37.8456 785.936 39.4356 788.523 41.1057 791.164ZM7.86022 705.696C7.63117 705.941 7.15418 706.862 6.6605 706.862C6.31075 706.79 5.98479 706.631 5.71272 706.4C5.44065 706.17 5.23125 705.874 5.10386 705.541C4.55355 703.199 4.14069 700.827 3.86743 698.437C4.05393 697.813 4.39861 697.247 4.86814 696.794C5.44743 697.205 6.41811 697.527 6.53597 698.049C7.08635 700.391 7.3899 702.799 7.86356 705.696H7.86022ZM182.776 712.012C182.551 712.424 182.221 712.768 181.82 713.011C181.539 713.066 181.249 713.058 180.972 712.987C180.695 712.916 180.437 712.784 180.217 712.6C178.643 710.536 177.144 708.416 175.743 706.229C175.607 705.964 175.565 705.661 175.624 705.37C175.683 705.078 175.84 704.815 176.069 704.624C176.297 704.433 176.584 704.325 176.882 704.318C177.18 704.311 177.472 704.406 177.709 704.586C179.411 706.773 180.986 709.06 182.589 711.324C182.68 711.545 182.744 711.776 182.779 712.012H182.776ZM192.486 724.488C191.718 724.644 190.557 725.188 190.275 724.899C188.377 722.876 186.583 720.757 184.903 718.55C184.823 718.274 184.81 717.982 184.867 717.7C184.923 717.418 185.047 717.154 185.227 716.929C185.437 716.786 185.68 716.698 185.933 716.675C186.186 716.651 186.441 716.693 186.673 716.796C188.574 718.927 190.379 721.136 192.198 723.345C192.341 723.713 192.439 724.097 192.489 724.488H192.486ZM16.0682 740.794C16.6994 741.233 17.2576 741.769 17.7227 742.381C18.6433 744.612 19.5373 746.854 20.24 749.163C20.4123 749.729 19.8253 750.517 19.5862 751.205C18.9635 750.85 18.014 750.65 17.7738 750.118C16.7627 747.928 15.899 745.673 15.1887 743.369C15.0119 742.781 15.6468 741.948 16.0682 740.794ZM401.7 104.734C402.126 104.949 402.523 105.218 402.881 105.533C404.427 107.387 405.987 109.23 407.407 111.183C407.596 111.798 407.635 112.449 407.518 113.081C406.805 113.048 405.778 113.303 405.429 112.926C403.74 111.078 402.149 109.144 400.661 107.132C400.425 106.588 400.413 105.974 400.629 105.422C400.92 105.103 401.289 104.866 401.7 104.734ZM470.209 305.162C469.801 307.915 469.568 310.235 469.054 312.488C468.911 313.11 467.927 313.531 467.33 314.053C466.88 313.495 466.563 312.842 466.403 312.144C466.588 309.834 466.922 307.539 467.404 305.273C467.531 304.936 467.741 304.637 468.014 304.402C468.288 304.168 468.616 304.005 468.968 303.93C469.441 303.919 469.929 304.862 470.209 305.162ZM58.1242 816.439C57.9298 816.984 57.6068 817.475 57.1825 817.87C56.9082 817.954 56.6183 817.972 56.3357 817.924C56.0531 817.876 55.7856 817.763 55.5547 817.593C53.9424 815.573 52.414 813.49 50.9692 811.344C50.8663 811.069 50.8276 810.774 50.8559 810.481C50.8842 810.189 50.9789 809.907 51.1327 809.656C51.3198 809.498 51.5414 809.386 51.7798 809.328C52.0182 809.27 52.2668 809.269 52.5059 809.324C54.4216 811.644 56.2463 814.03 58.1242 816.439ZM413.616 411.553C413.401 411.983 413.146 412.392 412.854 412.774C411.254 414.461 409.681 416.182 407.962 417.747C407.306 418.035 406.592 418.164 405.876 418.124C405.871 417.414 405.564 416.448 405.913 416.038C407.491 414.206 409.164 412.457 410.923 410.798C411.162 410.626 411.434 410.503 411.722 410.438C412.009 410.373 412.307 410.368 412.598 410.421C413.027 410.706 413.378 411.096 413.616 411.553ZM419.552 129.042C420.153 129.354 420.71 129.742 421.21 130.197C422.61 132.273 424.019 134.359 425.266 136.535C425.528 136.979 425.123 137.822 425.025 138.477C424.321 138.3 423.294 138.366 422.971 137.922C421.491 135.894 420.148 133.769 418.952 131.562C418.682 131.063 419.277 130.097 419.552 129.042ZM426.891 396.058C426.747 395.17 426.243 394.138 426.557 393.682C428.08 391.573 429.72 389.55 431.468 387.622C431.706 387.453 431.983 387.347 432.273 387.314C432.564 387.281 432.858 387.322 433.127 387.433C433.338 387.621 433.498 387.859 433.593 388.124C433.688 388.39 433.714 388.676 433.669 388.954C431.938 391.23 430.089 393.416 428.248 395.614C427.82 395.828 427.361 395.978 426.889 396.058H426.891ZM174.159 699.103C173.897 699.604 173.51 700.028 173.035 700.335C172.745 700.375 172.45 700.344 172.175 700.245C171.899 700.147 171.652 699.983 171.453 699.769C170.127 697.649 168.873 695.485 167.753 693.254C167.673 692.932 167.667 692.596 167.735 692.271C167.803 691.946 167.943 691.641 168.146 691.378C168.402 691.266 168.682 691.219 168.961 691.24C169.24 691.261 169.51 691.35 169.747 691.5C171.25 693.919 172.624 696.428 174.152 699.103H174.159ZM42.8035 796.437C44.6059 796.392 49.5983 803.962 48.8333 804.739C48.4897 804.944 48.0997 805.059 47.6998 805.072C47.2998 805.086 46.9029 804.998 46.5461 804.817C45.0019 802.843 43.6113 800.754 42.3866 798.568C42.0908 798.046 42.6579 797.047 42.7969 796.437H42.8035ZM267.323 777.146C266.155 777.612 265.328 778.278 264.765 778.1C262.376 777.36 260.038 776.463 257.768 775.414C257.306 775.203 257.227 774.16 256.971 773.494C257.547 773.198 258.185 773.042 258.832 773.038C261.128 773.782 263.383 774.659 265.615 775.569C266.251 776.015 266.823 776.545 267.316 777.146H267.323ZM89.2527 851.347C88.3254 851.436 87.189 851.902 86.702 851.525C84.7392 849.956 82.8738 848.269 81.1159 846.475C80.9406 846.247 80.8253 845.98 80.7804 845.697C80.7355 845.414 80.7626 845.124 80.859 844.854C81.0451 844.639 81.2811 844.473 81.5462 844.371C81.8114 844.268 82.0977 844.232 82.3801 844.266C84.6317 846.153 86.7876 848.151 88.9558 850.138C89.1103 850.525 89.2102 850.932 89.2527 851.347ZM67.7843 828.415C67.5754 828.977 67.2385 829.482 66.8003 829.892C66.5228 829.981 66.2284 830.007 65.9395 829.966C65.6507 829.926 65.3747 829.82 65.1325 829.658C63.4024 827.727 61.7468 825.718 60.1846 823.642C60.0777 823.371 60.0354 823.078 60.061 822.787C60.0867 822.496 60.1796 822.215 60.3324 821.966C60.5174 821.803 60.7401 821.688 60.9806 821.632C61.221 821.576 61.4717 821.58 61.7101 821.644C63.776 823.831 65.7485 826.118 67.7843 828.415ZM384.973 602.535C385.474 602.961 385.913 603.454 386.278 604.001C387.297 605.988 388.206 608.03 389.002 610.117C389.216 610.716 388.644 611.593 388.433 612.347C387.747 612.136 387.12 611.767 386.602 611.271C385.507 609.22 384.55 607.099 383.737 604.922C383.692 604.136 383.828 603.35 384.135 602.624C384.414 602.591 384.694 602.558 384.973 602.535ZM37.0006 550.866C36.5692 551.632 36.2089 552.331 35.7964 552.997C34.7668 554.673 33.785 556.383 32.6209 557.948C32.3881 558.174 32.1018 558.337 31.7888 558.422C31.4757 558.507 31.1461 558.512 30.8307 558.436C30.5962 558.222 30.4215 557.951 30.324 557.649C30.2265 557.348 30.2095 557.026 30.2748 556.716C31.5957 554.396 33.0545 552.154 34.5644 549.956C34.7565 549.791 34.986 549.676 35.2328 549.62C35.4796 549.564 35.7364 549.568 35.981 549.634C36.4096 549.963 36.7581 550.384 37.0006 550.866ZM11.7607 606.875C11.0602 609.706 10.5532 612.07 9.84494 614.379C9.69484 614.867 8.80867 615.122 8.26162 615.489C7.89359 614.878 7.1275 614.201 7.22645 613.68C7.68644 611.312 8.29624 608.977 9.05217 606.687C9.2088 606.372 9.44366 606.103 9.73429 605.904C10.0249 605.706 10.3616 605.586 10.7122 605.555C11.1888 605.876 11.5533 606.338 11.7552 606.875H11.7607ZM5.57752 690.412C5.38294 690.656 4.93707 691.211 4.4912 691.777C3.9019 691.256 2.89898 690.812 2.79446 690.212C2.41324 687.929 2.19588 685.622 2.14401 683.308C2.36552 682.643 2.75045 682.044 3.26367 681.566C3.79293 682.121 4.67356 682.62 4.78697 683.253C5.17168 685.439 5.2951 687.67 5.57196 690.412H5.57752ZM318.694 784.493C318.223 784.172 317.636 783.761 317.049 783.35C317.43 782.672 317.963 782.091 318.605 781.652C320.735 780.99 322.913 780.493 325.119 780.165C325.751 780.076 326.506 780.831 327.204 781.197C326.86 781.829 326.373 782.372 325.782 782.784C323.561 783.45 321.276 783.894 318.689 784.493H318.694ZM294.592 784.86C291.908 784.482 289.852 784.282 287.851 783.85C287.231 783.49 286.703 782.992 286.306 782.396C286.973 781.963 287.657 781.141 288.307 781.175C290.271 781.255 292.221 781.538 294.126 782.018C295.031 782.423 295.861 782.979 296.58 783.661C295.774 784.138 294.976 784.627 294.586 784.86H294.592ZM15.3966 735.355C15.2131 735.837 14.8957 736.257 14.4815 736.565C14.1595 736.596 13.8347 736.55 13.5342 736.43C13.2338 736.311 12.9665 736.121 12.7548 735.877C11.8575 733.368 11.1003 730.804 10.4398 728.229C10.4626 727.947 10.5573 727.675 10.715 727.44C10.8726 727.205 11.088 727.014 11.3404 726.886C11.6608 726.883 11.977 726.958 12.2626 727.102C12.5482 727.247 12.7947 727.459 12.9816 727.718C13.8544 730.138 14.5505 732.624 15.3888 735.355H15.3966ZM29.2029 564.064C27.7575 566.694 26.3809 569.281 24.8743 571.778C24.6427 571.963 24.3547 572.063 24.0583 572.061C23.7618 572.06 23.4747 571.957 23.2447 571.771C23.0147 571.584 22.8556 571.324 22.7938 571.035C22.7321 570.746 22.7714 570.444 22.9052 570.18C23.9615 567.926 25.0978 565.706 26.3587 563.564C26.5866 563.328 26.8629 563.143 27.1687 563.022C27.4745 562.901 27.8027 562.848 28.1311 562.865C28.584 563.166 28.9507 563.579 29.1951 564.064H29.2029ZM469.054 251.439C468.801 251.739 468.353 252.294 467.904 252.838C467.32 252.316 466.375 251.883 466.216 251.262C465.667 249.101 465.291 246.9 465.092 244.68C465.035 244.036 465.811 243.326 466.204 242.637C466.816 243.015 467.333 243.527 467.715 244.136C468.251 246.389 468.566 248.687 469.046 251.439H469.054ZM385.183 440.59C384.776 440.389 384.421 440.097 384.147 439.736C384.05 439.506 384.009 439.257 384.025 439.009C384.041 438.76 384.115 438.519 384.241 438.304C385.969 436.372 387.75 434.485 389.611 432.687C389.851 432.524 390.127 432.422 390.415 432.391C390.704 432.36 390.995 432.401 391.264 432.51C391.455 432.714 391.59 432.965 391.657 433.237C391.723 433.509 391.718 433.794 391.642 434.063C389.798 436.228 387.839 438.292 385.901 440.379C385.673 440.491 385.427 440.562 385.175 440.59H385.183ZM363.848 70.1249C363.151 70.4579 362.202 71.2461 361.846 71.0352C359.477 69.6144 357.211 68.0161 354.977 66.3845C354.821 66.1958 354.716 65.9696 354.674 65.7281C354.632 65.4867 354.654 65.2384 354.738 65.0081C354.912 64.7824 355.134 64.5977 355.387 64.4672C355.641 64.3368 355.92 64.2638 356.205 64.2534C358.629 65.7519 360.975 67.3836 363.321 68.993C363.552 69.3411 363.727 69.7228 363.84 70.1249H363.848ZM452.83 357.864C452.569 357.087 451.931 356.21 452.145 355.655C453.067 353.336 454.129 351.075 455.326 348.884C455.557 348.653 455.834 348.472 456.139 348.354C456.444 348.235 456.771 348.181 457.098 348.196C457.307 348.32 457.483 348.493 457.612 348.7C457.74 348.906 457.817 349.141 457.836 349.383C456.683 352.059 455.424 354.7 454.158 357.331C453.746 357.582 453.294 357.762 452.822 357.864H452.83ZM337.571 54.4745C336.651 54.8186 335.76 55.4956 335.21 55.2847C332.882 54.3768 330.611 53.3277 328.411 52.1434C328.164 51.9264 327.97 51.6551 327.846 51.3508C327.722 51.0464 327.67 50.7175 327.695 50.3898C327.853 50.1498 328.07 49.9536 328.325 49.8197C328.58 49.6858 328.865 49.6184 329.153 49.6237C331.71 50.656 334.218 51.8438 336.713 53.0203C337.081 53.4521 337.371 53.9441 337.571 54.4745ZM462.635 221.548C462.391 222.054 462.004 222.478 461.523 222.769C461.2 222.767 460.884 222.683 460.603 222.523C460.323 222.364 460.089 222.135 459.923 221.859C459.101 219.491 458.402 217.083 457.827 214.644C457.922 214.004 458.175 213.397 458.563 212.879C459.193 213.234 460.209 213.445 460.39 213.956C461.225 216.309 461.833 218.751 462.635 221.548ZM232.942 500.773C235.493 502.46 238.014 504.092 240.467 505.812C240.558 506.04 240.591 506.287 240.564 506.531C240.537 506.775 240.451 507.008 240.313 507.211C240.088 507.391 239.825 507.517 239.544 507.579C239.263 507.641 238.971 507.636 238.692 507.566C236.424 506.334 234.204 505.002 232.048 503.581C231.858 503.361 231.719 503.102 231.642 502.821C231.565 502.541 231.552 502.247 231.603 501.961C231.953 501.468 232.411 501.062 232.942 500.773ZM169.929 26.5032C167.175 25.9149 164.792 25.5042 162.479 24.8493C161.949 24.705 161.644 23.7504 161.235 23.1732C161.878 22.8402 162.569 22.1631 163.152 22.2519C165.45 22.5865 167.724 23.0723 169.958 23.706C170.556 24.1001 171.049 24.6333 171.395 25.2599C170.851 25.715 170.315 26.1702 169.926 26.5032H169.929ZM200.238 30.5656C197.375 30.2326 195.212 30.0771 193.097 29.6775C192.462 29.3243 191.92 28.826 191.514 28.2234C192.105 27.6941 192.809 27.3071 193.573 27.0915C195.643 27.1206 197.705 27.3284 199.739 27.7129C200.532 28.0739 201.242 28.5956 201.824 29.2448C201.164 29.7887 200.508 30.3325 200.235 30.5656H200.238ZM189.76 485.899C192.206 486.432 194.673 486.909 197.087 487.564C197.586 487.97 197.971 488.498 198.205 489.096C197.592 489.451 196.923 490.195 196.372 490.117C193.978 489.762 191.607 489.273 189.268 488.652C188.964 488.528 188.695 488.334 188.482 488.085C188.269 487.836 188.119 487.539 188.045 487.22C188.108 486.418 188.309 485.634 188.639 484.9L189.76 485.899ZM146.785 486.665C145.82 486.852 144.837 486.93 143.854 486.898C143.167 486.663 142.529 486.306 141.969 485.844C142.449 485.322 142.873 484.401 143.415 484.323C145.89 483.975 148.383 483.772 150.881 483.713C151.197 483.783 151.489 483.935 151.729 484.153C151.968 484.371 152.146 484.648 152.244 484.956C152.186 485.275 152.046 485.573 151.838 485.822C151.631 486.071 151.362 486.262 151.058 486.376C149.641 486.568 148.212 486.664 146.782 486.665H146.785ZM300.1 39.512C302.806 40.2779 305.073 40.7995 307.244 41.5987C307.812 41.8095 308.076 42.8418 308.479 43.4967C307.87 43.8616 307.186 44.0855 306.478 44.1516C304.208 43.6787 301.972 43.0596 299.782 42.2981C299.475 42.1213 299.218 41.8697 299.034 41.5669C298.851 41.2642 298.747 40.92 298.732 40.5665C298.779 40.1003 299.749 39.7562 300.1 39.512ZM445.328 371.439C445 370.506 444.345 369.607 444.578 369.141C445.767 366.838 447.085 364.603 448.527 362.448C448.767 362.23 449.059 362.077 449.374 362.003C449.69 361.929 450.02 361.937 450.332 362.026C450.556 362.255 450.717 362.537 450.799 362.847C450.881 363.156 450.881 363.481 450.8 363.791C449.648 366.011 448.344 368.153 447.019 370.273C446.518 370.747 445.945 371.141 445.323 371.439H445.328ZM380.172 743.402C380.172 742.115 379.854 741.082 380.229 740.472C381.457 738.498 382.829 736.617 384.333 734.844C384.718 734.389 385.699 734.422 386.406 734.234C386.556 734.8 387.019 735.566 386.805 735.888C385.266 738.174 383.603 740.383 381.941 742.581C381.392 742.937 380.795 743.214 380.168 743.402H380.172ZM427.702 142.174C428.239 142.384 428.738 142.68 429.179 143.05C430.607 145.415 432.033 147.779 433.326 150.221C433.338 150.507 433.276 150.791 433.148 151.047C433.02 151.304 432.83 151.523 432.594 151.686C432.278 151.745 431.953 151.727 431.646 151.635C431.339 151.542 431.059 151.377 430.829 151.153C429.466 149.062 428.231 146.89 427.131 144.649C426.869 144.105 427.445 143.173 427.699 142.174H427.702ZM463.629 335.076C462.589 337.84 461.666 340.437 460.591 342.979C460.39 343.178 460.142 343.322 459.869 343.398C459.597 343.474 459.309 343.479 459.034 343.412C458.783 343.218 458.582 342.967 458.449 342.679C458.316 342.391 458.255 342.075 458.271 341.758C458.986 339.367 459.825 337.014 460.786 334.71C460.979 334.446 461.231 334.229 461.521 334.077C461.811 333.925 462.133 333.842 462.46 333.833C462.951 334.138 463.353 334.567 463.625 335.076H463.629ZM359.354 764.847C358.998 764.718 358.688 764.486 358.464 764.181C358.384 763.898 358.361 763.602 358.398 763.31C358.435 763.018 358.53 762.737 358.679 762.483C360.585 760.729 362.563 759.057 364.615 757.466C364.88 757.343 365.171 757.288 365.462 757.306C365.753 757.323 366.035 757.412 366.283 757.565C366.451 757.786 366.559 758.045 366.598 758.319C366.637 758.593 366.605 758.873 366.505 759.131C364.412 761.062 362.218 762.882 360.041 764.725C359.82 764.808 359.586 764.85 359.35 764.847H359.354ZM26.6167 764.048C26.3907 764.523 26.0503 764.935 25.626 765.246C25.2959 765.244 24.9699 765.174 24.6682 765.04C24.3666 764.906 24.0957 764.712 23.8725 764.469C22.7307 762.252 21.7049 759.978 20.7993 757.654C20.7566 757.331 20.7894 757.003 20.8951 756.695C21.0008 756.387 21.1765 756.107 21.4086 755.878C21.6786 755.797 21.9647 755.786 22.2406 755.844C22.5164 755.902 22.7732 756.028 22.9875 756.211C24.2628 758.753 25.3991 761.373 26.6133 764.048H26.6167ZM395.463 625.19C395.189 625.691 394.788 626.112 394.3 626.411C393.975 626.414 393.653 626.342 393.36 626.202C393.067 626.061 392.809 625.856 392.608 625.601C391.561 623.335 390.633 621.015 389.828 618.652C389.803 618.333 389.855 618.012 389.979 617.717C390.103 617.421 390.296 617.16 390.542 616.954C390.818 616.89 391.106 616.897 391.378 616.975C391.65 617.053 391.898 617.198 392.099 617.398C393.276 619.884 394.304 622.448 395.46 625.19H395.463ZM270.032 33.7513C272.758 34.162 274.829 34.3618 276.835 34.8391C277.529 35.2266 278.129 35.7606 278.595 36.404C277.817 36.7814 277.022 37.514 276.266 37.4807C274.289 37.37 272.327 37.0689 270.408 36.5815C269.632 36.1902 268.937 35.6554 268.361 35.0055C269.041 34.4949 269.72 33.9844 270.032 33.7513ZM244.724 33.9288C242.924 33.8394 241.131 33.6541 239.351 33.3738C238.692 33.2406 238.182 32.3636 237.605 31.8308C238.136 31.3338 238.778 30.9688 239.477 30.7653C241.549 30.7535 243.619 30.9209 245.663 31.265C246.511 31.6378 247.276 32.1732 247.917 32.8411C247.124 33.2074 246.34 33.5958 245.531 33.9177C245.264 33.9654 244.99 33.9578 244.727 33.8955L244.724 33.9288ZM98.5547 497.931C98.0798 497.666 97.6803 497.284 97.3939 496.821C97.3545 496.537 97.3861 496.247 97.486 495.978C97.586 495.709 97.751 495.469 97.9665 495.278C100.423 494.246 102.926 493.303 105.46 492.47C105.745 492.46 106.028 492.522 106.283 492.65C106.538 492.778 106.756 492.968 106.918 493.203C106.983 493.475 106.976 493.759 106.898 494.027C106.82 494.296 106.674 494.539 106.474 494.735C103.945 495.845 101.357 496.821 98.5547 497.931ZM467.165 237.154C466.495 237.442 465.78 237.611 465.052 237.654C464.728 237.608 464.419 237.49 464.148 237.307C463.877 237.124 463.651 236.882 463.489 236.599C462.808 234.273 462.251 231.913 461.821 229.528C461.919 228.885 462.172 228.276 462.559 227.752C463.191 228.085 464.235 228.296 464.385 228.785C465.124 231.171 465.628 233.646 466.215 236.088L467.165 237.154ZM251.536 517.178C250.907 516.756 250.37 516.457 249.89 516.079C248.204 514.736 246.485 513.438 244.9 511.995C244.61 511.421 244.467 510.784 244.483 510.141C245.178 510.03 246.123 509.564 246.527 509.864C248.557 511.336 250.507 512.914 252.369 514.592C252.544 514.826 252.666 515.095 252.727 515.38C252.787 515.666 252.784 515.962 252.718 516.246C252.411 516.653 252.004 516.974 251.536 517.178ZM363.439 544.34C364.119 545.065 364.704 545.874 365.178 546.748C365.814 548.883 366.317 551.055 366.684 553.252C366.781 553.874 366.067 554.629 365.726 555.317C365.083 555.014 364.526 554.556 364.104 553.985C363.439 551.767 362.915 549.509 362.533 547.225C362.422 546.57 362.953 545.805 363.439 544.34ZM404.157 693.354C403.766 695.984 403.616 697.949 403.124 699.836C402.698 700.666 402.114 701.405 401.404 702.011C400.957 701.271 400.651 700.454 400.501 699.603C400.561 697.645 400.806 695.698 401.231 693.786C401.619 693.02 402.164 692.343 402.83 691.799C403.368 692.432 403.907 693.065 404.157 693.354ZM423.984 400.298C423.789 400.743 423.55 401.167 423.269 401.563C421.777 403.239 420.327 404.971 418.69 406.503C418.219 406.947 417.173 406.769 416.39 406.869C416.322 406.138 416.426 405.4 416.694 404.716C418.166 402.897 419.735 401.159 421.395 399.51C421.634 399.332 421.908 399.206 422.199 399.139C422.49 399.073 422.792 399.066 423.085 399.122C423.481 399.43 423.791 399.835 423.984 400.298ZM368.612 72.789C370.302 73.9908 371.924 75.284 373.471 76.6628C374.361 77.5286 375.624 79.5378 375.361 79.8264C373.75 81.6134 372.812 79.4931 371.703 78.7495C370.293 77.8005 368.965 76.735 367.733 75.564C367.534 75.3065 367.39 75.0114 367.309 74.6965C367.228 74.3817 367.212 74.0535 367.263 73.7324C367.627 73.3107 368.091 72.9866 368.612 72.789ZM405.258 667.868C404.719 669.034 404.208 671.165 403.633 671.187C401.135 671.265 402.309 669.012 402.036 667.735C401.722 666.33 401.601 664.889 401.675 663.451C401.902 662.606 402.278 661.809 402.787 661.098C403.417 661.668 403.931 662.354 404.301 663.118C404.583 664.614 404.763 666.126 404.84 667.646C404.982 667.724 405.12 667.802 405.258 667.868ZM101.446 860.682C100.445 860.926 99.4209 861.526 98.985 861.237C96.7745 859.726 94.648 858.095 92.615 856.353C92.4721 856.099 92.3963 855.813 92.395 855.522C92.3936 855.23 92.4667 854.944 92.6072 854.688C92.8216 854.502 93.08 854.374 93.3578 854.316C93.6357 854.258 93.9238 854.271 94.195 854.355C96.3876 855.887 98.4969 857.541 100.607 859.195C100.952 859.651 101.234 860.151 101.446 860.682ZM321.76 49.4574C319.057 48.4251 316.429 47.4927 313.865 46.4049C313.673 46.1886 313.534 45.9304 313.459 45.651C313.384 45.3717 313.375 45.0788 313.434 44.7955C313.552 44.5747 313.725 44.388 313.937 44.2538C314.148 44.1196 314.391 44.0426 314.641 44.0297C317.283 44.8955 319.903 45.8499 322.473 46.9044C322.671 47.1135 322.816 47.3664 322.897 47.6423C322.978 47.9182 322.992 48.2091 322.938 48.4916C322.635 48.9096 322.229 49.2424 321.76 49.4574ZM307.089 782.584C308.249 782.508 309.412 782.527 310.568 782.64C311.144 782.92 311.649 783.326 312.045 783.828C311.6 784.305 311.176 785.171 310.711 785.204C308.126 785.337 305.525 785.348 302.939 785.226C302.472 785.204 302.049 784.349 301.604 783.872C301.993 783.356 302.499 782.941 303.082 782.662C304.418 782.555 305.76 782.536 307.099 782.607V782.584H307.089ZM342.161 775.58C341.74 776.163 341.246 776.69 340.689 777.146C338.411 778.189 336.131 779.266 333.782 780.109C333.328 780.276 332.537 779.51 331.901 779.177C332.115 778.576 332.465 778.033 332.923 777.589C334.993 776.524 337.13 775.594 339.32 774.803C339.952 774.593 340.872 775.203 342.161 775.58ZM355.212 767.689C354.933 768.228 354.583 768.728 354.173 769.176C352.117 770.585 350.059 771.995 347.919 773.283C347.353 773.37 346.775 773.309 346.24 773.105C346.332 772.484 346.196 771.573 346.555 771.296C348.587 769.725 350.708 768.272 352.907 766.945C353.317 766.701 354.267 767.367 355.212 767.689ZM219.082 494.268C221.687 495.456 224.15 496.51 226.52 497.743C226.736 497.979 226.892 498.263 226.976 498.572C227.06 498.881 227.068 499.206 227.001 499.519C226.817 499.736 226.582 499.904 226.316 500.007C226.05 500.11 225.763 500.144 225.48 500.107C222.999 499.119 220.554 498.02 218.163 496.844C217.961 496.642 217.814 496.393 217.734 496.119C217.655 495.846 217.646 495.556 217.709 495.278C218.078 494.835 218.549 494.488 219.082 494.268ZM122.736 489.163C122.111 489.775 121.412 490.309 120.656 490.75C118.417 491.405 116.165 492.037 113.879 492.492C113.162 492.411 112.474 492.164 111.87 491.771C112.335 491.138 112.677 490.139 113.291 489.929C115.413 489.202 117.588 488.634 119.795 488.23C120.483 488.108 121.301 488.685 122.736 489.163ZM383.227 597.008C382.945 597.52 382.545 597.958 382.06 598.284C381.775 598.337 381.482 598.317 381.206 598.228C380.931 598.139 380.682 597.983 380.483 597.774C379.3 595.298 378.228 592.756 377.226 590.203C377.228 589.956 377.287 589.713 377.397 589.492C377.508 589.27 377.668 589.077 377.864 588.927C378.056 588.853 378.263 588.829 378.467 588.858C378.67 588.887 378.862 588.968 379.025 589.094C380.443 591.646 381.778 594.244 383.227 597.008ZM67.8266 515.602C67.3294 516.376 66.7827 517.118 66.1899 517.822C64.6533 519.315 63.0428 520.73 61.3643 522.062C60.8406 522.462 59.8477 522.229 59.0693 522.295C59.1805 521.574 59.0327 520.597 59.4496 520.175C61.1389 518.451 62.9484 516.849 64.8645 515.38C65.3348 515.025 66.4123 515.469 67.8266 515.602ZM5.7532 636.967C5.45855 639.775 5.36959 641.84 4.96598 643.838C4.81921 644.57 3.92636 645.147 3.37375 645.802C2.98125 645.103 2.23629 644.392 2.26186 643.704C2.34506 641.568 2.5975 639.441 3.01683 637.344C3.36629 636.644 3.86182 636.028 4.47008 635.535C5.01824 636.157 5.57084 636.767 5.74874 636.967H5.7532ZM403.422 654.649C403.1 655.037 402.652 655.592 402.199 656.136C401.643 655.659 400.754 655.259 400.61 654.682C400.054 652.417 399.646 650.118 399.387 647.8C399.324 647.234 400.034 646.579 400.388 645.969C400.944 646.435 401.833 646.823 401.982 647.401C402.56 649.654 402.909 651.963 403.418 654.649H403.422ZM379.878 82.9119C380.418 83.1099 380.934 83.367 381.417 83.678C383.111 85.0074 384.725 86.4341 386.252 87.9512C386.759 88.484 386.654 89.5939 386.827 90.4375C386.02 90.4514 385.219 90.2925 384.479 89.9714C382.742 88.548 381.086 87.0285 379.519 85.4204C379.153 84.9481 378.963 84.3634 378.982 83.7666C379.2 83.4081 379.509 83.1134 379.878 82.9119ZM395.63 721.602C393.637 724.943 392.17 727.485 390.575 729.938C390.314 730.052 390.029 730.099 389.745 730.075C389.462 730.052 389.188 729.959 388.949 729.805C388.778 729.567 388.668 729.291 388.629 729C388.59 728.71 388.624 728.414 388.726 728.14C389.86 725.92 391.083 723.752 392.396 721.636C392.594 721.424 392.836 721.257 393.104 721.146C393.373 721.034 393.662 720.982 393.952 720.992C394.542 721.101 395.109 721.307 395.63 721.602ZM361.485 520.408C361.63 521.471 361.671 522.545 361.607 523.616C361.327 524.198 360.907 524.701 360.384 525.081C359.903 524.637 359.062 524.249 358.998 523.749C358.677 521.35 358.502 518.933 358.475 516.512C358.475 515.935 359.312 515.358 359.765 514.792C360.351 515.21 360.833 515.757 361.174 516.39C361.383 517.72 361.491 519.063 361.498 520.408H361.481H361.485ZM127.892 11.7071C126.983 12.0845 126.113 12.7838 125.614 12.5729C123.225 11.5718 120.898 10.4302 118.644 9.15412C118.429 8.91744 118.272 8.63313 118.189 8.32435C118.105 8.01558 118.095 7.69134 118.162 7.37833C118.335 7.15563 118.564 6.98128 118.824 6.87239C119.085 6.7635 119.37 6.7237 119.651 6.75668C122.102 7.83335 124.498 9.04313 126.878 10.2641C127.293 10.6862 127.636 11.1738 127.892 11.7071ZM367.265 559.246C367.85 559.854 368.367 560.524 368.806 561.244C369.598 563.222 370.27 565.246 370.817 567.305C370.826 568.233 370.651 569.153 370.303 570.013C369.51 569.5 368.825 568.836 368.288 568.06C367.526 566.061 366.924 564.004 366.489 561.91C366.357 561.322 366.85 560.589 367.265 559.246ZM162.559 486.11C161.304 486.181 160.045 486.162 158.792 486.055C158.229 485.756 157.747 485.326 157.387 484.8C157.832 484.345 158.266 483.502 158.733 483.48C161.248 483.378 163.766 483.404 166.278 483.557C166.775 483.591 167.22 484.401 167.691 484.856C167.249 485.401 166.691 485.841 166.057 486.143C164.896 486.271 163.725 486.294 162.559 486.21V486.11ZM359.821 477.541C360.665 474.955 361.302 472.702 362.166 470.548C362.388 469.982 363.321 469.705 363.928 469.305C364.193 470.038 364.81 470.87 364.66 471.514C364.146 473.694 363.477 475.834 362.658 477.919C362.496 478.23 362.258 478.495 361.967 478.691C361.676 478.886 361.34 479.007 360.99 479.04C360.468 478.929 360.132 477.985 359.82 477.541H359.821ZM400.223 639.664C399.864 640.108 399.506 640.952 399.057 640.996C398.728 640.996 398.405 640.912 398.118 640.753C397.831 640.594 397.589 640.364 397.415 640.086C396.557 637.733 395.826 635.335 395.223 632.904C395.245 632.586 395.342 632.278 395.508 632.006C395.674 631.734 395.902 631.505 396.175 631.339C396.456 631.309 396.74 631.353 397 631.466C397.259 631.579 397.484 631.757 397.654 631.983C398.563 634.414 399.316 636.9 400.222 639.664H400.223ZM471.459 278.512C471.533 279.677 471.514 280.846 471.403 282.008C471.127 282.584 470.722 283.09 470.219 283.484C469.723 282.974 468.845 282.508 468.799 281.964C468.604 279.631 468.559 277.287 468.663 274.949C468.918 274.288 469.328 273.698 469.859 273.228C470.472 273.71 470.972 274.32 471.323 275.015C471.468 276.175 471.49 277.347 471.39 278.512H471.459ZM4.11539 655.77C4.18988 657.102 4.16833 658.437 4.0509 659.766C3.95022 660.069 3.77265 660.34 3.5355 660.554C3.29835 660.768 3.00973 660.917 2.69773 660.987C2.39747 660.903 2.12448 660.742 1.90612 660.52C1.68775 660.298 1.53169 660.023 1.45353 659.721C1.38149 657.229 1.45016 654.735 1.65922 652.251C1.70592 651.73 2.62768 651.285 3.14693 650.808C3.64085 651.216 4.03264 651.732 4.29107 652.318C4.35357 653.469 4.32121 654.624 4.19433 655.77H4.11539ZM4.23435 671.598C4.31053 672.752 4.29119 673.91 4.17653 675.061C3.88918 675.626 3.46964 676.113 2.95346 676.482C2.48202 676.038 1.63921 675.627 1.6014 675.139C1.41033 672.654 1.34762 670.16 1.41351 667.669C1.65458 667.073 2.03964 666.547 2.53428 666.137C3.05687 666.625 3.93304 667.047 4.02977 667.602C4.16546 668.93 4.18926 670.266 4.10093 671.598H4.22658H4.23435ZM467.669 320.125C466.919 322.988 466.328 325.497 465.557 327.95C465.399 328.222 465.173 328.448 464.901 328.606C464.629 328.764 464.32 328.847 464.006 328.849C463.723 328.703 463.482 328.486 463.309 328.219C463.135 327.953 463.034 327.646 463.015 327.328C463.529 324.798 464.187 322.3 464.933 319.836C465.075 319.589 465.28 319.384 465.526 319.24C465.772 319.096 466.051 319.018 466.336 319.015C466.857 319.278 467.311 319.658 467.662 320.125H467.669ZM402.16 681.71C402.068 680.456 402.091 679.197 402.229 677.947C402.582 677.309 403.083 676.764 403.69 676.36C404.201 676.762 404.604 677.284 404.863 677.88C404.924 680.398 404.853 682.918 404.649 685.428C404.61 685.894 403.722 686.283 403.227 686.705C402.719 686.305 402.312 685.791 402.038 685.206C401.926 684.044 401.907 682.875 401.981 681.71H402.16ZM395.958 716.341C395.863 715.622 395.874 714.893 395.99 714.177C396.652 712.057 397.429 709.974 398.316 707.939C398.798 707.417 399.399 707.021 400.069 706.784C400.407 707.407 400.6 708.097 400.634 708.804C400.215 710.621 399.623 712.394 398.867 714.099C398.276 715.055 397.56 715.929 396.738 716.696C396.478 716.585 396.218 716.463 395.958 716.341ZM360.88 504.78C360.96 506.03 360.937 507.285 360.812 508.532C360.682 508.825 360.485 509.083 360.237 509.288C359.989 509.492 359.698 509.636 359.385 509.708C359.119 509.617 358.879 509.462 358.687 509.257C358.495 509.052 358.356 508.803 358.283 508.532C358.172 505.934 358.164 503.337 358.295 500.74C358.317 500.318 359.208 499.94 359.697 499.53C360.189 499.933 360.585 500.441 360.855 501.017C360.961 502.269 360.979 503.526 360.91 504.78H360.88ZM391.275 93.3236C391.773 93.5727 392.242 93.8742 392.676 94.2227C394.227 95.8322 395.816 97.4083 397.198 99.1398C397.608 99.6615 397.386 100.672 397.454 101.46C396.67 101.449 395.898 101.263 395.195 100.916C393.569 99.3901 392.042 97.7624 390.623 96.043C390.292 95.469 390.169 94.7989 390.274 94.1449C390.529 93.7876 390.874 93.5041 391.275 93.3236ZM402.815 422.498C402.587 422.999 402.307 423.476 401.979 423.918C400.437 425.539 398.922 427.204 397.232 428.658C396.739 429.08 395.699 428.88 394.91 428.957C394.845 428.243 394.953 427.524 395.225 426.86C396.752 425.103 398.382 423.438 400.108 421.876C400.679 421.526 401.355 421.388 402.018 421.487C402.366 421.749 402.64 422.098 402.812 422.498H402.815ZM212.63 746.998C210.524 745.278 208.365 743.613 206.351 741.793C205.915 741.393 206.003 740.427 205.85 739.717C206.635 739.728 207.685 739.406 208.155 739.795C209.932 741.272 211.598 742.879 213.138 744.601C213.517 745.023 213.286 746 213.335 746.721C213.1 746.81 212.865 746.91 212.63 746.998ZM195.426 728.096C195.833 728.222 196.226 728.394 196.595 728.606C198.541 730.438 200.516 732.247 202.357 734.178C202.506 734.452 202.58 734.761 202.572 735.073C202.564 735.384 202.474 735.688 202.312 735.954C202.048 736.131 201.743 736.237 201.427 736.26C201.11 736.283 200.793 736.224 200.506 736.088C198.636 734.178 196.862 732.184 195.184 730.105C194.915 729.761 195.313 728.884 195.426 728.096ZM376.651 582.978C376.471 583.382 376.185 583.731 375.823 583.988C375.581 584.026 375.333 584.007 375.099 583.931C374.866 583.856 374.653 583.727 374.479 583.555C373.34 581.224 372.266 578.86 371.309 576.44C371.28 576.157 371.325 575.872 371.439 575.612C371.552 575.351 371.731 575.124 371.958 574.952C372.224 574.852 372.51 574.818 372.792 574.853C373.074 574.888 373.344 574.991 373.577 575.152C374.675 577.705 375.628 580.314 376.651 582.978ZM226.658 755.812C225.473 756.045 224.467 756.567 224.029 756.267C222.01 754.841 220.072 753.303 218.225 751.66C217.941 751.173 217.78 750.625 217.755 750.062C218.346 749.879 218.974 749.852 219.578 749.984C221.634 751.372 223.594 752.904 225.571 754.413C225.973 754.846 226.336 755.314 226.654 755.812H226.658ZM267.553 535.171C266.865 534.512 266.286 533.747 265.838 532.907C265.727 532.54 266.485 531.919 266.851 531.419C267.562 531.915 268.199 532.509 268.741 533.184C268.89 533.406 268.152 534.205 267.549 535.171H267.553Z" fill="#32333C" stroke="white" stroke-linejoin="round"/>
<path d="M441 180.5L460.78 185.228L472 266.886V319.5L460.78 355L449 351L463.585 268.114L441 180.5Z" fill="white"/>
<rect x="352" y="468" width="18" height="62" fill="white"/>
<path d="M352 522H370L401.5 634L408.5 703L386 738.5L392 659L370 575L352 522Z" fill="white"/>
</svg>
