<svg width="477" height="868" viewBox="0 0 477 868" fill="none" xmlns="http://www.w3.org/2000/svg">
<path opacity="0.29" fill-rule="evenodd" clip-rule="evenodd" d="M112.301 3.98491C113.268 4.56742 114.181 5.23592 115.028 5.98265C115.377 6.5898 115.597 7.26251 115.673 7.95843C114.971 8.09163 114.071 8.55787 113.602 8.29148C111.3 6.95951 109.114 5.43898 106.887 3.98491H112.301ZM288.065 578.563C288.874 579.751 289.323 580.406 289.884 581.227C289.068 581.959 288.287 582.67 287.591 583.292C287.349 583.288 287.111 583.235 286.89 583.136C284.86 579.795 282.094 580.217 279.011 581.405C277.009 582.182 274.762 582.37 272.805 583.225C269.949 584.479 268.292 583.469 267.023 580.805C274.208 575.522 281.421 570.227 288.594 564.955C285.074 560.604 281.993 556.641 278.676 552.878C278.145 552.279 276.563 552.545 275.461 552.512C273.63 552.445 271.622 553.677 269.994 551.968C274.285 548.128 278.411 544.431 283.082 540.258C283.082 541.812 283.389 543.099 283.024 544.165C281.953 547.295 282.348 549.482 285.24 551.724C288.243 554.044 290.515 557.307 293.526 560.626C299.715 553.833 305.75 547.217 311.782 540.591C314.459 542.178 315.057 544.143 313.46 547.018C312.159 549.36 311.551 552.068 310.327 554.466C309.268 556.53 309.285 558.117 311.17 559.593C311.594 560.036 311.963 560.528 312.269 561.059C311.464 561.814 310.713 562.524 309.868 563.312C309.067 562.735 308.378 562.247 307.259 561.447C306.283 564.822 305.258 567.941 304.547 571.126C304.51 572.164 304.872 573.177 305.559 573.957C307.338 576.21 309.604 578.13 311.086 580.55C312.049 582.115 312.885 585.478 312.198 586.022C310.257 587.543 308.182 585.689 306.615 584.279C304.753 582.581 303.03 580.737 301.463 578.763C300.21 577.209 298.943 576.487 296.875 576.976C294.094 577.642 291.251 578.008 288.065 578.563ZM152.346 665.507C144.605 670.624 137.205 675.519 129.792 680.414C127.759 678.294 127.39 676.407 129.484 674.121C131.295 672.134 132.564 669.67 134.341 667.65C135.976 665.785 136.564 664.109 134.919 662.022C134.655 661.516 134.468 660.973 134.363 660.413C135.315 659.924 136.17 659.469 137.179 658.947C137.782 659.647 138.33 660.291 139.273 661.389C141.093 658.171 142.908 655.296 144.314 652.243C144.708 651.389 144.072 649.901 143.607 648.847C142.458 646.216 141.066 643.696 139.92 641.077C139.569 640.15 139.429 639.156 139.51 638.169C139.621 635.86 140.967 635.072 142.592 636.626C144.554 638.513 146.635 640.71 147.525 643.175C149.416 648.414 153.206 649.513 158.013 649.302C159.251 649.257 160.489 649.18 161.914 649.102C161.561 648.092 161.303 647.359 160.984 646.438C161.95 645.927 162.881 645.439 163.713 645.006C163.947 645.086 164.162 645.214 164.341 645.383C165.473 648.891 168.073 649.379 171.299 648.969C173.347 648.713 175.476 649.024 177.506 648.691C180.462 648.214 182.412 648.969 183.035 652.41C174.839 655.74 166.494 659.136 158.188 662.521C160.548 667.594 162.629 672.145 164.821 676.652C165.247 677.166 165.856 677.496 166.52 677.573C167.93 677.872 169.395 677.895 170.793 678.228C171.693 678.556 172.555 678.98 173.364 679.493C167.997 682.301 163.135 684.843 157.749 687.662C157.86 686.652 157.638 685.476 158.122 684.788C160.428 681.458 160.457 678.638 157.716 675.308C155.535 672.655 154.32 669.215 152.346 665.507ZM256.499 34.9975C259.408 35.2528 261.562 35.3304 263.66 35.7078C264.312 35.8299 264.817 36.7622 265.39 37.3283C264.81 37.856 264.116 38.2434 263.362 38.4605C261.222 38.4241 259.089 38.2089 256.985 37.8169C256.202 37.4299 255.506 36.8855 254.943 36.2183C255.616 35.6856 256.29 35.1529 256.499 34.9975ZM58.174 529.846C58.004 530.197 57.8026 530.531 57.5725 530.845C55.9436 532.643 54.3569 534.497 52.6101 536.173C52.1931 536.573 51.2202 536.406 50.4975 536.495C50.5231 535.774 50.2618 534.83 50.6232 534.386C52.1589 532.504 53.7918 530.704 55.5155 528.992C55.7572 528.819 56.0328 528.699 56.3243 528.639C56.6157 528.58 56.9164 528.583 57.2066 528.648C57.6256 528.959 57.9585 529.371 58.174 529.846ZM436.946 158.216C437.731 158.725 438.451 159.329 439.088 160.014C440.245 162.041 441.289 164.131 442.213 166.274C442.449 166.84 441.862 167.739 441.658 168.494C440.969 168.295 440.337 167.938 439.812 167.451C438.649 165.531 437.623 163.532 436.742 161.468C436.444 160.769 436.819 159.792 436.946 158.216ZM212.497 31.5343C214.224 31.63 215.945 31.8153 217.653 32.0893C218.277 32.4371 218.813 32.9231 219.219 33.5101C218.74 34.0355 218.139 34.4357 217.469 34.6756C215.322 34.6833 213.177 34.5238 211.055 34.1984C210.231 33.897 209.47 33.4454 208.81 32.8665C209.622 32.4225 210.407 31.9228 211.257 31.5565C211.665 31.4717 212.086 31.4641 212.497 31.5343ZM6.06868 631.853C6.55902 629.222 6.84701 627.102 7.40296 625.049C7.5842 624.383 8.49372 623.917 9.07079 623.351C9.54055 624.053 9.85478 624.848 9.99254 625.681C9.81448 627.72 9.44748 629.738 8.89623 631.709C8.69831 632.419 7.75986 632.919 7.15944 633.507C6.73137 632.852 6.30106 632.208 6.06868 631.853ZM445.132 172.212C445.406 172.779 445.688 173.334 445.949 173.9C446.919 176.009 447.964 178.095 448.788 180.271C448.997 180.815 448.493 181.636 448.318 182.336C447.622 181.98 446.601 181.803 446.29 181.237C445.211 179.276 444.288 177.235 443.527 175.132C443.454 174.301 443.561 173.464 443.841 172.679L445.132 172.212ZM232.616 760.699C235.715 762.774 238.175 764.373 240.571 766.071C240.684 766.289 240.742 766.531 240.741 766.777C240.74 767.022 240.679 767.264 240.564 767.481C240.417 767.682 240.225 767.845 240.002 767.957C239.78 768.069 239.534 768.126 239.285 768.124C236.775 766.593 234.298 764.994 231.925 763.263C231.717 763.107 232.282 761.887 232.616 760.699ZM79.9537 843.658C79.2521 843.836 78.1402 844.435 77.8411 844.158C75.8163 842.271 73.935 840.239 72.0915 838.175C71.9813 837.953 71.9306 837.707 71.9445 837.46C71.9583 837.213 72.0362 836.973 72.1704 836.765C72.3904 836.584 72.6468 836.451 72.9224 836.376C73.198 836.302 73.4864 836.287 73.7682 836.332C75.8108 838.33 77.7466 840.428 79.6979 842.504C79.8372 842.875 79.9247 843.263 79.9581 843.658H79.9537ZM274.748 780.823C277.587 781.533 279.955 782.044 282.263 782.754C282.766 783.163 283.155 783.694 283.394 784.297C282.781 784.663 282.094 785.44 281.57 785.34C279.192 784.895 276.845 784.298 274.544 783.553C273.996 783.375 273.697 782.432 273.284 781.844C273.875 781.433 274.466 781.022 274.748 780.823ZM41.4834 549.038C41.201 548.416 40.4338 547.428 40.6529 547.106C42.2684 544.742 44.0541 542.5 45.8787 540.291C46.1023 540.187 46.3482 540.14 46.5945 540.153C46.8409 540.167 47.0801 540.241 47.2908 540.369C47.4751 540.539 47.6152 540.751 47.6989 540.986C47.7826 541.222 47.8074 541.475 47.7712 541.723C46.0511 544.109 44.2331 546.429 42.4252 548.76C42.1274 548.9 41.8098 548.994 41.4834 549.038ZM438.492 387.115C438.344 386.082 437.846 385.039 438.176 384.484C439.438 382.418 440.836 380.438 442.361 378.557C442.607 378.339 442.898 378.178 443.213 378.084C443.528 377.99 443.86 377.966 444.185 378.013C444.398 378.194 444.565 378.424 444.67 378.683C444.775 378.942 444.816 379.222 444.789 379.5C443.232 381.887 441.564 384.207 439.896 386.526C439.46 386.79 438.987 386.989 438.492 387.115ZM379.754 750.465C379.495 750.978 379.193 751.468 378.85 751.93C377.405 753.528 375.987 755.171 374.403 756.625C373.687 756.983 372.902 757.18 372.102 757.202C372.158 756.414 371.914 755.382 372.325 754.883C373.809 753.076 375.397 751.356 377.08 749.732C377.307 749.556 377.569 749.431 377.849 749.364C378.128 749.297 378.419 749.29 378.701 749.344C379.14 749.624 379.502 750.009 379.754 750.465ZM469.61 265.051C469.409 264.182 469.32 263.29 469.346 262.398C469.607 261.795 469.997 261.257 470.49 260.822C471.004 261.232 471.899 261.577 471.97 262.043C472.364 264.603 472.624 267.181 472.748 269.768C472.77 270.223 471.938 270.734 471.501 271.222C470.95 270.87 470.489 270.395 470.153 269.835C469.811 268.27 469.725 266.649 469.539 265.051H469.612H469.61ZM8.47703 716.233C8.7685 715.71 9.19804 715.276 9.71901 714.979C10.0407 714.995 10.3533 715.091 10.6287 715.257C10.9041 715.424 11.1337 715.656 11.2968 715.933C12.0121 718.332 12.6003 720.766 13.0591 723.226C13.0556 723.553 12.9694 723.874 12.8087 724.159C12.648 724.445 12.4179 724.685 12.1396 724.858C11.8236 724.872 11.5091 724.806 11.2265 724.664C10.9439 724.522 10.7027 724.31 10.5262 724.047C9.76126 721.572 9.18975 719.041 8.47703 716.233ZM253.777 776.15C250.298 774.252 247.709 772.897 245.197 771.399C245.072 771.145 245.012 770.865 245.021 770.582C245.031 770.3 245.109 770.023 245.25 769.778C245.48 769.596 245.751 769.474 246.039 769.422C246.327 769.369 246.624 769.389 246.903 769.479C249.176 770.515 251.407 771.636 253.595 772.842C253.822 773.027 254.007 773.258 254.137 773.521C254.267 773.783 254.339 774.07 254.349 774.362C254.262 774.986 254.069 775.591 253.777 776.15ZM29.9098 771.754C30.6396 772.427 31.3093 773.163 31.9112 773.952C32.9837 775.817 33.9518 777.74 34.811 779.713C34.8963 780.5 34.8016 781.297 34.5341 782.044C33.8225 781.711 32.7896 781.577 32.456 781.033C31.2538 779.037 30.1992 776.956 29.3005 774.807C29.0514 774.207 29.5762 773.297 29.9098 771.754ZM365.7 542.034C365.409 542.356 364.922 542.877 364.442 543.399C363.833 543.026 363.318 542.517 362.939 541.912C362.444 539.648 362.11 537.352 361.938 535.041C361.895 534.431 362.732 533.765 363.162 533.121C363.736 533.545 364.209 534.091 364.547 534.719C365.023 536.983 365.286 539.292 365.7 542.034ZM74.0951 516.127C73.5807 515.882 73.122 515.535 72.7475 515.106C72.6471 514.875 72.6028 514.624 72.6183 514.374C72.6337 514.123 72.7085 513.879 72.8365 513.663C75.1303 511.965 77.4875 510.344 79.9014 508.823C80.4323 509.371 80.9225 509.958 81.368 510.577L74.0951 516.127ZM183.675 490.531C180.804 490.231 178.56 490.087 176.362 489.71C175.71 489.381 175.14 488.911 174.694 488.333C175.351 487.878 176.017 487.035 176.666 487.046C178.905 487.092 181.136 487.322 183.337 487.734C183.984 487.845 184.487 488.755 185.055 489.299C184.462 489.821 183.887 490.331 183.673 490.531H183.675ZM187.18 31.8451C184.408 31.4677 182.085 31.2568 179.827 30.7574C179.234 30.6353 178.838 29.614 178.352 29.0035C178.915 28.5516 179.574 28.2364 180.279 28.0824C182.505 28.2278 184.716 28.5355 186.896 29.0035C187.537 29.1478 187.999 30.0913 188.543 30.6685C188.007 31.1236 187.473 31.5898 187.177 31.8451H187.18ZM374.363 460.195C372.742 462.771 371.209 465.29 369.552 467.732C369.286 467.834 369 467.872 368.718 467.841C368.435 467.81 368.164 467.712 367.927 467.554C367.754 467.322 367.642 467.05 367.601 466.763C367.559 466.476 367.59 466.184 367.689 465.912C368.896 463.714 370.183 461.549 371.587 459.474C371.835 459.265 372.124 459.113 372.437 459.026C372.749 458.94 373.076 458.922 373.395 458.974C373.819 459.29 374.152 459.711 374.363 460.195ZM376.625 455.456C376.509 454.49 376.029 453.413 376.379 452.914C377.835 450.871 379.422 448.924 381.131 447.087C381.399 446.915 381.706 446.811 382.024 446.784C382.342 446.757 382.661 446.807 382.955 446.931C383.151 447.138 383.289 447.392 383.357 447.668C383.426 447.944 383.422 448.233 383.346 448.507C381.671 450.705 379.872 452.825 378.085 454.945C377.626 455.184 377.134 455.356 376.625 455.456ZM294.299 43.5443C291.506 42.9449 289.119 42.5342 286.794 41.8904C286.28 41.7461 285.985 40.8138 285.59 40.2477C286.231 39.9036 286.924 39.2042 287.502 39.2819C289.803 39.6327 292.078 40.1296 294.316 40.7693C294.909 41.1793 295.398 41.723 295.742 42.3565C295.195 42.8116 294.65 43.2557 294.299 43.5443ZM353.093 65.0335C352.07 65.2555 351.171 65.7438 350.639 65.4885C348.402 64.3875 346.229 63.1608 344.13 61.8144C343.904 61.5867 343.741 61.3048 343.655 60.9958C343.57 60.6867 343.565 60.361 343.642 60.0497C343.853 59.8138 344.121 59.6366 344.42 59.5354C344.72 59.4342 345.041 59.4125 345.351 59.4725C347.654 60.638 349.886 61.9366 352.093 63.2797C352.529 63.7992 352.868 64.3935 353.093 65.0335ZM419.4 127.236C419.16 127.78 418.794 128.259 418.333 128.635C418.053 128.72 417.756 128.739 417.467 128.691C417.178 128.643 416.904 128.528 416.666 128.357C415.065 126.326 413.552 124.206 412.122 122.053C412.02 121.783 411.982 121.493 412.011 121.206C412.041 120.919 412.137 120.643 412.291 120.399C412.487 120.246 412.717 120.142 412.961 120.095C413.206 120.049 413.457 120.062 413.696 120.133C415.637 122.441 417.482 124.816 419.404 127.236H419.4ZM470.384 296.641C470.401 295.384 470.51 294.13 470.71 292.889C471.036 292.342 471.489 291.881 472.031 291.546C472.476 292.023 473.291 292.5 473.287 292.978C473.265 295.493 473.11 298.005 472.824 300.503C472.505 301.068 472.051 301.545 471.502 301.891C470.977 301.498 470.55 300.989 470.254 300.403C470.139 299.152 470.119 297.895 470.194 296.641H470.384ZM18.5052 595.08C17.5478 597.888 16.7784 600.352 15.8233 602.749C15.6937 603.061 15.4495 603.311 15.141 603.447C14.8325 603.584 14.4831 603.598 14.1647 603.486C13.8464 603.374 13.5833 603.144 13.4295 602.843C13.2758 602.543 13.2431 602.196 13.3382 601.872C14.0113 599.473 14.8081 597.109 15.7254 594.791C15.9015 594.523 16.1411 594.303 16.423 594.15C16.7048 593.997 17.0202 593.916 17.341 593.914C17.8335 594.182 18.2377 594.587 18.5052 595.08ZM227.618 32.6109C229.668 32.8107 231.472 32.8996 233.232 33.2215C233.778 33.5409 234.237 33.9912 234.566 34.5314C234.084 34.9643 233.597 35.7744 233.121 35.7633C230.608 35.7172 228.099 35.5431 225.604 35.2417C225.124 35.1862 224.738 34.3537 224.309 33.8764C224.705 33.3864 225.19 32.9758 225.739 32.6665C226.358 32.545 226.993 32.5262 227.618 32.6109ZM135.153 15.9394C137.972 17.0493 140.565 18.0149 143.092 19.136C143.291 19.3388 143.434 19.5893 143.509 19.8633C143.583 20.1373 143.585 20.4257 143.516 20.7009C143.357 20.9367 143.142 21.1286 142.889 21.2586C142.636 21.3887 142.355 21.4528 142.07 21.4448C139.532 20.6012 137.022 19.6577 134.562 18.6032C134.352 18.4079 134.193 18.1639 134.1 17.8929C134.006 17.6219 133.981 17.3323 134.027 17.0493C134.3 16.5883 134.688 16.2058 135.153 15.9394ZM264.361 531.189C263.957 530.955 263.575 530.684 263.221 530.379C261.624 528.692 259.971 527.038 258.533 525.229C258.13 524.718 258.391 523.686 258.347 522.898C259.073 522.867 259.795 523.016 260.449 523.331C262.099 524.962 263.652 526.689 265.1 528.503C265.418 529.086 265.523 529.761 265.399 530.412C265.128 530.759 264.77 531.027 264.361 531.189ZM149.854 21.2006C152.608 21.9998 154.953 22.5992 157.214 23.4095C157.72 23.5982 157.937 24.5748 158.286 25.1853C157.777 25.596 157.168 25.8642 156.52 25.9622C154.171 25.4319 151.855 24.7612 149.586 23.9533C149.272 23.789 149.006 23.5479 148.812 23.2528C148.617 22.9578 148.501 22.6183 148.474 22.2662C148.53 21.8 149.512 21.4448 149.854 21.2006ZM86.7695 507.636C86.2533 507.367 85.8123 506.974 85.4864 506.492C85.4462 506.205 85.4773 505.912 85.5769 505.639C85.6766 505.366 85.8417 505.122 86.0579 504.927C88.3173 503.64 90.6278 502.441 92.9894 501.331C93.2625 501.218 93.5658 501.199 93.8506 501.279C94.1354 501.358 94.3853 501.531 94.5601 501.769C94.735 502.007 94.8247 502.296 94.8149 502.591C94.8051 502.886 94.6963 503.17 94.5061 503.396C92.0388 504.85 89.4914 506.171 86.7695 507.636ZM213.737 497.524C210.868 496.591 208.218 495.77 205.609 494.838C205.419 494.686 205.269 494.49 205.17 494.268C205.071 494.046 205.028 493.804 205.042 493.561C205.218 493.282 205.449 493.042 205.722 492.857C205.995 492.672 206.303 492.545 206.628 492.484C209.224 493.173 211.786 494.005 214.308 494.926C214.532 495.109 214.708 495.345 214.817 495.613C214.927 495.88 214.968 496.171 214.937 496.458C214.638 496.913 214.224 497.28 213.737 497.524ZM130.053 492.14C129.534 491.904 129.106 491.507 128.83 491.008C128.89 490.657 129.039 490.327 129.263 490.049C129.487 489.771 129.778 489.555 130.109 489.421C132.369 488.872 134.663 488.472 136.976 488.222C137.681 488.366 138.342 488.674 138.905 489.121C138.429 489.743 138.051 490.775 137.459 490.908C135.206 491.452 132.878 491.707 130.053 492.14ZM363.477 491.708C363.461 493.135 363.342 494.56 363.122 495.97C362.762 496.6 362.258 497.136 361.652 497.535C361.218 497.035 360.409 496.514 360.416 496.014C360.458 493.428 360.637 490.845 360.952 488.278C361.113 487.996 361.336 487.754 361.605 487.572C361.874 487.389 362.181 487.27 362.502 487.223C362.754 487.348 362.975 487.527 363.148 487.748C363.321 487.969 363.442 488.226 363.503 488.5C363.598 489.566 363.614 490.639 363.551 491.708H363.476H363.477ZM451.456 186.154C451.678 186.753 451.881 187.353 452.123 187.941C453.012 190.183 454.005 192.392 454.756 194.678C454.926 195.189 454.281 195.977 454.012 196.632C453.335 196.418 452.719 196.045 452.216 195.544C451.218 193.446 450.359 191.284 449.645 189.073C449.62 188.284 449.77 187.499 450.085 186.775C450.537 186.565 450.996 186.365 451.456 186.154ZM19.3002 589.618C19.0022 588.664 18.4284 587.843 18.623 587.288C19.4546 584.929 20.4221 582.62 21.5206 580.372C21.7276 580.122 21.9899 579.922 22.2869 579.789C22.5839 579.656 22.9077 579.594 23.2329 579.606C23.4675 579.758 23.6611 579.965 23.7969 580.209C23.9326 580.453 24.0062 580.726 24.0112 581.005C23.0428 583.591 21.9476 586.133 20.8201 588.653C20.3807 589.07 19.8646 589.398 19.3002 589.618ZM456.534 200.972C457.001 201.433 457.397 201.96 457.71 202.537C458.527 204.62 459.227 206.747 459.805 208.908C459.965 209.552 459.339 210.396 459.074 211.15C458.463 210.74 457.535 210.473 457.295 209.907C456.416 207.847 455.689 205.725 455.122 203.558C455.106 202.688 455.264 201.824 455.587 201.016C455.905 200.994 456.22 200.983 456.534 200.972ZM43.1057 794.164C42.8102 794.659 42.4027 795.077 41.916 795.386C41.6256 795.434 41.328 795.416 41.0455 795.334C40.763 795.251 40.503 795.105 40.2848 794.908C38.8894 792.721 37.5874 790.468 36.3776 788.182C36.3113 787.905 36.3108 787.615 36.3762 787.338C36.4417 787.06 36.5712 786.802 36.7546 786.583C36.9581 786.445 37.1923 786.359 37.4369 786.332C37.6814 786.305 37.9289 786.338 38.1578 786.428C39.8456 788.937 41.4356 791.523 43.1057 794.164ZM9.86022 708.696C9.63117 708.941 9.15418 709.862 8.6605 709.862C8.31075 709.79 7.98479 709.631 7.71272 709.4C7.44065 709.17 7.23125 708.874 7.10386 708.541C6.55355 706.199 6.14069 703.827 5.86743 701.437C6.05393 700.813 6.39861 700.247 6.86814 699.794C7.44743 700.205 8.41811 700.527 8.53597 701.049C9.08635 703.391 9.3899 705.799 9.86356 708.696H9.86022ZM184.776 715.012C184.551 715.424 184.221 715.769 183.82 716.011C183.539 716.066 183.249 716.058 182.972 715.987C182.695 715.916 182.437 715.784 182.217 715.6C180.643 713.536 179.144 711.416 177.743 709.229C177.607 708.964 177.565 708.661 177.624 708.37C177.683 708.078 177.84 707.815 178.069 707.624C178.297 707.433 178.584 707.325 178.882 707.318C179.18 707.311 179.472 707.406 179.709 707.586C181.411 709.773 182.986 712.06 184.589 714.324C184.68 714.545 184.744 714.776 184.779 715.012H184.776ZM194.486 727.488C193.718 727.644 192.557 728.188 192.275 727.899C190.377 725.876 188.583 723.757 186.903 721.55C186.823 721.274 186.81 720.982 186.867 720.7C186.923 720.418 187.047 720.154 187.227 719.929C187.437 719.786 187.68 719.698 187.933 719.675C188.186 719.651 188.441 719.693 188.673 719.796C190.574 721.927 192.379 724.136 194.198 726.345C194.341 726.713 194.439 727.097 194.489 727.488H194.486ZM18.0682 743.794C18.6994 744.234 19.2576 744.769 19.7227 745.381C20.6433 747.612 21.5373 749.854 22.24 752.163C22.4123 752.729 21.8253 753.517 21.5862 754.205C20.9635 753.85 20.014 753.65 19.7738 753.118C18.7627 750.928 17.899 748.673 17.1887 746.369C17.0119 745.781 17.6468 744.948 18.0682 743.794ZM403.7 107.734C404.126 107.949 404.523 108.218 404.881 108.533C406.427 110.387 407.987 112.23 409.407 114.183C409.596 114.798 409.635 115.449 409.518 116.081C408.805 116.048 407.778 116.303 407.429 115.926C405.74 114.078 404.149 112.144 402.661 110.132C402.425 109.589 402.413 108.974 402.629 108.422C402.92 108.103 403.289 107.866 403.7 107.734ZM472.209 308.162C471.801 310.915 471.568 313.235 471.054 315.488C470.911 316.11 469.927 316.531 469.33 317.053C468.88 316.495 468.563 315.842 468.403 315.144C468.588 312.834 468.922 310.54 469.404 308.273C469.531 307.937 469.741 307.637 470.014 307.402C470.288 307.168 470.616 307.006 470.968 306.93C471.441 306.919 471.929 307.862 472.209 308.162ZM60.1242 819.439C59.9298 819.984 59.6068 820.475 59.1825 820.871C58.9082 820.954 58.6183 820.972 58.3357 820.924C58.0531 820.876 57.7856 820.763 57.5547 820.593C55.9424 818.573 54.414 816.49 52.9692 814.344C52.8663 814.069 52.8276 813.774 52.8559 813.481C52.8842 813.189 52.9789 812.907 53.1327 812.657C53.3198 812.498 53.5414 812.386 53.7798 812.328C54.0182 812.27 54.2668 812.269 54.5059 812.324C56.4216 814.644 58.2463 817.03 60.1242 819.439ZM415.616 414.553C415.401 414.983 415.146 415.392 414.854 415.774C413.254 417.461 411.681 419.182 409.962 420.747C409.306 421.035 408.592 421.164 407.876 421.124C407.871 420.414 407.564 419.448 407.913 419.038C409.491 417.206 411.164 415.457 412.923 413.799C413.162 413.626 413.434 413.503 413.722 413.438C414.009 413.373 414.307 413.368 414.598 413.421C415.027 413.706 415.378 414.096 415.616 414.553ZM421.552 132.043C422.153 132.354 422.71 132.742 423.21 133.197C424.61 135.273 426.019 137.359 427.266 139.535C427.528 139.979 427.123 140.822 427.025 141.477C426.321 141.3 425.294 141.366 424.971 140.922C423.491 138.894 422.148 136.769 420.952 134.562C420.682 134.063 421.277 133.097 421.552 132.043ZM428.891 399.058C428.747 398.17 428.243 397.138 428.557 396.683C430.08 394.573 431.72 392.55 433.468 390.622C433.706 390.453 433.983 390.347 434.273 390.314C434.564 390.281 434.858 390.322 435.127 390.433C435.338 390.621 435.498 390.859 435.593 391.125C435.688 391.39 435.714 391.676 435.669 391.954C433.938 394.23 432.089 396.416 430.248 398.614C429.82 398.828 429.361 398.978 428.889 399.058H428.891ZM176.159 702.103C175.897 702.604 175.51 703.028 175.035 703.335C174.745 703.375 174.45 703.344 174.175 703.245C173.899 703.147 173.652 702.983 173.453 702.769C172.127 700.649 170.873 698.485 169.753 696.254C169.673 695.932 169.667 695.596 169.735 695.271C169.803 694.946 169.943 694.641 170.146 694.378C170.402 694.266 170.682 694.219 170.961 694.24C171.24 694.261 171.51 694.35 171.747 694.5C173.25 696.92 174.624 699.428 176.152 702.103H176.159ZM44.8035 799.437C46.6059 799.392 51.5983 806.962 50.8333 807.739C50.4897 807.944 50.0997 808.059 49.6998 808.072C49.2998 808.086 48.9029 807.998 48.5461 807.817C47.0019 805.843 45.6113 803.754 44.3866 801.568C44.0908 801.046 44.6579 800.047 44.7969 799.437H44.8035ZM269.323 780.146C268.155 780.612 267.328 781.278 266.765 781.1C264.376 780.36 262.038 779.463 259.768 778.414C259.306 778.203 259.227 777.16 258.971 776.494C259.547 776.199 260.185 776.042 260.832 776.038C263.128 776.782 265.383 777.659 267.615 778.569C268.251 779.015 268.823 779.545 269.316 780.146H269.323ZM91.2527 854.347C90.3254 854.436 89.189 854.902 88.702 854.525C86.7392 852.956 84.8738 851.269 83.1159 849.475C82.9406 849.247 82.8253 848.98 82.7804 848.697C82.7355 848.414 82.7626 848.124 82.859 847.854C83.0451 847.639 83.2811 847.473 83.5462 847.371C83.8114 847.268 84.0977 847.232 84.3801 847.266C86.6317 849.153 88.7876 851.151 90.9558 853.138C91.1103 853.525 91.2102 853.932 91.2527 854.347ZM69.7843 831.415C69.5754 831.977 69.2385 832.482 68.8003 832.892C68.5228 832.981 68.2284 833.007 67.9395 832.966C67.6507 832.926 67.3747 832.821 67.1325 832.658C65.4024 830.727 63.7468 828.718 62.1846 826.642C62.0777 826.371 62.0354 826.078 62.061 825.787C62.0867 825.496 62.1796 825.215 62.3324 824.966C62.5174 824.803 62.7401 824.688 62.9806 824.632C63.221 824.576 63.4717 824.58 63.7101 824.644C65.776 826.831 67.7485 829.118 69.7843 831.415ZM386.973 605.535C387.474 605.961 387.913 606.454 388.278 607.001C389.297 608.988 390.206 611.03 391.002 613.117C391.216 613.716 390.644 614.593 390.433 615.347C389.747 615.136 389.12 614.767 388.602 614.271C387.507 612.22 386.55 610.099 385.737 607.922C385.692 607.136 385.828 606.35 386.135 605.624C386.414 605.591 386.694 605.558 386.973 605.535ZM39.0006 553.866C38.5692 554.632 38.2089 555.331 37.7964 555.997C36.7668 557.673 35.785 559.383 34.6209 560.948C34.3881 561.174 34.1018 561.337 33.7888 561.422C33.4757 561.507 33.1461 561.512 32.8307 561.436C32.5962 561.222 32.4215 560.951 32.324 560.65C32.2265 560.348 32.2095 560.026 32.2748 559.716C33.5957 557.396 35.0545 555.154 36.5644 552.956C36.7565 552.791 36.986 552.676 37.2328 552.62C37.4796 552.564 37.7364 552.569 37.981 552.634C38.4096 552.963 38.7581 553.384 39.0006 553.866ZM13.7607 609.875C13.0602 612.706 12.5532 615.07 11.8449 617.379C11.6948 617.867 10.8087 618.122 10.2616 618.489C9.89359 617.878 9.1275 617.201 9.22645 616.68C9.68644 614.313 10.2962 611.977 11.0522 609.687C11.2088 609.372 11.4437 609.103 11.7343 608.904C12.0249 608.706 12.3616 608.586 12.7122 608.555C13.1888 608.876 13.5533 609.338 13.7552 609.875H13.7607ZM7.57752 693.412C7.38294 693.656 6.93707 694.211 6.4912 694.777C5.9019 694.256 4.89898 693.812 4.79446 693.212C4.41324 690.929 4.19588 688.622 4.14401 686.308C4.36552 685.643 4.75045 685.044 5.26367 684.566C5.79293 685.121 6.67356 685.62 6.78697 686.253C7.17168 688.439 7.2951 690.67 7.57196 693.412H7.57752ZM320.694 787.494C320.223 787.172 319.636 786.761 319.049 786.35C319.43 785.672 319.963 785.091 320.605 784.652C322.735 783.99 324.913 783.493 327.119 783.165C327.751 783.076 328.506 783.831 329.204 784.197C328.86 784.829 328.373 785.372 327.782 785.784C325.561 786.45 323.276 786.894 320.689 787.494H320.694ZM296.592 787.86C293.908 787.482 291.852 787.283 289.851 786.85C289.231 786.49 288.703 785.992 288.306 785.396C288.973 784.963 289.657 784.141 290.307 784.175C292.271 784.255 294.221 784.538 296.126 785.018C297.031 785.423 297.861 785.979 298.58 786.661C297.774 787.138 296.976 787.627 296.586 787.86H296.592ZM17.3966 738.355C17.2131 738.837 16.8957 739.257 16.4815 739.565C16.1595 739.596 15.8347 739.55 15.5342 739.43C15.2338 739.311 14.9665 739.121 14.7548 738.877C13.8575 736.368 13.1003 733.804 12.4398 731.229C12.4626 730.947 12.5573 730.675 12.715 730.44C12.8726 730.205 13.088 730.014 13.3404 729.886C13.6608 729.883 13.977 729.958 14.2626 730.102C14.5482 730.247 14.7947 730.459 14.9816 730.718C15.8544 733.138 16.5505 735.624 17.3888 738.355H17.3966ZM31.2029 567.064C29.7575 569.694 28.3809 572.281 26.8743 574.778C26.6427 574.963 26.3547 575.063 26.0583 575.061C25.7618 575.06 25.4747 574.958 25.2447 574.771C25.0147 574.584 24.8556 574.325 24.7938 574.035C24.7321 573.746 24.7714 573.444 24.9052 573.18C25.9615 570.926 27.0978 568.706 28.3587 566.564C28.5866 566.328 28.8629 566.143 29.1687 566.022C29.4745 565.902 29.8027 565.848 30.1311 565.865C30.584 566.166 30.9507 566.579 31.1951 567.064H31.2029ZM471.054 254.439C470.801 254.739 470.353 255.294 469.904 255.838C469.32 255.316 468.375 254.883 468.216 254.262C467.667 252.101 467.291 249.9 467.092 247.68C467.035 247.036 467.811 246.326 468.204 245.637C468.816 246.015 469.333 246.527 469.715 247.136C470.251 249.389 470.566 251.687 471.046 254.439H471.054ZM387.183 443.59C386.776 443.389 386.421 443.097 386.147 442.736C386.05 442.506 386.009 442.257 386.025 442.009C386.041 441.76 386.115 441.519 386.241 441.304C387.969 439.372 389.75 437.485 391.611 435.687C391.851 435.524 392.127 435.422 392.415 435.391C392.704 435.36 392.995 435.401 393.264 435.51C393.455 435.714 393.59 435.965 393.657 436.237C393.723 436.509 393.718 436.794 393.642 437.064C391.798 439.228 389.839 441.292 387.901 443.379C387.673 443.491 387.427 443.562 387.175 443.59H387.183ZM365.848 73.125C365.151 73.458 364.202 74.2461 363.846 74.0352C361.477 72.6145 359.211 71.0162 356.977 69.3845C356.821 69.1959 356.716 68.9696 356.674 68.7282C356.632 68.4867 356.654 68.2384 356.738 68.0082C356.912 67.7824 357.134 67.5977 357.387 67.4673C357.641 67.3368 357.92 67.2639 358.205 67.2534C360.629 68.7519 362.975 70.3836 365.321 71.9931C365.552 72.3411 365.727 72.7229 365.84 73.125H365.848ZM454.83 360.864C454.569 360.087 453.931 359.21 454.145 358.655C455.067 356.336 456.129 354.075 457.326 351.884C457.557 351.653 457.834 351.472 458.139 351.354C458.444 351.235 458.771 351.181 459.098 351.196C459.307 351.32 459.483 351.493 459.612 351.7C459.74 351.907 459.817 352.141 459.836 352.384C458.683 355.059 457.424 357.7 456.158 360.331C455.746 360.582 455.294 360.762 454.822 360.864H454.83ZM339.571 57.4745C338.651 57.8186 337.76 58.4957 337.21 58.2848C334.882 57.3768 332.611 56.3277 330.411 55.1435C330.164 54.9264 329.97 54.6551 329.846 54.3508C329.722 54.0465 329.67 53.7176 329.695 53.3899C329.853 53.1499 330.07 52.9536 330.325 52.8197C330.58 52.6858 330.865 52.6184 331.153 52.6238C333.71 53.6561 336.218 54.8438 338.713 56.0204C339.081 56.4522 339.371 56.9441 339.571 57.4745ZM464.635 224.548C464.391 225.054 464.004 225.478 463.523 225.769C463.2 225.767 462.884 225.683 462.603 225.523C462.323 225.364 462.089 225.135 461.923 224.859C461.101 222.491 460.402 220.083 459.827 217.644C459.922 217.004 460.175 216.397 460.563 215.879C461.193 216.234 462.209 216.445 462.39 216.956C463.225 219.309 463.833 221.751 464.635 224.548ZM234.942 503.773C237.493 505.46 240.014 507.092 242.467 508.812C242.558 509.04 242.591 509.287 242.564 509.531C242.537 509.775 242.451 510.008 242.313 510.211C242.088 510.391 241.825 510.517 241.544 510.579C241.263 510.641 240.971 510.636 240.692 510.566C238.424 509.334 236.204 508.002 234.048 506.581C233.858 506.361 233.719 506.102 233.642 505.821C233.565 505.541 233.552 505.247 233.603 504.961C233.953 504.468 234.411 504.062 234.942 503.773ZM171.929 29.5032C169.175 28.9149 166.792 28.5042 164.479 27.8494C163.949 27.7051 163.644 26.7505 163.235 26.1733C163.878 25.8403 164.569 25.1631 165.152 25.2519C167.45 25.5865 169.724 26.0724 171.958 26.7061C172.556 27.1001 173.049 27.6333 173.395 28.2599C172.851 28.715 172.315 29.1702 171.926 29.5032H171.929ZM202.238 33.5656C199.375 33.2326 197.212 33.0772 195.097 32.6776C194.462 32.3243 193.92 31.826 193.514 31.2235C194.105 30.6942 194.809 30.3072 195.573 30.0915C197.643 30.1206 199.705 30.3284 201.739 30.7129C202.532 31.0739 203.242 31.5956 203.824 32.2448C203.164 32.7887 202.508 33.3325 202.235 33.5656H202.238ZM191.76 488.899C194.206 489.432 196.673 489.909 199.087 490.564C199.586 490.97 199.971 491.498 200.205 492.096C199.592 492.451 198.923 493.195 198.372 493.117C195.978 492.762 193.607 492.273 191.268 491.652C190.964 491.528 190.695 491.334 190.482 491.085C190.269 490.836 190.119 490.539 190.045 490.22C190.108 489.418 190.309 488.634 190.639 487.9L191.76 488.899ZM148.785 489.665C147.82 489.852 146.837 489.93 145.854 489.898C145.167 489.663 144.529 489.306 143.969 488.844C144.449 488.322 144.873 487.401 145.415 487.323C147.89 486.976 150.383 486.772 152.881 486.713C153.197 486.783 153.489 486.935 153.729 487.153C153.968 487.371 154.146 487.648 154.244 487.956C154.186 488.275 154.046 488.573 153.838 488.822C153.631 489.071 153.362 489.262 153.058 489.376C151.641 489.568 150.212 489.664 148.782 489.665H148.785ZM302.1 42.5121C304.806 43.278 307.073 43.7995 309.244 44.5987C309.812 44.8096 310.076 45.8418 310.479 46.4967C309.87 46.8617 309.186 47.0855 308.478 47.1517C306.208 46.6787 303.972 46.0597 301.782 45.2981C301.475 45.1213 301.218 44.8697 301.034 44.567C300.851 44.2642 300.747 43.9201 300.732 43.5665C300.779 43.1003 301.749 42.7563 302.1 42.5121ZM447.328 374.439C447 373.506 446.345 372.607 446.578 372.141C447.767 369.838 449.085 367.603 450.527 365.448C450.767 365.23 451.059 365.077 451.374 365.003C451.69 364.929 452.02 364.937 452.332 365.026C452.556 365.255 452.717 365.537 452.799 365.847C452.881 366.156 452.881 366.482 452.8 366.791C451.648 369.011 450.344 371.153 449.019 373.273C448.518 373.747 447.945 374.141 447.323 374.439H447.328ZM382.172 746.402C382.172 745.115 381.854 744.083 382.229 743.472C383.457 741.498 384.829 739.617 386.333 737.844C386.718 737.389 387.699 737.423 388.406 737.234C388.556 737.8 389.019 738.566 388.805 738.888C387.266 741.174 385.603 743.383 383.941 745.581C383.392 745.937 382.795 746.214 382.168 746.402H382.172ZM429.702 145.174C430.239 145.384 430.738 145.68 431.179 146.051C432.607 148.415 434.033 150.779 435.326 153.221C435.338 153.507 435.276 153.791 435.148 154.047C435.02 154.304 434.83 154.523 434.594 154.686C434.278 154.745 433.953 154.727 433.646 154.635C433.339 154.542 433.059 154.377 432.829 154.153C431.466 152.062 430.231 149.89 429.131 147.649C428.869 147.105 429.445 146.173 429.699 145.174H429.702ZM465.629 338.076C464.589 340.84 463.666 343.437 462.591 345.979C462.39 346.178 462.142 346.322 461.869 346.398C461.597 346.474 461.309 346.479 461.034 346.412C460.783 346.218 460.582 345.967 460.449 345.679C460.316 345.391 460.255 345.075 460.271 344.758C460.986 342.367 461.825 340.014 462.786 337.71C462.979 337.446 463.231 337.229 463.521 337.077C463.811 336.926 464.133 336.842 464.46 336.833C464.951 337.138 465.353 337.567 465.625 338.076H465.629ZM361.354 767.847C360.998 767.718 360.688 767.486 360.464 767.181C360.384 766.898 360.361 766.602 360.398 766.31C360.435 766.018 360.53 765.737 360.679 765.483C362.585 763.729 364.563 762.057 366.615 760.466C366.88 760.343 367.171 760.288 367.462 760.306C367.753 760.323 368.035 760.412 368.283 760.566C368.451 760.786 368.559 761.045 368.598 761.319C368.637 761.593 368.605 761.873 368.505 762.131C366.412 764.062 364.218 765.882 362.041 767.725C361.82 767.808 361.586 767.85 361.35 767.847H361.354ZM28.6167 767.048C28.3907 767.523 28.0503 767.935 27.626 768.246C27.2959 768.244 26.9699 768.174 26.6682 768.04C26.3666 767.907 26.0957 767.712 25.8725 767.47C24.7307 765.252 23.7049 762.978 22.7993 760.654C22.7566 760.332 22.7894 760.003 22.8951 759.695C23.0008 759.387 23.1765 759.107 23.4086 758.878C23.6786 758.797 23.9647 758.786 24.2406 758.844C24.5164 758.902 24.7732 759.028 24.9875 759.211C26.2628 761.753 27.3991 764.373 28.6133 767.048H28.6167ZM397.463 628.19C397.189 628.691 396.788 629.112 396.3 629.411C395.975 629.414 395.653 629.342 395.36 629.202C395.067 629.061 394.809 628.856 394.608 628.601C393.561 626.335 392.633 624.015 391.828 621.652C391.803 621.333 391.855 621.012 391.979 620.717C392.103 620.421 392.296 620.16 392.542 619.954C392.818 619.89 393.106 619.897 393.378 619.975C393.65 620.053 393.898 620.198 394.099 620.398C395.276 622.884 396.304 625.448 397.46 628.19H397.463ZM272.032 36.7514C274.758 37.1621 276.829 37.3618 278.835 37.8391C279.529 38.2266 280.129 38.7607 280.595 39.4041C279.817 39.7815 279.022 40.514 278.266 40.4807C276.289 40.3701 274.327 40.0689 272.408 39.5816C271.632 39.1902 270.937 38.6555 270.361 38.0055C271.041 37.4949 271.72 36.9845 272.032 36.7514ZM246.724 36.9289C244.924 36.8394 243.131 36.6541 241.351 36.3739C240.692 36.2407 240.182 35.3637 239.605 34.8309C240.136 34.3339 240.778 33.9689 241.477 33.7653C243.549 33.7536 245.619 33.9209 247.663 34.265C248.511 34.6378 249.276 35.1733 249.917 35.8411C249.124 36.2074 248.34 36.5959 247.531 36.9178C247.264 36.9654 246.99 36.9578 246.727 36.8955L246.724 36.9289ZM100.555 500.932C100.08 500.666 99.6803 500.284 99.3939 499.822C99.3545 499.537 99.3861 499.247 99.486 498.978C99.586 498.709 99.751 498.469 99.9665 498.279C102.423 497.246 104.926 496.303 107.46 495.47C107.745 495.46 108.028 495.522 108.283 495.65C108.538 495.778 108.756 495.968 108.918 496.203C108.983 496.475 108.976 496.759 108.898 497.027C108.82 497.296 108.674 497.539 108.474 497.735C105.945 498.845 103.357 499.822 100.555 500.932ZM469.165 240.154C468.495 240.442 467.78 240.611 467.052 240.654C466.728 240.609 466.419 240.49 466.148 240.307C465.877 240.125 465.651 239.882 465.489 239.599C464.808 237.273 464.251 234.913 463.821 232.529C463.919 231.885 464.172 231.276 464.559 230.752C465.191 231.085 466.235 231.297 466.385 231.785C467.124 234.171 467.628 236.646 468.215 239.088L469.165 240.154ZM253.536 520.178C252.907 519.757 252.37 519.457 251.89 519.079C250.204 517.736 248.485 516.438 246.9 514.995C246.61 514.421 246.467 513.784 246.483 513.141C247.178 513.03 248.123 512.564 248.527 512.864C250.557 514.336 252.507 515.914 254.369 517.592C254.544 517.826 254.666 518.095 254.727 518.381C254.787 518.666 254.784 518.962 254.718 519.246C254.411 519.653 254.004 519.974 253.536 520.178ZM365.439 547.34C366.119 548.065 366.704 548.874 367.178 549.748C367.814 551.883 368.317 554.055 368.684 556.252C368.781 556.874 368.067 557.629 367.726 558.317C367.083 558.014 366.526 557.556 366.104 556.985C365.439 554.767 364.915 552.509 364.533 550.225C364.422 549.57 364.953 548.805 365.439 547.34ZM406.157 696.354C405.766 698.984 405.616 700.949 405.124 702.836C404.698 703.666 404.114 704.405 403.404 705.011C402.957 704.271 402.651 703.454 402.501 702.603C402.561 700.645 402.806 698.698 403.231 696.786C403.619 696.02 404.164 695.343 404.83 694.8C405.368 695.432 405.907 696.065 406.157 696.354ZM425.984 403.298C425.789 403.743 425.55 404.167 425.269 404.563C423.777 406.24 422.327 407.971 420.69 409.503C420.219 409.947 419.173 409.769 418.39 409.869C418.322 409.138 418.426 408.4 418.694 407.716C420.166 405.897 421.735 404.159 423.395 402.51C423.634 402.332 423.908 402.206 424.199 402.139C424.49 402.073 424.792 402.067 425.085 402.122C425.481 402.43 425.791 402.835 425.984 403.298ZM370.612 75.7891C372.302 76.9908 373.924 78.284 375.471 79.6629C376.361 80.5287 377.624 82.5378 377.361 82.8264C375.75 84.6135 374.812 82.4932 373.703 81.7495C372.293 80.8006 370.965 79.7351 369.733 78.564C369.534 78.3065 369.39 78.0114 369.309 77.6966C369.228 77.3817 369.212 77.0536 369.263 76.7324C369.627 76.3108 370.091 75.9867 370.612 75.7891ZM407.258 670.868C406.719 672.034 406.208 674.165 405.633 674.187C403.135 674.265 404.309 672.012 404.036 670.735C403.722 669.33 403.601 667.889 403.675 666.451C403.902 665.606 404.278 664.809 404.787 664.098C405.417 664.668 405.931 665.354 406.301 666.118C406.583 667.614 406.763 669.127 406.84 670.646C406.982 670.724 407.12 670.802 407.258 670.868ZM103.446 863.682C102.445 863.926 101.421 864.526 100.985 864.237C98.7745 862.726 96.648 861.095 94.615 859.353C94.4721 859.099 94.3963 858.813 94.395 858.522C94.3936 858.231 94.4667 857.944 94.6072 857.688C94.8216 857.502 95.08 857.374 95.3578 857.316C95.6357 857.258 95.9238 857.271 96.195 857.355C98.3876 858.887 100.497 860.541 102.607 862.195C102.952 862.651 103.234 863.151 103.446 863.682ZM323.76 52.4574C321.057 51.4251 318.429 50.4927 315.865 49.405C315.673 49.1886 315.534 48.9305 315.459 48.6511C315.384 48.3717 315.375 48.0789 315.434 47.7956C315.552 47.5748 315.725 47.3881 315.937 47.2539C316.148 47.1197 316.391 47.0426 316.641 47.0297C319.283 47.8955 321.903 48.8499 324.473 49.9044C324.671 50.1135 324.816 50.3664 324.897 50.6423C324.978 50.9182 324.992 51.2092 324.938 51.4916C324.635 51.9096 324.229 52.2424 323.76 52.4574ZM309.089 785.584C310.249 785.508 311.412 785.527 312.568 785.64C313.144 785.92 313.649 786.326 314.045 786.828C313.6 787.305 313.176 788.171 312.711 788.204C310.126 788.337 307.525 788.348 304.939 788.226C304.472 788.204 304.049 787.349 303.604 786.872C303.993 786.356 304.499 785.941 305.082 785.662C306.418 785.555 307.76 785.536 309.099 785.607V785.584H309.089ZM344.161 778.58C343.74 779.163 343.246 779.69 342.689 780.146C340.411 781.189 338.131 782.266 335.782 783.109C335.328 783.276 334.537 782.51 333.901 782.177C334.115 781.576 334.465 781.033 334.923 780.589C336.993 779.524 339.13 778.594 341.32 777.803C341.952 777.593 342.872 778.203 344.161 778.58ZM357.212 770.689C356.933 771.228 356.583 771.728 356.173 772.176C354.117 773.585 352.059 774.995 349.919 776.283C349.353 776.37 348.775 776.309 348.24 776.105C348.332 775.484 348.196 774.574 348.555 774.296C350.587 772.725 352.708 771.272 354.907 769.945C355.317 769.701 356.267 770.367 357.212 770.689ZM221.082 497.269C223.687 498.456 226.15 499.511 228.52 500.743C228.736 500.979 228.892 501.263 228.976 501.572C229.06 501.881 229.068 502.206 229.001 502.519C228.817 502.736 228.582 502.904 228.316 503.007C228.05 503.11 227.763 503.144 227.48 503.107C224.999 502.119 222.554 501.02 220.163 499.844C219.961 499.642 219.814 499.393 219.734 499.119C219.655 498.846 219.646 498.556 219.709 498.279C220.078 497.835 220.549 497.488 221.082 497.269ZM124.736 492.163C124.111 492.775 123.412 493.309 122.656 493.75C120.417 494.405 118.165 495.037 115.879 495.492C115.162 495.411 114.474 495.164 113.87 494.771C114.335 494.138 114.677 493.14 115.291 492.929C117.413 492.202 119.588 491.634 121.795 491.23C122.483 491.108 123.301 491.685 124.736 492.163ZM385.227 600.008C384.945 600.52 384.545 600.958 384.06 601.284C383.775 601.337 383.482 601.317 383.206 601.228C382.931 601.139 382.682 600.983 382.483 600.774C381.3 598.298 380.228 595.756 379.226 593.204C379.228 592.956 379.287 592.713 379.397 592.492C379.508 592.27 379.668 592.077 379.864 591.927C380.056 591.853 380.263 591.829 380.467 591.858C380.67 591.887 380.862 591.968 381.025 592.094C382.443 594.647 383.778 597.244 385.227 600.008ZM69.8266 518.602C69.3294 519.377 68.7827 520.118 68.1899 520.822C66.6533 522.315 65.0428 523.73 63.3643 525.062C62.8406 525.462 61.8477 525.229 61.0693 525.295C61.1805 524.574 61.0327 523.597 61.4496 523.175C63.1389 521.451 64.9484 519.849 66.8645 518.38C67.3348 518.025 68.4123 518.469 69.8266 518.602ZM7.7532 639.967C7.45855 642.775 7.36959 644.84 6.96598 646.838C6.81921 647.57 5.92636 648.147 5.37375 648.802C4.98125 648.103 4.23629 647.392 4.26186 646.704C4.34506 644.568 4.5975 642.441 5.01683 640.344C5.36629 639.644 5.86182 639.028 6.47008 638.535C7.01824 639.157 7.57084 639.767 7.74874 639.967H7.7532ZM405.422 657.649C405.1 658.037 404.652 658.592 404.199 659.136C403.643 658.659 402.754 658.259 402.61 657.682C402.054 655.417 401.646 653.118 401.387 650.8C401.324 650.234 402.034 649.579 402.388 648.969C402.944 649.435 403.833 649.823 403.982 650.401C404.56 652.654 404.909 654.963 405.418 657.649H405.422ZM381.878 85.9119C382.418 86.11 382.934 86.367 383.417 86.678C385.111 88.0074 386.725 89.4341 388.252 90.9512C388.759 91.484 388.654 92.594 388.827 93.4376C388.02 93.4514 387.219 93.2926 386.479 92.9715C384.742 91.548 383.086 90.0286 381.519 88.4205C381.153 87.9482 380.963 87.3634 380.982 86.7666C381.2 86.4082 381.509 86.1134 381.878 85.9119ZM397.63 724.602C395.637 727.943 394.17 730.485 392.575 732.938C392.314 733.052 392.029 733.099 391.745 733.075C391.462 733.052 391.188 732.959 390.949 732.805C390.778 732.567 390.668 732.291 390.629 732C390.59 731.71 390.624 731.415 390.726 731.14C391.86 728.92 393.083 726.752 394.396 724.636C394.594 724.424 394.836 724.257 395.104 724.146C395.373 724.035 395.662 723.982 395.952 723.992C396.542 724.101 397.109 724.307 397.63 724.602ZM363.485 523.408C363.63 524.471 363.671 525.545 363.607 526.616C363.327 527.198 362.907 527.701 362.384 528.081C361.903 527.637 361.062 527.249 360.998 526.749C360.677 524.35 360.502 521.933 360.475 519.512C360.475 518.935 361.312 518.358 361.765 517.792C362.351 518.21 362.833 518.757 363.174 519.39C363.383 520.72 363.491 522.063 363.498 523.408H363.481H363.485ZM129.892 14.7072C128.983 15.0846 128.113 15.7839 127.614 15.573C125.225 14.5719 122.898 13.4302 120.644 12.1542C120.429 11.9175 120.272 11.6332 120.189 11.3244C120.105 11.0156 120.095 10.6914 120.162 10.3784C120.335 10.1557 120.564 9.98132 120.824 9.87243C121.085 9.76355 121.37 9.72375 121.651 9.75672C124.102 10.8334 126.498 12.0432 128.878 13.2641C129.293 13.6863 129.636 14.1738 129.892 14.7072ZM369.265 562.246C369.85 562.854 370.367 563.524 370.806 564.244C371.598 566.222 372.27 568.246 372.817 570.305C372.826 571.233 372.651 572.153 372.303 573.013C371.51 572.5 370.825 571.836 370.288 571.06C369.526 569.061 368.924 567.004 368.489 564.91C368.357 564.322 368.85 563.59 369.265 562.246ZM164.559 489.11C163.304 489.181 162.045 489.162 160.792 489.055C160.229 488.756 159.747 488.326 159.387 487.8C159.832 487.345 160.266 486.502 160.733 486.48C163.248 486.378 165.766 486.404 168.278 486.557C168.775 486.591 169.22 487.401 169.691 487.856C169.249 488.401 168.691 488.841 168.057 489.143C166.896 489.271 165.725 489.294 164.559 489.21V489.11ZM361.821 480.541C362.665 477.955 363.302 475.702 364.166 473.548C364.388 472.982 365.321 472.705 365.928 472.305C366.193 473.038 366.81 473.87 366.66 474.514C366.146 476.694 365.477 478.834 364.658 480.919C364.496 481.23 364.258 481.495 363.967 481.691C363.676 481.886 363.34 482.007 362.99 482.04C362.468 481.929 362.132 480.985 361.82 480.541H361.821ZM402.223 642.664C401.864 643.108 401.506 643.952 401.057 643.996C400.728 643.996 400.405 643.912 400.118 643.753C399.831 643.594 399.589 643.364 399.415 643.086C398.557 640.733 397.826 638.335 397.223 635.904C397.245 635.586 397.342 635.278 397.508 635.006C397.674 634.734 397.902 634.505 398.175 634.339C398.456 634.309 398.74 634.353 399 634.466C399.259 634.579 399.484 634.757 399.654 634.983C400.563 637.414 401.316 639.9 402.222 642.664H402.223ZM473.459 281.512C473.533 282.677 473.514 283.846 473.403 285.008C473.127 285.585 472.722 286.09 472.219 286.485C471.723 285.974 470.845 285.508 470.799 284.964C470.604 282.631 470.559 280.287 470.663 277.949C470.918 277.288 471.328 276.698 471.859 276.228C472.472 276.71 472.972 277.32 473.323 278.015C473.468 279.175 473.49 280.347 473.39 281.512H473.459ZM6.11539 658.77C6.18988 660.102 6.16833 661.437 6.0509 662.766C5.95022 663.069 5.77265 663.34 5.5355 663.554C5.29835 663.768 5.00973 663.917 4.69773 663.987C4.39747 663.903 4.12448 663.742 3.90612 663.52C3.68775 663.298 3.53169 663.023 3.45353 662.721C3.38149 660.229 3.45016 657.735 3.65922 655.251C3.70592 654.73 4.62768 654.286 5.14693 653.808C5.64085 654.216 6.03264 654.732 6.29107 655.318C6.35357 656.469 6.32121 657.624 6.19433 658.77H6.11539ZM6.23435 674.598C6.31053 675.752 6.29119 676.91 6.17653 678.061C5.88918 678.626 5.46964 679.113 4.95346 679.482C4.48202 679.038 3.63921 678.627 3.6014 678.139C3.41033 675.654 3.34762 673.16 3.41351 670.669C3.65458 670.073 4.03964 669.547 4.53428 669.137C5.05687 669.625 5.93304 670.047 6.02977 670.602C6.16546 671.93 6.18926 673.266 6.10093 674.598H6.22658H6.23435ZM469.669 323.125C468.919 325.989 468.328 328.497 467.557 330.95C467.399 331.222 467.173 331.448 466.901 331.606C466.629 331.764 466.32 331.847 466.006 331.849C465.723 331.703 465.482 331.486 465.309 331.219C465.135 330.953 465.034 330.646 465.015 330.328C465.529 327.798 466.187 325.3 466.933 322.836C467.075 322.589 467.28 322.384 467.526 322.24C467.772 322.096 468.051 322.018 468.336 322.015C468.857 322.278 469.311 322.658 469.662 323.125H469.669ZM404.16 684.71C404.068 683.456 404.091 682.197 404.229 680.947C404.582 680.309 405.083 679.765 405.69 679.36C406.201 679.762 406.604 680.284 406.863 680.88C406.924 683.398 406.853 685.918 406.649 688.428C406.61 688.894 405.722 689.283 405.227 689.705C404.719 689.305 404.312 688.791 404.038 688.206C403.926 687.044 403.907 685.875 403.981 684.71H404.16ZM397.958 719.341C397.863 718.622 397.874 717.893 397.99 717.177C398.652 715.057 399.429 712.975 400.316 710.939C400.798 710.418 401.399 710.021 402.069 709.784C402.407 710.407 402.6 711.097 402.634 711.804C402.215 713.621 401.623 715.394 400.867 717.099C400.276 718.055 399.56 718.929 398.738 719.696C398.478 719.585 398.218 719.463 397.958 719.341ZM362.88 507.78C362.96 509.03 362.937 510.285 362.812 511.532C362.682 511.825 362.485 512.083 362.237 512.288C361.989 512.492 361.698 512.636 361.385 512.708C361.119 512.617 360.879 512.462 360.687 512.257C360.495 512.052 360.356 511.803 360.283 511.532C360.172 508.934 360.164 506.337 360.295 503.74C360.317 503.318 361.208 502.94 361.697 502.53C362.189 502.933 362.585 503.441 362.855 504.017C362.961 505.269 362.979 506.526 362.91 507.78H362.88ZM393.275 96.3236C393.773 96.5727 394.242 96.8742 394.676 97.2228C396.227 98.8322 397.816 100.408 399.198 102.14C399.608 102.662 399.386 103.672 399.454 104.46C398.67 104.449 397.898 104.263 397.195 103.916C395.569 102.39 394.042 100.762 392.623 99.043C392.292 98.469 392.169 97.7989 392.274 97.145C392.529 96.7876 392.874 96.5042 393.275 96.3236ZM404.815 425.498C404.587 425.999 404.307 426.476 403.979 426.918C402.437 428.539 400.922 430.204 399.232 431.658C398.739 432.08 397.699 431.88 396.91 431.958C396.845 431.243 396.953 430.524 397.225 429.86C398.752 428.103 400.382 426.438 402.108 424.876C402.679 424.526 403.355 424.388 404.018 424.487C404.366 424.75 404.64 425.098 404.812 425.498H404.815ZM214.63 749.999C212.524 748.278 210.365 746.613 208.351 744.793C207.915 744.393 208.003 743.427 207.85 742.717C208.635 742.728 209.685 742.406 210.155 742.795C211.932 744.272 213.598 745.879 215.138 747.601C215.517 748.023 215.286 749 215.335 749.721C215.1 749.81 214.865 749.91 214.63 749.999ZM197.426 731.096C197.833 731.222 198.226 731.394 198.595 731.606C200.541 733.438 202.516 735.247 204.357 737.178C204.506 737.452 204.58 737.761 204.572 738.073C204.564 738.384 204.474 738.688 204.312 738.954C204.048 739.131 203.743 739.237 203.427 739.26C203.11 739.283 202.793 739.224 202.506 739.088C200.636 737.179 198.862 735.184 197.184 733.105C196.915 732.761 197.313 731.884 197.426 731.096ZM378.651 585.978C378.471 586.382 378.185 586.731 377.823 586.988C377.581 587.026 377.333 587.007 377.099 586.932C376.866 586.856 376.653 586.727 376.479 586.555C375.34 584.224 374.266 581.86 373.309 579.44C373.28 579.157 373.325 578.872 373.439 578.612C373.552 578.351 373.731 578.124 373.958 577.952C374.224 577.852 374.51 577.818 374.792 577.853C375.074 577.888 375.344 577.991 375.577 578.153C376.675 580.705 377.628 583.314 378.651 585.978ZM228.658 758.812C227.473 759.045 226.467 759.567 226.029 759.267C224.01 757.841 222.072 756.303 220.225 754.66C219.941 754.173 219.78 753.625 219.755 753.062C220.346 752.879 220.974 752.852 221.578 752.984C223.634 754.372 225.594 755.904 227.571 757.413C227.973 757.846 228.336 758.314 228.654 758.812H228.658ZM269.553 538.171C268.865 537.512 268.286 536.747 267.838 535.907C267.727 535.541 268.485 534.919 268.851 534.419C269.562 534.915 270.199 535.509 270.741 536.184C270.89 536.406 270.152 537.205 269.549 538.171H269.553Z" fill="#32333C" stroke="white" stroke-linejoin="round"/>
</svg>
