<svg width="189" height="229" viewBox="0 0 189 229" fill="none" xmlns="http://www.w3.org/2000/svg">
<g clip-path="url(#clip0)">
<path opacity="0.2" fill-rule="evenodd" clip-rule="evenodd" d="M172.866 55.7854C173.354 56.5022 173.626 56.896 173.965 57.4007C173.471 57.8448 173 58.2688 172.58 58.6423C172.434 58.6439 172.29 58.6128 172.157 58.5513C170.931 56.5324 169.261 56.7848 167.398 57.5015C166.187 57.9759 164.833 58.0871 163.652 58.612C161.928 59.3691 160.927 58.7533 160.163 57.1382C164.503 53.9483 168.857 50.7383 173.185 47.5585C171.059 44.9238 169.198 42.5213 167.196 40.25C166.876 39.8866 165.92 40.0479 165.254 40.0277C164.15 39.9873 162.933 40.7345 161.954 39.7049C164.545 37.373 167.036 35.1421 169.857 32.6185C169.958 33.4035 169.946 34.1987 169.822 34.9804C169.437 35.771 169.361 36.6768 169.609 37.5206C169.856 38.3643 170.409 39.0855 171.16 39.5432C172.977 40.9564 174.345 42.925 176.163 44.9338C179.898 40.8253 183.544 36.8177 187.185 32.8203C188.8 33.7793 189.162 34.9706 188.194 36.7068C187.409 38.1201 187.041 39.7654 186.303 41.209C185.664 42.4607 185.674 43.4197 186.807 44.3081C187.063 44.5771 187.286 44.8751 187.472 45.1963C186.985 45.6505 186.532 46.0847 186.021 46.5591C185.537 46.2159 185.122 45.9129 184.446 45.4284C183.857 47.4776 183.235 49.3553 182.809 51.2934C182.786 51.9185 183.003 52.5286 183.414 52.9993C184.604 54.2621 185.718 55.5934 186.752 56.9866C187.333 57.9355 187.839 59.9747 187.421 60.2977C186.249 61.2163 184.998 60.0958 184.049 59.2478C182.926 58.2176 181.886 57.1005 180.938 55.9067C180.657 55.4504 180.234 55.098 179.735 54.9032C179.235 54.7083 178.686 54.6815 178.169 54.8265C176.51 55.2303 174.79 55.4523 172.866 55.7854ZM34.0655 26.3195C33.9613 26.5311 33.8397 26.7335 33.702 26.925C32.7188 28.0152 31.7609 29.1258 30.706 30.1453C30.6444 30.2514 30.56 30.3422 30.4587 30.4115C30.3575 30.4808 30.2421 30.5266 30.1209 30.5456C29.9997 30.5645 29.8758 30.5562 29.7583 30.5212C29.6407 30.4862 29.5325 30.4254 29.4415 30.3432C29.3504 30.261 29.2789 30.1594 29.2321 30.046C29.1853 29.9326 29.1644 29.8104 29.171 29.6879C29.1775 29.5655 29.2113 29.446 29.2699 29.3382C29.3285 29.2305 29.4105 29.1372 29.5098 29.0652C30.4377 27.9274 31.4246 26.8391 32.4664 25.8046C32.6119 25.6992 32.7781 25.6258 32.954 25.5892C33.1299 25.5527 33.3116 25.5539 33.487 25.5927C33.7346 25.7845 33.9315 26.034 34.0604 26.3195H34.0655ZM2.60473 88.0173C2.90151 86.4325 3.0721 85.1405 3.41229 83.8989C3.66599 83.486 4.01141 83.1372 4.42174 82.8793C4.70347 83.303 4.89329 83.7809 4.97896 84.2824C4.87023 85.5181 4.64857 86.7414 4.31675 87.9367C4.04953 88.3713 3.6918 88.743 3.26793 89.0268C3.00042 88.623 2.74 88.2293 2.59968 88.0173H2.60473ZM47.2227 216.138C46.8298 216.345 46.3896 216.445 45.9457 216.43C44.7233 215.3 43.5866 214.068 42.4742 212.817C42.4076 212.683 42.3769 212.535 42.3852 212.386C42.3935 212.238 42.4405 212.094 42.5216 211.969C42.6531 211.856 42.8078 211.774 42.9747 211.729C43.1415 211.684 43.3164 211.676 43.4867 211.706C44.7192 212.907 45.8882 214.179 47.0673 215.441C47.1478 215.665 47.197 215.9 47.2136 216.138H47.2227ZM23.983 37.9282C23.7195 37.5862 23.546 37.1835 23.4783 36.7571C24.4544 35.3338 25.5315 33.9711 26.6308 32.6286C26.7674 32.5695 26.9162 32.5441 27.0647 32.5546C27.2132 32.5652 27.3569 32.6114 27.4838 32.6892C27.5945 32.7898 27.6788 32.9158 27.7293 33.0567C27.7798 33.1975 27.795 33.3485 27.7735 33.4966C26.7348 34.9502 25.6375 36.3533 24.5432 37.7564C24.3665 37.8424 24.1775 37.9005 23.983 37.9282ZM4.05429 139.056C4.23291 138.742 4.4913 138.48 4.80331 138.298C4.99871 138.307 5.18863 138.366 5.35529 138.468C5.52196 138.571 5.65995 138.714 5.75627 138.884C6.18905 140.331 6.54454 141.8 6.82123 143.285C6.81886 143.483 6.76667 143.678 6.66948 143.851C6.57229 144.024 6.43319 144.169 6.265 144.274C6.07376 144.283 5.88357 144.242 5.71289 144.155C5.54221 144.069 5.39687 143.939 5.29091 143.78C4.8306 142.286 4.48431 140.751 4.05429 139.056ZM16.9935 172.64C17.4342 173.049 17.8395 173.495 18.2049 173.973C18.8524 175.1 19.4368 176.263 19.9553 177.455C20.0071 177.933 19.9502 178.416 19.7887 178.868C19.3278 178.765 18.8978 178.554 18.5339 178.253C17.8073 177.046 17.1703 175.788 16.6281 174.488C16.6258 173.854 16.7501 173.226 16.9935 172.64ZM43.6724 18.0218C43.3633 17.8721 43.0868 17.6627 42.8588 17.4059C42.7981 17.2656 42.7712 17.1129 42.7805 16.9603C42.7898 16.8077 42.835 16.6597 42.9123 16.5278C44.2973 15.4981 45.7193 14.5222 47.1783 13.6002C47.499 13.931 47.7946 14.2854 48.0626 14.6602C46.614 15.7706 45.1644 16.8811 43.6724 18.0218ZM109.835 2.53661C108.102 2.3549 106.748 2.26407 105.42 2.04199C105.025 1.84161 104.68 1.55524 104.41 1.20406C104.737 0.850525 105.146 0.58345 105.602 0.426758C106.953 0.458481 108.3 0.597031 109.629 0.84079C110.044 1.07181 110.4 1.39671 110.667 1.78963C110.319 2.10255 109.964 2.41548 109.835 2.53661ZM10.1091 65.7689C9.53063 67.4748 9.06624 68.9689 8.48883 70.4125C8.41248 70.6024 8.26587 70.7555 8.07948 70.8401C7.89309 70.9246 7.68126 70.934 7.48806 70.8664C7.29487 70.7988 7.13517 70.6594 7.04218 70.477C6.94918 70.2947 6.93011 70.0836 6.98882 69.8875C7.39318 68.4363 7.87434 67.0076 8.4303 65.6074C8.5353 65.4438 8.67966 65.3091 8.85019 65.2156C9.02072 65.1221 9.21196 65.0728 9.40643 65.0724C9.70314 65.2316 9.94727 65.4735 10.1091 65.7689ZM158.555 27.1271C158.31 26.9874 158.079 26.8252 157.865 26.6426C156.901 25.623 155.904 24.6236 155.039 23.5233C154.886 23.0686 154.847 22.5831 154.926 22.1099C155.364 22.0961 155.799 22.1861 156.196 22.3723C157.191 23.3605 158.128 24.4054 159.003 25.5018C159.195 25.8564 159.258 26.2663 159.184 26.6625C159.016 26.8673 158.8 27.0271 158.555 27.1271ZM51.3262 12.8835C51.0148 12.7181 50.7486 12.479 50.5509 12.1871C50.5268 12.0143 50.5457 11.8382 50.6059 11.6745C50.6661 11.5107 50.7658 11.3644 50.8961 11.2484C52.2599 10.4711 53.658 9.73401 55.0813 9.06776C55.2509 9.03105 55.427 9.03674 55.5939 9.08427C55.7608 9.13182 55.9134 9.21976 56.0383 9.34033C56.1133 9.49409 56.1488 9.66403 56.1418 9.83496C56.1347 10.0059 56.0853 10.1724 55.9979 10.3195C54.508 11.1977 52.9696 11.9952 51.3262 12.8835ZM127.988 6.76617C126.256 6.20088 124.657 5.70638 123.08 5.14108C122.965 5.04857 122.874 4.92964 122.814 4.79433C122.755 4.65903 122.728 4.51131 122.738 4.36378C122.845 4.19649 122.985 4.05272 123.15 3.94162C123.314 3.83051 123.5 3.75426 123.695 3.71759C125.263 4.13147 126.809 4.63617 128.333 5.20146C128.468 5.30998 128.574 5.4514 128.641 5.61205C128.707 5.77271 128.732 5.94751 128.712 6.12022C128.533 6.39775 128.281 6.621 127.984 6.76617H127.988ZM77.46 3.51575C77.1467 3.37169 76.8878 3.13121 76.721 2.82939C76.7582 2.61606 76.8484 2.41539 76.9833 2.24605C77.1183 2.07671 77.2936 1.94417 77.4933 1.86035C78.8598 1.53729 80.2442 1.29463 81.6391 1.13358C82.0666 1.22182 82.4663 1.41211 82.804 1.68858C82.6089 2.11632 82.3089 2.48793 81.9318 2.76877C80.5701 3.0918 79.1659 3.24319 77.46 3.51575ZM10.5895 62.4682C10.3488 62.0377 10.2107 61.5574 10.1858 61.0649C10.6879 59.636 11.272 58.2374 11.9351 56.8757C12.061 56.7251 12.2194 56.605 12.3985 56.5246C12.5776 56.4441 12.7726 56.4054 12.9688 56.4114C13.1111 56.5032 13.2286 56.6283 13.311 56.7762C13.3934 56.924 13.4381 57.09 13.4412 57.2592C12.8578 58.8239 12.1955 60.3684 11.5152 61.8927C11.2452 62.1405 10.9312 62.3357 10.5895 62.4682ZM24.9622 186.197C24.7863 186.497 24.5399 186.75 24.2445 186.934C24.0696 186.964 23.8902 186.954 23.7196 186.905C23.5491 186.856 23.3918 186.769 23.2592 186.651C22.4167 185.329 21.6303 183.97 20.9001 182.573C20.8598 182.407 20.8594 182.233 20.8989 182.067C20.9384 181.9 21.0166 181.745 21.1272 181.614C21.2499 181.53 21.3914 181.478 21.5392 181.462C21.6871 181.446 21.8365 181.467 21.9742 181.523C22.9937 183.038 23.9547 184.592 24.9622 186.197ZM4.89117 134.503C4.72725 134.806 4.47475 135.053 4.16734 135.209C3.95692 135.165 3.76091 135.069 3.597 134.93C3.43309 134.79 3.30645 134.612 3.22856 134.412C2.89622 132.994 2.64712 131.559 2.48256 130.112C2.59594 129.733 2.80447 129.388 3.08827 129.112C3.48723 129.273 3.83579 129.538 4.09772 129.879C4.42681 131.293 4.60448 132.746 4.89117 134.503ZM9.84455 155.732C10.2273 155.995 10.5647 156.319 10.8439 156.691C11.4001 158.033 11.9402 159.396 12.3641 160.789C12.336 161.229 12.2004 161.655 11.9694 162.031C11.5585 161.9 11.1838 161.676 10.8752 161.375C10.2646 160.048 9.74292 158.682 9.31358 157.286C9.37451 156.736 9.55578 156.205 9.84455 155.732ZM35.2384 201.48C35.1191 201.813 34.9247 202.113 34.6701 202.359C34.5039 202.405 34.3292 202.414 34.159 202.385C33.9888 202.355 33.8275 202.287 33.6869 202.187C32.7125 200.966 31.7894 199.704 30.9179 198.402C30.8562 198.235 30.8332 198.057 30.8507 197.88C30.8681 197.703 30.9257 197.533 31.0189 197.382C31.1317 197.286 31.2654 197.218 31.4093 197.183C31.5532 197.148 31.7034 197.147 31.8477 197.18C33.0025 198.583 34.1048 200.027 35.2384 201.48ZM25.9837 189.387C27.0719 189.357 30.0862 193.94 29.6238 194.404C29.4172 194.53 29.1817 194.601 28.9399 194.61C28.6981 194.618 28.4582 194.565 28.2429 194.455C27.3122 193.261 26.4729 191.999 25.7324 190.679C25.6948 190.234 25.7818 189.786 25.9837 189.387ZM54.0325 222.608C53.536 222.771 53.0066 222.806 52.4931 222.709C51.3102 221.76 50.1841 220.742 49.1205 219.661C49.0145 219.522 48.9448 219.358 48.9176 219.186C48.8905 219.013 48.9067 218.836 48.965 218.671C49.0783 218.543 49.2211 218.444 49.381 218.382C49.5409 218.321 49.7134 218.299 49.8836 218.318C51.2424 219.459 52.5445 220.67 53.8538 221.871C53.9473 222.108 54.0074 222.356 54.0325 222.608ZM41.07 208.728C40.9461 209.068 40.7422 209.372 40.4755 209.616C40.3087 209.672 40.1313 209.688 39.9572 209.664C39.7831 209.639 39.6171 209.575 39.4721 209.475C38.4273 208.314 37.428 207.093 36.4841 205.841C36.4196 205.677 36.3941 205.501 36.4097 205.326C36.4253 205.151 36.4815 204.981 36.574 204.832C36.6853 204.732 36.8195 204.662 36.9646 204.627C37.1097 204.591 37.2612 204.593 37.4057 204.63C38.6473 205.962 39.8415 207.335 41.07 208.728ZM22.483 40.8454C22.2225 41.3098 22.0044 41.7338 21.7561 42.1376C21.1343 43.147 20.5448 44.1867 19.8382 45.1356C19.6977 45.272 19.5243 45.3698 19.3348 45.4193C19.1454 45.4688 18.9463 45.4685 18.757 45.4183C18.6159 45.2911 18.5108 45.1288 18.4523 44.9481C18.3939 44.7673 18.3841 44.5744 18.4239 44.3886C19.2214 42.9855 20.1026 41.6227 21.0142 40.2902C21.1312 40.1925 21.2698 40.1242 21.4185 40.0908C21.5672 40.0574 21.7217 40.0601 21.8692 40.0984C22.1278 40.2979 22.338 40.5532 22.4839 40.8454H22.483ZM7.24014 74.7229C6.81717 76.4389 6.5103 77.8724 6.0833 79.2654C5.82878 79.5677 5.49902 79.7974 5.12733 79.9316C4.82609 79.63 4.61048 79.2539 4.50252 78.8415C4.77943 77.4097 5.14728 75.9968 5.60384 74.6117C5.70004 74.4223 5.84239 74.2602 6.01775 74.1403C6.1931 74.0203 6.39577 73.9464 6.60719 73.9254C6.89493 74.1203 7.11619 74.3986 7.24118 74.7229H7.24014ZM3.50514 125.256C3.38804 125.398 3.11853 125.741 2.85001 126.084C2.43294 125.86 2.08015 125.534 1.8254 125.135C1.59517 123.753 1.46397 122.357 1.43274 120.956C1.56821 120.553 1.80004 120.189 2.10808 119.896C2.49106 120.162 2.80608 120.515 3.0277 120.926C3.26593 122.248 3.3396 123.601 3.50717 125.256H3.50514ZM9.43267 152.441C9.32325 152.732 9.13135 152.984 8.8805 153.168C8.6862 153.188 8.48988 153.161 8.30831 153.089C8.12674 153.017 7.96533 152.902 7.83778 152.754C7.2957 151.24 6.8384 149.685 6.43967 148.131C6.45214 147.96 6.50886 147.796 6.6043 147.654C6.69973 147.513 6.83058 147.398 6.98377 147.323C7.17678 147.318 7.36813 147.36 7.54087 147.446C7.7136 147.533 7.86234 147.66 7.974 147.818C8.508 149.281 8.92796 150.785 9.43471 152.441H9.43267ZM17.7688 48.8304C16.8946 50.4153 16.0648 51.9798 15.1553 53.494C15.0162 53.6051 14.8433 53.6656 14.6652 53.6652C14.4871 53.6648 14.3144 53.6035 14.1758 53.4917C14.0371 53.3799 13.9408 53.2243 13.9027 53.0504C13.8646 52.8764 13.887 52.6945 13.9662 52.535C14.6041 51.1723 15.2906 49.8196 16.0517 48.5275C16.1895 48.3846 16.3563 48.2729 16.5408 48.1997C16.7254 48.1266 16.9234 48.0937 17.1217 48.1034C17.3963 48.2865 17.6197 48.5369 17.7708 48.8304H17.7688ZM140.787 10.5516C142.328 11.5712 143.85 12.5504 145.33 13.6002C145.384 13.7368 145.404 13.8849 145.388 14.031C145.371 14.1772 145.319 14.317 145.236 14.4381C145.101 14.5484 144.943 14.6258 144.773 14.6644C144.603 14.7029 144.427 14.7015 144.258 14.6602C142.889 13.9132 141.552 13.1091 140.246 12.2477C140.131 12.1149 140.047 11.9579 140 11.7886C139.953 11.6192 139.944 11.4414 139.975 11.2683C140.186 10.9684 140.465 10.7228 140.789 10.5516H140.787ZM114.714 1.54736C116.192 1.87039 117.681 2.15303 119.138 2.55682C119.44 2.80312 119.672 3.12292 119.814 3.48544C119.501 3.78079 119.119 3.99269 118.703 4.10132C117.257 3.89096 115.825 3.59419 114.414 3.21286C114.23 3.13893 114.066 3.0213 113.937 2.87006C113.809 2.71881 113.719 2.53865 113.675 2.34486C113.714 1.86339 113.835 1.39201 114.034 0.951691C114.265 1.15358 114.491 1.34547 114.716 1.54736H114.714ZM88.7709 2.01167C88.188 2.12317 87.5946 2.1707 87.0014 2.15314C86.5859 2.01295 86.1999 1.79724 85.8626 1.51704C86.0703 1.14084 86.3714 0.82457 86.7369 0.598526C88.2313 0.38829 89.7365 0.263474 91.2451 0.224915C91.4366 0.268158 91.6134 0.360962 91.7579 0.49379C91.9024 0.626617 92.0096 0.794846 92.0688 0.98201C92.0324 1.17426 91.9474 1.35405 91.822 1.50423C91.6965 1.6544 91.5348 1.77008 91.3521 1.84015C90.4962 1.95836 89.6329 2.01563 88.7689 2.01167H88.7709ZM16.2142 169.793C16.0776 170.081 15.872 170.331 15.6156 170.52C15.416 170.519 15.2188 170.476 15.0367 170.395C14.8545 170.313 14.6914 170.194 14.5577 170.046C13.8661 168.707 13.2465 167.332 12.7013 165.927C12.6758 165.733 12.6958 165.535 12.7597 165.349C12.8237 165.163 12.9298 164.995 13.0698 164.857C13.2327 164.808 13.4055 164.8 13.5722 164.836C13.7388 164.871 13.8938 164.948 14.0227 165.059C14.7929 166.594 15.4783 168.178 16.2122 169.793H16.2142ZM59.6511 8.8255C59.3671 8.66344 59.1267 8.43489 58.9506 8.15935C58.9272 7.9865 58.9466 7.81039 59.0069 7.64674C59.0673 7.48308 59.1668 7.33669 59.2968 7.22038C60.7787 6.59451 62.2908 6.0293 63.8202 5.52457C63.9928 5.51698 64.1645 5.554 64.3188 5.63176C64.4731 5.70953 64.6049 5.82539 64.7015 5.96866C64.7404 6.13373 64.7359 6.30617 64.6883 6.46895C64.6407 6.63173 64.5516 6.77945 64.4299 6.89754C62.9036 7.56377 61.341 8.15926 59.6491 8.8255H59.6511ZM152.016 20.4747C151.637 20.2122 151.31 20.0306 151.023 19.7984C150.005 18.9908 148.967 18.2033 148.011 17.3352C147.835 16.9883 147.749 16.6034 147.759 16.2148C148.148 16.0501 148.574 15.991 148.993 16.0433C150.219 16.9352 151.396 17.8921 152.52 18.91C152.626 19.0508 152.7 19.2133 152.737 19.3861C152.773 19.5589 152.771 19.7375 152.73 19.9093C152.543 20.1535 152.298 20.3477 152.017 20.4747H152.016ZM61.3945 228.251C60.9324 228.478 60.4232 228.592 59.9085 228.584C58.5714 227.672 57.2874 226.685 56.0625 225.627C55.977 225.474 55.9321 225.302 55.9321 225.127C55.9321 224.952 55.977 224.78 56.0625 224.627C56.1896 224.511 56.3455 224.431 56.514 224.396C56.6824 224.36 56.8573 224.37 57.0205 224.425C58.3449 225.354 59.6188 226.353 60.8928 227.343C61.0974 227.623 61.2663 227.929 61.3955 228.251H61.3945ZM132.426 6.61485C133.999 7.33157 135.486 7.96761 136.917 8.7146C137.048 8.85838 137.143 9.0314 137.193 9.21933C137.244 9.40726 137.248 9.60446 137.207 9.79454C137.095 9.92442 136.952 10.0241 136.792 10.0841C136.632 10.1441 136.459 10.1626 136.289 10.1378C134.791 9.54227 133.318 8.88617 131.871 8.16945C131.749 8.0473 131.659 7.89622 131.612 7.73029C131.564 7.56435 131.559 7.38878 131.597 7.22038C131.821 6.95567 132.105 6.74821 132.426 6.61485ZM74.2529 3.52586C73.8778 3.8988 73.4557 4.22115 72.9971 4.48479C71.6455 4.87848 70.2848 5.26212 68.9048 5.53467C68.4724 5.4879 68.0572 5.3392 67.6935 5.10066C67.8859 4.66685 68.1803 4.28583 68.5515 3.99017C69.8323 3.54645 71.1455 3.20219 72.4793 2.96049C73.0981 3.04349 73.6975 3.23491 74.2499 3.52586H74.2529ZM41.0963 19.5157C40.7977 19.9851 40.4675 20.4335 40.108 20.8582C39.1807 21.7612 38.2083 22.6171 37.1948 23.4222C36.7501 23.5769 36.2755 23.6254 35.8088 23.5637C35.7783 23.1239 35.8573 22.6834 36.0389 22.2816C37.0567 21.2379 38.1492 20.2695 39.3076 19.3844C39.9052 19.2952 40.5151 19.3401 41.0933 19.5157H41.0963ZM3.61924 92.9234C3.44158 94.6294 3.38807 95.8709 3.14378 97.0822C2.91383 97.5444 2.58585 97.9511 2.18275 98.2736C1.86463 97.9064 1.63472 97.4713 1.5105 97.0016C1.56003 95.7095 1.71258 94.4234 1.96674 93.1555C2.17763 92.7335 2.47682 92.3616 2.84397 92.0653C3.17306 92.4388 3.50719 92.8023 3.61924 92.9234ZM98.2992 1.67847C97.5411 1.72069 96.781 1.7074 96.0249 1.63831C95.6811 1.46365 95.3886 1.20277 95.1759 0.88121C95.3745 0.552307 95.6521 0.278152 95.9835 0.0836945C97.5018 0.0197601 99.0225 0.0366516 100.539 0.134216C100.886 0.319443 101.18 0.590317 101.392 0.921387C101.124 1.24921 100.787 1.5145 100.406 1.69868C99.7048 1.77794 98.9977 1.79149 98.2941 1.73911V1.67847H98.2992ZM2.63098 104.3C2.67548 105.107 2.66232 105.917 2.59161 106.723C2.52881 106.904 2.42099 107.067 2.27819 107.196C2.13538 107.325 1.96222 107.416 1.77494 107.459C1.59369 107.408 1.42902 107.31 1.29713 107.176C1.16525 107.041 1.0707 106.875 1.0229 106.692C0.979525 105.184 1.02096 103.674 1.14705 102.17C1.36679 101.808 1.67626 101.509 2.04548 101.302C2.34209 101.548 2.57858 101.859 2.73695 102.21C2.77432 102.907 2.75475 103.606 2.67842 104.3H2.63098ZM2.70263 113.88C2.74857 114.576 2.73678 115.275 2.66733 115.969C2.49293 116.311 2.23875 116.605 1.92638 116.827C1.58591 116.637 1.30359 116.358 1.10971 116.02C0.994369 114.515 0.956633 113.006 0.996651 111.497C1.14332 111.137 1.37544 110.819 1.67297 110.569C2.04335 110.785 2.35368 111.09 2.57547 111.457C2.6577 112.262 2.67219 113.072 2.61884 113.88H2.70263ZM161.692 31.3566C161.278 30.9556 160.928 30.4923 160.656 29.9837C160.775 29.6343 160.986 29.3238 161.268 29.0854C161.697 29.3838 162.082 29.7406 162.412 30.1453C162.25 30.592 162.004 31.0033 161.687 31.3566H161.692Z" fill="black"/>
</g>
<defs>
<clipPath id="clip0">
<rect width="187.727" height="228.581" fill="white" transform="matrix(1 0 0 -1 0.988281 228.632)"/>
</clipPath>
</defs>
</svg>
