<svg width="301" height="548" viewBox="0 0 301 548" fill="none" xmlns="http://www.w3.org/2000/svg">
<g clip-path="url(#clip0)">
<path opacity="0.29" fill-rule="evenodd" clip-rule="evenodd" d="M70.8648 2.51581C71.4754 2.88357 72.0515 3.30561 72.5859 3.77705C72.8062 4.16037 72.9448 4.58507 72.9929 5.02444C72.5502 5.10853 71.9818 5.40289 71.6857 5.2347C70.2334 4.39378 68.854 3.43381 67.4486 2.51581H70.8648ZM181.777 365.268C182.287 366.018 182.571 366.431 182.925 366.95C182.41 367.412 181.917 367.861 181.478 368.253C181.325 368.251 181.175 368.217 181.036 368.155C179.755 366.046 178.009 366.312 176.063 367.062C174.8 367.552 173.382 367.672 172.147 368.211C170.345 369.003 169.3 368.365 168.499 366.683C173.033 363.348 177.584 360.005 182.111 356.677C179.889 353.93 177.945 351.428 175.852 349.052C175.517 348.674 174.519 348.842 173.824 348.821C172.668 348.779 171.401 349.557 170.374 348.478C173.081 346.053 175.685 343.719 178.633 341.084C178.633 342.066 178.826 342.878 178.596 343.551C177.92 345.527 178.17 346.908 179.995 348.323C181.889 349.788 183.323 351.848 185.223 353.944C189.128 349.655 192.937 345.478 196.743 341.295C198.432 342.297 198.809 343.537 197.802 345.352C196.981 346.831 196.597 348.541 195.825 350.054C195.157 351.358 195.167 352.36 196.357 353.292C196.624 353.571 196.857 353.882 197.05 354.217C196.543 354.693 196.068 355.142 195.535 355.639C195.03 355.275 194.595 354.967 193.889 354.462C193.273 356.592 192.626 358.562 192.178 360.573C192.154 361.228 192.383 361.867 192.816 362.36C193.939 363.782 195.369 364.995 196.304 366.522C196.912 367.51 197.439 369.634 197.006 369.977C195.781 370.937 194.471 369.767 193.483 368.877C192.307 367.805 191.22 366.64 190.231 365.394C189.441 364.413 188.641 363.958 187.336 364.266C185.582 364.686 183.788 364.918 181.777 365.268ZM96.1348 420.159C91.25 423.39 86.58 426.48 81.9022 429.57C80.6196 428.232 80.3867 427.041 81.7079 425.597C82.8508 424.343 83.6514 422.787 84.7726 421.512C85.8047 420.334 86.1758 419.276 85.1374 417.959C84.9712 417.639 84.853 417.297 84.7866 416.943C85.3872 416.634 85.9268 416.347 86.5638 416.017C86.9441 416.459 87.29 416.866 87.885 417.559C89.0336 415.527 90.1786 413.712 91.0662 411.785C91.3146 411.245 90.9133 410.306 90.62 409.641C89.8952 407.98 89.0167 406.389 88.2934 404.735C88.072 404.15 87.9836 403.523 88.0345 402.899C88.1046 401.441 88.9543 400.944 89.9794 401.925C91.2178 403.116 92.5305 404.504 93.0925 406.06C94.2853 409.367 96.6772 410.061 99.7103 409.928C100.492 409.9 101.273 409.851 102.172 409.802C101.949 409.164 101.786 408.701 101.585 408.12C102.195 407.797 102.782 407.489 103.308 407.216C103.455 407.266 103.59 407.347 103.704 407.454C104.418 409.668 106.059 409.977 108.094 409.718C109.387 409.556 110.73 409.753 112.011 409.542C113.876 409.241 115.107 409.718 115.5 411.89C110.328 413.992 105.062 416.137 99.8212 418.274C101.31 421.476 102.623 424.35 104.006 427.195C104.275 427.519 104.659 427.728 105.078 427.776C105.968 427.966 106.893 427.98 107.775 428.19C108.343 428.397 108.887 428.665 109.398 428.989C106.011 430.762 102.943 432.366 99.544 434.146C99.6142 433.509 99.4739 432.766 99.7791 432.331C101.234 430.229 101.252 428.449 99.523 426.347C98.1471 424.672 97.3802 422.5 96.1348 420.159ZM161.858 22.0952C163.693 22.2564 165.053 22.3054 166.377 22.5436C166.788 22.6207 167.107 23.2093 167.468 23.5667C167.102 23.8999 166.664 24.1445 166.189 24.2815C164.838 24.2585 163.492 24.1227 162.165 23.8752C161.67 23.6308 161.231 23.2872 160.876 22.8659C161.301 22.5296 161.726 22.1933 161.858 22.0952ZM36.7094 334.511C36.6021 334.733 36.4751 334.944 36.3298 335.142C35.3019 336.277 34.3007 337.448 33.1984 338.506C32.9353 338.758 32.3214 338.653 31.8653 338.709C31.8815 338.253 31.7166 337.658 31.9446 337.377C32.9137 336.189 33.9441 335.053 35.0318 333.972C35.1843 333.863 35.3583 333.787 35.5422 333.749C35.7261 333.712 35.9158 333.714 36.099 333.754C36.3634 333.951 36.5734 334.211 36.7094 334.511ZM275.725 99.8874C276.22 100.209 276.674 100.59 277.077 101.023C277.807 102.302 278.465 103.622 279.049 104.975C279.198 105.332 278.827 105.9 278.698 106.376C278.264 106.251 277.865 106.025 277.533 105.718C276.799 104.506 276.152 103.244 275.596 101.941C275.408 101.499 275.644 100.882 275.725 99.8874ZM134.092 19.9087C135.182 19.9692 136.267 20.0861 137.345 20.2591C137.739 20.4787 138.077 20.7856 138.333 21.1561C138.031 21.4879 137.651 21.7405 137.229 21.892C135.874 21.8968 134.521 21.7961 133.182 21.5907C132.661 21.4004 132.181 21.1153 131.765 20.7498C132.277 20.4695 132.773 20.154 133.309 19.9228C133.566 19.8692 133.832 19.8644 134.092 19.9087ZM3.82953 398.912C4.13895 397.251 4.32068 395.913 4.67149 394.616C4.78586 394.196 5.35979 393.901 5.72394 393.544C6.02037 393.988 6.21866 394.489 6.30559 395.015C6.19323 396.302 5.96164 397.576 5.61379 398.821C5.4889 399.269 4.89671 399.585 4.51783 399.956C4.2477 399.542 3.97617 399.136 3.82953 398.912ZM280.891 108.724C281.063 109.081 281.241 109.432 281.406 109.789C282.018 111.121 282.678 112.438 283.198 113.812C283.329 114.155 283.012 114.674 282.901 115.115C282.462 114.891 281.817 114.779 281.621 114.421C280.941 113.184 280.358 111.895 279.877 110.567C279.832 110.043 279.899 109.514 280.076 109.018L280.891 108.724ZM146.787 480.257C148.742 481.567 150.295 482.576 151.807 483.648C151.878 483.786 151.915 483.939 151.914 484.094C151.913 484.249 151.875 484.402 151.802 484.538C151.71 484.665 151.588 484.769 151.448 484.839C151.308 484.91 151.153 484.946 150.995 484.945C149.412 483.978 147.849 482.969 146.351 481.876C146.22 481.777 146.577 481.007 146.787 480.257ZM50.453 532.632C50.0102 532.744 49.3086 533.123 49.1199 532.948C47.8422 531.756 46.655 530.474 45.4917 529.17C45.4222 529.03 45.3902 528.875 45.399 528.719C45.4077 528.563 45.4568 528.412 45.5415 528.281C45.6804 528.166 45.8421 528.082 46.016 528.035C46.1899 527.988 46.3719 527.978 46.5498 528.007C47.8387 529.268 49.0602 530.593 50.2916 531.903C50.3794 532.138 50.4347 532.383 50.4558 532.632H50.453ZM173.373 492.962C175.165 493.41 176.659 493.733 178.116 494.181C178.433 494.439 178.679 494.775 178.829 495.155C178.443 495.386 178.009 495.877 177.678 495.814C176.178 495.533 174.697 495.156 173.245 494.686C172.899 494.573 172.71 493.978 172.45 493.606C172.822 493.347 173.196 493.088 173.373 492.962ZM26.1772 346.627C25.999 346.235 25.5149 345.611 25.6531 345.408C26.6726 343.915 27.7994 342.5 28.9507 341.105C29.0918 341.04 29.247 341.01 29.4024 341.018C29.5579 341.027 29.7088 341.074 29.8418 341.155C29.9581 341.262 30.0465 341.396 30.0993 341.544C30.1522 341.693 30.1678 341.853 30.1449 342.009C29.0595 343.516 27.9123 344.981 26.7715 346.452C26.5836 346.541 26.3831 346.6 26.1772 346.627ZM276.7 244.4C276.607 243.748 276.293 243.089 276.501 242.739C277.298 241.434 278.18 240.184 279.142 238.997C279.297 238.859 279.481 238.757 279.679 238.698C279.878 238.639 280.088 238.623 280.293 238.653C280.427 238.768 280.533 238.913 280.599 239.076C280.665 239.24 280.691 239.417 280.674 239.592C279.691 241.099 278.639 242.564 277.587 244.028C277.311 244.195 277.013 244.32 276.7 244.4ZM239.635 473.796C239.472 474.12 239.281 474.429 239.065 474.721C238.153 475.73 237.258 476.767 236.258 477.685C235.807 477.911 235.311 478.035 234.807 478.049C234.842 477.552 234.688 476.9 234.947 476.585C235.884 475.444 236.886 474.359 237.948 473.333C238.091 473.222 238.257 473.143 238.433 473.101C238.609 473.058 238.793 473.054 238.971 473.088C239.248 473.265 239.476 473.508 239.635 473.796ZM296.337 167.336C296.21 166.787 296.154 166.224 296.17 165.661C296.335 165.281 296.581 164.941 296.892 164.666C297.216 164.926 297.781 165.143 297.826 165.437C298.075 167.053 298.238 168.681 298.317 170.314C298.331 170.602 297.806 170.924 297.53 171.233C297.182 171.01 296.891 170.71 296.679 170.357C296.463 169.368 296.409 168.345 296.292 167.336H296.338H296.337ZM5.34926 452.184C5.53319 451.854 5.80424 451.58 6.13299 451.392C6.33595 451.402 6.53321 451.463 6.707 451.568C6.8808 451.673 7.02568 451.82 7.12861 451.995C7.57996 453.509 7.95116 455.046 8.24069 456.599C8.23844 456.806 8.18409 457.008 8.08268 457.188C7.98126 457.368 7.83604 457.52 7.66044 457.629C7.46103 457.638 7.26258 457.596 7.08425 457.507C6.90592 457.417 6.75373 457.283 6.64237 457.118C6.15965 455.555 5.79901 453.957 5.34926 452.184ZM160.14 490.012C157.945 488.813 156.311 487.958 154.726 487.012C154.647 486.852 154.609 486.675 154.615 486.497C154.621 486.318 154.671 486.144 154.76 485.989C154.904 485.874 155.075 485.797 155.257 485.764C155.439 485.731 155.626 485.743 155.802 485.8C157.237 486.454 158.645 487.162 160.025 487.923C160.169 488.04 160.285 488.186 160.367 488.352C160.449 488.517 160.495 488.699 160.501 488.883C160.446 489.277 160.324 489.659 160.14 490.012ZM18.8739 487.237C19.3345 487.661 19.757 488.126 20.1369 488.624C20.8136 489.802 21.4245 491.016 21.9667 492.261C22.0205 492.758 21.9608 493.262 21.792 493.733C21.343 493.522 20.6911 493.438 20.4807 493.095C19.7221 491.835 19.0565 490.521 18.4894 489.164C18.3323 488.785 18.6634 488.211 18.8739 487.237ZM230.767 342.206C230.583 342.409 230.276 342.738 229.973 343.068C229.588 342.832 229.264 342.511 229.025 342.129C228.712 340.699 228.501 339.25 228.393 337.791C228.366 337.405 228.894 336.985 229.165 336.579C229.527 336.847 229.826 337.191 230.039 337.588C230.339 339.017 230.506 340.475 230.767 342.206ZM46.7561 325.85C46.4315 325.695 46.142 325.476 45.9057 325.205C45.8423 325.06 45.8144 324.901 45.8241 324.743C45.8339 324.584 45.8811 324.431 45.9618 324.294C47.4093 323.222 48.8967 322.199 50.42 321.239C50.755 321.585 51.0643 321.955 51.3454 322.346L46.7561 325.85ZM115.904 309.69C114.092 309.501 112.676 309.41 111.289 309.171C110.878 308.964 110.518 308.667 110.237 308.303C110.652 308.015 111.072 307.483 111.481 307.49C112.894 307.519 114.302 307.664 115.691 307.924C116.099 307.994 116.416 308.569 116.775 308.912C116.401 309.242 116.038 309.564 115.903 309.69H115.904ZM118.116 20.105C116.366 19.8667 114.901 19.7336 113.476 19.4182C113.102 19.3411 112.852 18.6964 112.545 18.311C112.9 18.0257 113.316 17.8267 113.761 17.7294C115.165 17.8212 116.561 18.0155 117.937 18.311C118.341 18.4021 118.633 18.9977 118.976 19.3621C118.638 19.6494 118.301 19.9438 118.114 20.105H118.116ZM236.233 290.538C235.21 292.164 234.243 293.755 233.197 295.296C233.03 295.361 232.849 295.384 232.671 295.365C232.493 295.345 232.322 295.283 232.172 295.184C232.063 295.037 231.992 294.866 231.966 294.685C231.94 294.504 231.959 294.319 232.022 294.147C232.783 292.76 233.596 291.393 234.482 290.083C234.638 289.951 234.821 289.855 235.018 289.8C235.215 289.746 235.421 289.734 235.623 289.767C235.89 289.967 236.1 290.233 236.233 290.538ZM237.661 287.546C237.587 286.936 237.285 286.256 237.505 285.941C238.424 284.651 239.426 283.422 240.504 282.262C240.673 282.154 240.867 282.088 241.067 282.071C241.268 282.054 241.47 282.086 241.655 282.164C241.778 282.295 241.866 282.455 241.909 282.629C241.952 282.803 241.95 282.986 241.902 283.159C240.845 284.547 239.71 285.885 238.582 287.224C238.292 287.374 237.982 287.483 237.661 287.546ZM185.711 27.4911C183.948 27.1127 182.442 26.8534 180.975 26.4469C180.651 26.3558 180.465 25.7672 180.215 25.4098C180.62 25.1926 181.057 24.751 181.422 24.8001C182.873 25.0216 184.309 25.3353 185.721 25.7392C186.096 25.998 186.404 26.3412 186.621 26.7412C186.276 27.0285 185.932 27.3089 185.711 27.4911ZM222.812 41.058C222.166 41.1982 221.598 41.5064 221.263 41.3453C219.851 40.6502 218.48 39.8757 217.156 39.0257C217.013 38.8819 216.91 38.7039 216.856 38.5088C216.802 38.3137 216.799 38.1081 216.848 37.9116C216.98 37.7626 217.15 37.6507 217.339 37.5868C217.528 37.523 217.73 37.5093 217.926 37.5472C219.379 38.283 220.787 39.1028 222.18 39.9507C222.456 40.2788 222.67 40.6539 222.812 41.058ZM264.653 80.3289C264.501 80.6721 264.271 80.9746 263.98 81.2118C263.803 81.2654 263.616 81.2775 263.433 81.2471C263.251 81.2167 263.078 81.1447 262.927 81.0366C261.917 79.7542 260.963 78.4158 260.061 77.0563C259.996 76.886 259.972 76.7029 259.99 76.5217C260.009 76.3405 260.069 76.166 260.167 76.0122C260.291 75.9155 260.436 75.8498 260.59 75.8206C260.744 75.7913 260.903 75.7993 261.053 75.844C262.278 77.3016 263.442 78.8012 264.656 80.3289H264.653ZM296.825 187.28C296.836 186.487 296.905 185.695 297.031 184.912C297.237 184.566 297.523 184.275 297.864 184.063C298.145 184.365 298.659 184.666 298.657 184.967C298.643 186.555 298.545 188.141 298.365 189.719C298.164 190.075 297.877 190.376 297.53 190.595C297.199 190.346 296.93 190.025 296.743 189.656C296.671 188.866 296.658 188.072 296.705 187.28H296.825ZM11.6773 375.695C11.0732 377.468 10.5877 379.024 9.98495 380.538C9.90316 380.734 9.74907 380.892 9.55439 380.978C9.35972 381.065 9.13925 381.074 8.93836 381.003C8.73747 380.932 8.57144 380.786 8.47442 380.597C8.3774 380.408 8.35678 380.188 8.4168 379.984C8.84153 378.469 9.34434 376.977 9.92321 375.513C10.0343 375.344 10.1855 375.205 10.3634 375.109C10.5412 375.012 10.7402 374.961 10.9427 374.96C11.2534 375.129 11.5085 375.385 11.6773 375.695ZM143.633 20.5885C144.927 20.7146 146.065 20.7707 147.176 20.9739C147.521 21.1756 147.81 21.4599 148.018 21.8009C147.713 22.0742 147.406 22.5857 147.106 22.5787C145.52 22.5496 143.937 22.4397 142.363 22.2494C142.059 22.2143 141.816 21.6888 141.545 21.3874C141.795 21.0781 142.101 20.8188 142.447 20.6235C142.838 20.5469 143.239 20.535 143.633 20.5885ZM85.2855 10.0631C87.0641 10.7639 88.7003 11.3734 90.2951 12.0812C90.4206 12.2093 90.5111 12.3674 90.5579 12.5404C90.6047 12.7134 90.6063 12.8955 90.5624 13.0692C90.4625 13.2181 90.3264 13.3392 90.1669 13.4213C90.0074 13.5034 89.8297 13.5439 89.6503 13.5389C88.0485 13.0063 86.4649 12.4106 84.9122 11.7449C84.7796 11.6216 84.6795 11.4676 84.6206 11.2964C84.5617 11.1253 84.546 10.9425 84.5747 10.7639C84.7469 10.4728 84.9918 10.2313 85.2855 10.0631ZM166.819 335.359C166.564 335.211 166.323 335.04 166.099 334.848C165.092 333.783 164.049 332.738 163.141 331.596C162.887 331.274 163.052 330.622 163.024 330.125C163.482 330.105 163.938 330.199 164.35 330.398C165.392 331.428 166.372 332.518 167.285 333.663C167.486 334.031 167.552 334.457 167.474 334.869C167.303 335.087 167.077 335.257 166.819 335.359ZM94.5617 13.3847C96.2997 13.8893 97.7794 14.2677 99.2065 14.7792C99.5258 14.8984 99.6626 15.5149 99.8829 15.9004C99.5617 16.1597 99.1771 16.329 98.7687 16.3909C97.2859 16.0561 95.8245 15.6327 94.3926 15.1226C94.195 15.0188 94.027 14.8666 93.9043 14.6803C93.7816 14.4941 93.7082 14.2797 93.691 14.0574C93.7268 13.7631 94.3463 13.5389 94.5617 13.3847ZM54.754 320.489C54.4282 320.319 54.1499 320.071 53.9443 319.767C53.9189 319.586 53.9385 319.4 54.0014 319.228C54.0643 319.056 54.1685 318.902 54.3049 318.779C55.7306 317.966 57.1886 317.209 58.6789 316.508C58.8512 316.437 59.0426 316.425 59.2223 316.475C59.402 316.526 59.5597 316.634 59.67 316.785C59.7804 316.935 59.837 317.118 59.8308 317.304C59.8246 317.49 59.756 317.669 59.6359 317.812C58.079 318.73 56.4716 319.564 54.754 320.489ZM134.874 314.105C133.064 313.516 131.391 312.998 129.745 312.409C129.625 312.313 129.53 312.19 129.468 312.05C129.406 311.909 129.378 311.756 129.387 311.603C129.498 311.427 129.644 311.276 129.816 311.159C129.988 311.042 130.183 310.962 130.388 310.923C132.026 311.358 133.643 311.883 135.234 312.465C135.376 312.58 135.486 312.729 135.556 312.898C135.625 313.067 135.651 313.251 135.631 313.432C135.443 313.719 135.181 313.951 134.874 314.105ZM82.0671 310.706C81.7398 310.557 81.4692 310.306 81.2953 309.991C81.3334 309.77 81.4274 309.561 81.5686 309.386C81.7098 309.21 81.8934 309.074 82.1022 308.989C83.5285 308.643 84.976 308.39 86.4354 308.233C86.8804 308.323 87.2975 308.518 87.6528 308.8C87.3525 309.192 87.1139 309.844 86.7407 309.928C85.3185 310.272 83.8499 310.433 82.0671 310.706ZM229.364 310.433C229.354 311.334 229.279 312.233 229.14 313.124C228.913 313.522 228.595 313.86 228.212 314.112C227.938 313.797 227.428 313.467 227.433 313.152C227.459 311.519 227.572 309.888 227.771 308.267C227.872 308.089 228.013 307.937 228.183 307.822C228.352 307.706 228.546 307.631 228.749 307.602C228.908 307.68 229.047 307.794 229.156 307.933C229.265 308.073 229.342 308.235 229.38 308.408C229.44 309.081 229.45 309.758 229.41 310.433H229.363H229.364ZM284.881 117.526C285.021 117.904 285.149 118.283 285.302 118.654C285.863 120.07 286.49 121.464 286.963 122.907C287.071 123.23 286.664 123.727 286.494 124.141C286.067 124.006 285.678 123.77 285.361 123.454C284.731 122.129 284.189 120.765 283.738 119.369C283.722 118.871 283.817 118.375 284.016 117.918C284.301 117.785 284.591 117.659 284.881 117.526ZM12.179 372.248C11.9909 371.645 11.6289 371.126 11.7517 370.776C12.2764 369.287 12.8869 367.829 13.5801 366.41C13.7107 366.252 13.8762 366.126 14.0637 366.042C14.2511 365.958 14.4554 365.919 14.6606 365.927C14.8086 366.022 14.9309 366.153 15.0165 366.307C15.1021 366.461 15.1486 366.633 15.1518 366.81C14.5406 368.442 13.8495 370.047 13.1381 371.638C12.8608 371.901 12.5351 372.108 12.179 372.248ZM288.085 126.881C288.38 127.172 288.63 127.505 288.827 127.869C289.343 129.184 289.785 130.527 290.149 131.891C290.25 132.298 289.855 132.83 289.688 133.307C289.302 133.048 288.717 132.88 288.566 132.522C288.011 131.222 287.552 129.882 287.195 128.514C287.184 127.965 287.284 127.419 287.488 126.909C287.689 126.895 287.887 126.888 288.085 126.881ZM27.2009 501.385C27.0145 501.697 26.7573 501.961 26.4501 502.156C26.2669 502.187 26.0791 502.175 25.9009 502.123C25.7226 502.071 25.5585 501.979 25.4208 501.854C24.5403 500.474 23.7187 499.051 22.9553 497.608C22.9134 497.433 22.9131 497.25 22.9544 497.075C22.9957 496.9 23.0775 496.737 23.1932 496.599C23.3216 496.512 23.4694 496.457 23.6237 496.44C23.778 496.423 23.9342 496.444 24.0786 496.501C25.1437 498.084 26.147 499.717 27.2009 501.385ZM6.22209 447.426C6.07756 447.58 5.77656 448.162 5.46504 448.162C5.24434 448.116 5.03865 448.016 4.86696 447.87C4.69528 447.725 4.56314 447.538 4.48276 447.328C4.1355 445.849 3.87497 444.352 3.70253 442.843C3.82022 442.449 4.03772 442.091 4.33401 441.806C4.69956 442.065 5.31208 442.268 5.38645 442.598C5.73376 444.076 5.92531 445.597 6.2242 447.426H6.22209ZM116.599 451.413C116.457 451.673 116.249 451.891 115.995 452.044C115.818 452.079 115.635 452.073 115.46 452.029C115.285 451.984 115.123 451.9 114.984 451.785C113.991 450.481 113.045 449.143 112.161 447.762C112.075 447.595 112.048 447.404 112.086 447.22C112.123 447.035 112.222 446.869 112.366 446.749C112.51 446.628 112.691 446.56 112.88 446.556C113.068 446.551 113.252 446.611 113.401 446.725C114.475 448.106 115.469 449.549 116.481 450.979C116.538 451.118 116.579 451.264 116.601 451.413H116.599ZM122.726 459.29C122.241 459.388 121.509 459.731 121.331 459.549C120.133 458.272 119.001 456.934 117.941 455.541C117.89 455.366 117.882 455.182 117.918 455.004C117.954 454.826 118.032 454.659 118.146 454.518C118.278 454.427 118.431 454.372 118.591 454.357C118.75 454.342 118.911 454.369 119.058 454.434C120.258 455.779 121.396 457.173 122.544 458.568C122.635 458.8 122.696 459.043 122.728 459.29H122.726ZM11.4015 469.584C11.7998 469.862 12.1521 470.2 12.4456 470.586C13.0265 471.995 13.5906 473.41 14.0341 474.868C14.1428 475.225 13.7724 475.723 13.6215 476.157C13.2286 475.933 12.6294 475.807 12.4778 475.471C11.8398 474.088 11.2948 472.665 10.8465 471.21C10.735 470.838 11.1356 470.313 11.4015 469.584ZM254.746 68.0165C255.014 68.1524 255.265 68.322 255.491 68.521C256.467 69.6913 257.451 70.8547 258.347 72.088C258.467 72.476 258.491 72.887 258.417 73.2863C257.967 73.2653 257.319 73.4263 257.099 73.1881C256.033 72.0217 255.029 70.8007 254.09 69.5301C253.941 69.1872 253.934 68.7992 254.07 68.4509C254.253 68.2496 254.486 68.0999 254.746 68.0165ZM297.977 194.554C297.719 196.292 297.573 197.757 297.248 199.179C297.158 199.571 296.537 199.838 296.16 200.167C295.876 199.815 295.676 199.403 295.575 198.962C295.692 197.504 295.903 196.055 296.207 194.624C296.287 194.412 296.419 194.223 296.592 194.074C296.764 193.926 296.971 193.824 297.194 193.776C297.492 193.769 297.8 194.365 297.977 194.554ZM37.9401 517.341C37.8174 517.686 37.6135 517.996 37.3458 518.245C37.1727 518.298 36.9898 518.31 36.8114 518.279C36.6331 518.249 36.4643 518.177 36.3186 518.07C35.3012 516.795 34.3367 515.48 33.4251 514.125C33.3601 513.951 33.3357 513.765 33.3535 513.58C33.3714 513.396 33.4311 513.218 33.5282 513.06C33.6463 512.96 33.7861 512.889 33.9366 512.852C34.087 512.816 34.2439 512.815 34.3947 512.85C35.6036 514.314 36.755 515.821 37.9401 517.341ZM262.265 261.723C262.129 261.994 261.968 262.252 261.784 262.493C260.775 263.559 259.782 264.645 258.697 265.633C258.283 265.815 257.832 265.896 257.381 265.871C257.377 265.423 257.184 264.813 257.404 264.554C258.4 263.397 259.455 262.293 260.566 261.246C260.717 261.137 260.888 261.06 261.07 261.019C261.251 260.978 261.439 260.974 261.622 261.008C261.894 261.188 262.115 261.434 262.265 261.723ZM266.011 83.3632C266.39 83.5597 266.742 83.8047 267.057 84.0921C267.941 85.4025 268.829 86.7199 269.617 88.0934C269.782 88.3737 269.526 88.9063 269.465 89.3198C269.02 89.2076 268.372 89.2497 268.169 88.9694C267.234 87.689 266.387 86.3475 265.632 84.954C265.462 84.6386 265.837 84.029 266.011 83.3632ZM270.642 251.94C270.551 251.379 270.233 250.727 270.431 250.44C271.392 249.108 272.427 247.831 273.53 246.614C273.68 246.507 273.855 246.44 274.038 246.419C274.222 246.398 274.407 246.424 274.577 246.495C274.71 246.613 274.811 246.763 274.871 246.931C274.931 247.099 274.947 247.279 274.919 247.455C273.827 248.892 272.66 250.272 271.499 251.66C271.228 251.795 270.939 251.889 270.64 251.94H270.642ZM111.161 443.263C110.996 443.58 110.751 443.847 110.452 444.041C110.269 444.066 110.083 444.047 109.909 443.984C109.735 443.922 109.579 443.819 109.454 443.684C108.617 442.345 107.825 440.979 107.119 439.57C107.069 439.367 107.065 439.155 107.108 438.95C107.15 438.745 107.239 438.552 107.367 438.386C107.528 438.315 107.705 438.286 107.881 438.299C108.057 438.312 108.228 438.369 108.377 438.463C109.325 439.991 110.193 441.574 111.157 443.263H111.161ZM28.2723 504.714C29.4096 504.686 32.5599 509.465 32.0772 509.955C31.8604 510.085 31.6143 510.157 31.3619 510.166C31.1095 510.174 30.8591 510.119 30.634 510.004C29.6595 508.758 28.782 507.439 28.0092 506.059C27.8225 505.73 28.1804 505.099 28.2681 504.714H28.2723ZM169.95 492.534C169.213 492.829 168.691 493.249 168.336 493.137C166.828 492.67 165.353 492.103 163.921 491.441C163.629 491.308 163.579 490.649 163.418 490.229C163.781 490.042 164.184 489.944 164.592 489.941C166.041 490.411 167.464 490.965 168.872 491.539C169.274 491.821 169.635 492.155 169.946 492.534H169.95ZM57.5829 539.381C56.9978 539.437 56.2807 539.731 55.9734 539.493C54.7348 538.502 53.5577 537.437 52.4484 536.304C52.3378 536.161 52.265 535.992 52.2367 535.813C52.2084 535.634 52.2255 535.452 52.2863 535.281C52.4037 535.146 52.5526 535.041 52.72 534.976C52.8873 534.911 53.068 534.889 53.2462 534.91C54.667 536.101 56.0274 537.362 57.3956 538.617C57.4931 538.862 57.5562 539.118 57.5829 539.381ZM44.0358 524.903C43.904 525.257 43.6914 525.576 43.4149 525.835C43.2397 525.891 43.054 525.908 42.8717 525.882C42.6894 525.857 42.5153 525.79 42.3624 525.688C41.2707 524.468 40.226 523.2 39.2402 521.889C39.1727 521.718 39.146 521.533 39.1622 521.349C39.1784 521.166 39.237 520.988 39.3335 520.831C39.4502 520.728 39.5908 520.656 39.7425 520.62C39.8942 520.585 40.0524 520.587 40.2028 520.628C41.5065 522.008 42.7511 523.452 44.0358 524.903ZM244.19 382.297C244.507 382.565 244.784 382.877 245.014 383.222C245.657 384.477 246.231 385.766 246.733 387.083C246.868 387.461 246.507 388.015 246.374 388.491C245.941 388.358 245.545 388.125 245.218 387.812C244.528 386.517 243.924 385.178 243.411 383.803C243.382 383.307 243.468 382.811 243.662 382.353C243.838 382.332 244.014 382.311 244.19 382.297ZM24.6105 349.676C24.3382 350.159 24.1109 350.601 23.8506 351.021C23.2009 352.079 22.5813 353.159 21.8467 354.147C21.6998 354.289 21.5192 354.392 21.3217 354.446C21.1241 354.5 20.9161 354.503 20.7171 354.455C20.5691 354.32 20.4589 354.149 20.3974 353.958C20.3358 353.768 20.3251 353.565 20.3663 353.369C21.1998 351.904 22.1204 350.489 23.0732 349.101C23.1944 348.997 23.3392 348.924 23.4949 348.889C23.6507 348.854 23.8128 348.857 23.9671 348.898C24.2375 349.105 24.4575 349.371 24.6105 349.676ZM8.68342 385.037C8.2414 386.823 7.92145 388.316 7.47451 389.774C7.37979 390.082 6.82059 390.243 6.47539 390.474C6.24315 390.089 5.75972 389.662 5.82217 389.332C6.11243 387.838 6.49723 386.363 6.97425 384.917C7.07308 384.719 7.22128 384.549 7.40468 384.424C7.58808 384.298 7.80055 384.222 8.02178 384.203C8.3225 384.406 8.55252 384.697 8.67991 385.037H8.68342ZM4.78165 437.776C4.65886 437.93 4.3775 438.281 4.09615 438.638C3.72429 438.309 3.09141 438.029 3.02546 437.65C2.7849 436.209 2.64774 434.752 2.61501 433.291C2.75479 432.872 2.99769 432.493 3.32155 432.191C3.65552 432.542 4.21122 432.857 4.28279 433.256C4.52555 434.637 4.60343 436.045 4.77814 437.776H4.78165ZM202.367 497.173C202.069 496.97 201.699 496.711 201.328 496.452C201.569 496.024 201.905 495.657 202.311 495.379C203.655 494.962 205.029 494.648 206.421 494.44C206.82 494.384 207.296 494.861 207.737 495.092C207.52 495.491 207.213 495.834 206.84 496.094C205.438 496.515 203.996 496.795 202.363 497.173H202.367ZM187.157 497.405C185.464 497.166 184.166 497.04 182.904 496.767C182.513 496.54 182.179 496.226 181.929 495.849C182.35 495.576 182.781 495.057 183.192 495.078C184.431 495.129 185.661 495.307 186.863 495.611C187.435 495.866 187.958 496.217 188.412 496.648C187.903 496.949 187.4 497.257 187.154 497.405H187.157ZM10.9778 466.15C10.862 466.455 10.6616 466.72 10.4003 466.914C10.1971 466.934 9.99215 466.905 9.80255 466.829C9.61295 466.754 9.44427 466.634 9.31068 466.48C8.74446 464.896 8.26665 463.277 7.84988 461.651C7.86427 461.473 7.92404 461.302 8.02353 461.154C8.12301 461.005 8.25888 460.885 8.4182 460.804C8.62034 460.802 8.81989 460.849 9.0001 460.94C9.18031 461.032 9.3359 461.165 9.45381 461.329C10.0046 462.857 10.4438 464.426 10.9728 466.15H10.9778ZM19.6899 358.008C18.7778 359.669 17.9092 361.302 16.9585 362.878C16.8123 362.995 16.6306 363.058 16.4435 363.057C16.2564 363.056 16.0753 362.992 15.9301 362.874C15.785 362.756 15.6846 362.592 15.6456 362.409C15.6066 362.227 15.6314 362.036 15.7159 361.869C16.3824 360.447 17.0995 359.045 17.8951 357.693C18.039 357.543 18.2133 357.427 18.4062 357.35C18.5992 357.274 18.8063 357.24 19.0135 357.251C19.2993 357.441 19.5307 357.702 19.685 358.008H19.6899ZM297.248 160.637C297.088 160.826 296.806 161.176 296.522 161.52C296.154 161.19 295.557 160.917 295.457 160.525C295.11 159.161 294.873 157.771 294.748 156.369C294.712 155.963 295.202 155.514 295.449 155.08C295.836 155.318 296.162 155.642 296.403 156.026C296.741 157.448 296.94 158.899 297.243 160.637H297.248ZM244.323 280.055C244.066 279.928 243.842 279.743 243.669 279.515C243.608 279.37 243.582 279.213 243.592 279.056C243.603 278.899 243.649 278.747 243.729 278.611C244.819 277.392 245.943 276.2 247.118 275.065C247.269 274.962 247.443 274.898 247.625 274.878C247.807 274.858 247.991 274.884 248.16 274.953C248.281 275.082 248.366 275.24 248.408 275.412C248.45 275.584 248.447 275.764 248.399 275.934C247.235 277.301 245.999 278.604 244.776 279.921C244.632 279.992 244.477 280.037 244.318 280.055H244.323ZM230.86 46.1665C230.42 46.3767 229.822 46.8743 229.597 46.7411C228.102 45.8442 226.672 44.8351 225.262 43.805C225.164 43.6859 225.098 43.543 225.071 43.3906C225.045 43.2381 225.059 43.0814 225.112 42.936C225.221 42.7935 225.361 42.6769 225.521 42.5945C225.681 42.5122 225.857 42.4661 226.037 42.4595C227.567 43.4056 229.047 44.4357 230.527 45.4518C230.673 45.6716 230.784 45.9126 230.855 46.1665H230.86ZM287.01 227.827C286.845 227.336 286.443 226.782 286.578 226.432C287.16 224.968 287.83 223.54 288.585 222.157C288.731 222.011 288.906 221.897 289.098 221.822C289.291 221.748 289.497 221.714 289.703 221.723C289.835 221.801 289.946 221.91 290.028 222.041C290.109 222.171 290.157 222.319 290.169 222.473C289.441 224.161 288.647 225.829 287.848 227.49C287.588 227.648 287.303 227.762 287.005 227.827H287.01ZM214.278 36.2857C213.698 36.503 213.136 36.9304 212.789 36.7973C211.32 36.2241 209.887 35.5617 208.498 34.8141C208.342 34.6771 208.22 34.5058 208.142 34.3136C208.063 34.1215 208.031 33.9139 208.046 33.707C208.147 33.5554 208.283 33.4315 208.444 33.347C208.605 33.2625 208.785 33.2199 208.966 33.2233C210.58 33.875 212.163 34.6249 213.737 35.3677C213.969 35.6403 214.152 35.9509 214.278 36.2857ZM293.197 141.765C293.043 142.085 292.799 142.352 292.496 142.536C292.292 142.535 292.092 142.482 291.915 142.381C291.738 142.28 291.591 142.136 291.486 141.961C290.968 140.467 290.526 138.946 290.163 137.406C290.224 137.002 290.383 136.62 290.628 136.292C291.026 136.516 291.666 136.65 291.781 136.972C292.307 138.458 292.691 139.999 293.197 141.765ZM148.255 318.05C149.864 319.115 151.456 320.145 153.003 321.232C153.061 321.376 153.081 321.531 153.064 321.685C153.047 321.839 152.993 321.987 152.906 322.115C152.764 322.229 152.598 322.308 152.421 322.347C152.243 322.386 152.059 322.383 151.883 322.339C150.452 321.561 149.051 320.72 147.691 319.823C147.571 319.684 147.483 319.52 147.434 319.343C147.386 319.166 147.378 318.981 147.41 318.8C147.631 318.489 147.919 318.232 148.255 318.05ZM108.492 18.6264C106.754 18.255 105.25 17.9958 103.791 17.5823C103.456 17.4912 103.264 16.8885 103.006 16.5241C103.411 16.3139 103.848 15.8864 104.215 15.9424C105.666 16.1537 107.1 16.4604 108.51 16.8605C108.888 17.1093 109.199 17.4459 109.417 17.8415C109.074 18.1288 108.735 18.4162 108.49 18.6264H108.492ZM127.618 21.1912C125.811 20.981 124.446 20.8828 123.112 20.6305C122.711 20.4075 122.369 20.0929 122.113 19.7125C122.486 19.3784 122.93 19.134 123.412 18.9979C124.718 19.0162 126.02 19.1474 127.303 19.3902C127.803 19.6181 128.251 19.9475 128.618 20.3573C128.202 20.7007 127.788 21.044 127.616 21.1912H127.618ZM121.006 308.66C122.549 308.996 124.106 309.298 125.629 309.711C125.944 309.967 126.187 310.301 126.335 310.678C125.948 310.902 125.526 311.372 125.178 311.323C123.668 311.099 122.171 310.79 120.695 310.398C120.504 310.32 120.334 310.197 120.199 310.04C120.065 309.882 119.97 309.695 119.924 309.494C119.963 308.988 120.09 308.492 120.298 308.029L121.006 308.66ZM93.8875 309.143C93.2784 309.261 92.658 309.311 92.038 309.291C91.6046 309.142 91.2017 308.916 90.8487 308.625C91.1511 308.296 91.4191 307.714 91.7608 307.665C93.3225 307.445 94.8957 307.317 96.4723 307.279C96.6717 307.324 96.8561 307.42 97.007 307.557C97.1579 307.695 97.2701 307.87 97.3325 308.064C97.2957 308.266 97.2074 308.454 97.0762 308.611C96.9451 308.768 96.7754 308.889 96.5838 308.961C95.6894 309.082 94.7879 309.143 93.8854 309.143H93.8875ZM190.633 26.8394C192.341 27.3229 193.772 27.6522 195.141 28.1568C195.5 28.2899 195.666 28.9416 195.921 29.3551C195.536 29.5855 195.105 29.7268 194.658 29.7686C193.226 29.47 191.814 29.0791 190.433 28.5983C190.239 28.4867 190.077 28.3279 189.961 28.1368C189.845 27.9456 189.779 27.7283 189.77 27.5051C189.8 27.2108 190.412 26.9936 190.633 26.8394ZM282.276 236.397C282.069 235.808 281.656 235.241 281.803 234.946C282.553 233.492 283.385 232.081 284.295 230.721C284.446 230.583 284.63 230.486 284.83 230.44C285.029 230.393 285.237 230.398 285.434 230.454C285.575 230.599 285.677 230.777 285.729 230.972C285.78 231.168 285.781 231.373 285.729 231.569C285.002 232.97 284.179 234.323 283.343 235.661C283.027 235.96 282.666 236.209 282.273 236.397H282.276ZM241.161 471.231C241.161 470.418 240.96 469.766 241.197 469.381C241.972 468.135 242.838 466.947 243.787 465.828C244.03 465.541 244.648 465.562 245.095 465.443C245.189 465.8 245.481 466.283 245.347 466.487C244.376 467.93 243.326 469.325 242.277 470.712C241.931 470.938 241.554 471.112 241.159 471.231H241.161ZM271.154 91.6534C271.493 91.7862 271.807 91.9732 272.086 92.207C272.987 93.6996 273.887 95.1922 274.703 96.7339C274.71 96.9145 274.671 97.094 274.591 97.2557C274.51 97.4174 274.389 97.5561 274.241 97.659C274.042 97.6962 273.836 97.685 273.643 97.6265C273.449 97.5679 273.272 97.4636 273.127 97.3225C272.267 96.0021 271.487 94.6308 270.793 93.2161C270.628 92.8727 270.991 92.2841 271.152 91.6534H271.154ZM293.824 213.44C293.168 215.185 292.586 216.824 291.908 218.429C291.781 218.555 291.624 218.646 291.452 218.694C291.28 218.742 291.099 218.745 290.925 218.703C290.767 218.58 290.64 218.421 290.556 218.24C290.472 218.058 290.433 217.858 290.443 217.658C290.895 216.149 291.424 214.663 292.03 213.208C292.153 213.042 292.311 212.905 292.494 212.809C292.678 212.713 292.88 212.661 293.087 212.655C293.397 212.848 293.65 213.118 293.822 213.44H293.824ZM228.024 484.77C227.799 484.688 227.604 484.542 227.463 484.349C227.412 484.171 227.398 483.984 227.421 483.799C227.444 483.615 227.504 483.437 227.598 483.277C228.801 482.17 230.049 481.114 231.344 480.11C231.511 480.032 231.695 479.998 231.878 480.009C232.062 480.02 232.24 480.076 232.397 480.173C232.502 480.312 232.571 480.476 232.595 480.648C232.62 480.821 232.6 480.998 232.537 481.161C231.216 482.38 229.831 483.529 228.458 484.693C228.318 484.745 228.171 484.771 228.022 484.77H228.024ZM18.0579 484.265C17.9153 484.565 17.7005 484.825 17.4328 485.022C17.2245 485.02 17.0188 484.976 16.8284 484.892C16.6381 484.807 16.4671 484.685 16.3263 484.531C15.6058 483.132 14.9585 481.696 14.387 480.229C14.36 480.025 14.3807 479.818 14.4474 479.623C14.5141 479.429 14.6251 479.252 14.7715 479.108C14.9419 479.056 15.1224 479.049 15.2965 479.086C15.4705 479.123 15.6326 479.202 15.7678 479.318C16.5726 480.923 17.2896 482.576 18.0558 484.265H18.0579ZM250.81 396.599C250.637 396.916 250.384 397.181 250.076 397.37C249.871 397.372 249.668 397.327 249.483 397.238C249.298 397.149 249.136 397.02 249.008 396.859C248.348 395.428 247.762 393.964 247.254 392.472C247.238 392.27 247.271 392.068 247.349 391.881C247.428 391.695 247.55 391.53 247.705 391.4C247.879 391.359 248.06 391.364 248.232 391.413C248.404 391.462 248.561 391.554 248.687 391.68C249.43 393.25 250.078 394.868 250.808 396.599H250.81ZM171.66 23.2025C173.38 23.4618 174.687 23.5879 175.952 23.8892C176.39 24.1338 176.769 24.471 177.063 24.8772C176.572 25.1155 176.07 25.578 175.593 25.557C174.346 25.4871 173.108 25.297 171.897 24.9893C171.407 24.7422 170.969 24.4046 170.605 23.9943C171.034 23.6719 171.463 23.3496 171.66 23.2025ZM155.689 23.3145C154.554 23.258 153.422 23.1411 152.299 22.9641C151.883 22.8801 151.562 22.3264 151.197 21.99C151.533 21.6762 151.937 21.4458 152.378 21.3173C153.686 21.3098 154.992 21.4155 156.282 21.6328C156.817 21.8681 157.3 22.2062 157.704 22.6278C157.204 22.859 156.709 23.1043 156.199 23.3075C156.03 23.3376 155.858 23.3328 155.691 23.2935L155.689 23.3145ZM63.4528 316.256C63.1531 316.089 62.901 315.847 62.7203 315.556C62.6954 315.376 62.7154 315.193 62.7784 315.023C62.8415 314.853 62.9456 314.701 63.0816 314.581C64.6315 313.93 66.2109 313.334 67.8099 312.808C67.9899 312.802 68.1686 312.841 68.3294 312.922C68.4903 313.003 68.6282 313.123 68.7305 313.271C68.7713 313.443 68.767 313.622 68.7178 313.791C68.6686 313.961 68.5763 314.115 68.4498 314.238C66.8543 314.939 65.2209 315.556 63.4528 316.256ZM296.056 151.618C295.633 151.8 295.182 151.906 294.723 151.933C294.518 151.905 294.323 151.83 294.152 151.715C293.981 151.599 293.839 151.446 293.736 151.268C293.307 149.799 292.955 148.309 292.684 146.804C292.745 146.398 292.905 146.013 293.149 145.682C293.548 145.893 294.207 146.026 294.302 146.334C294.768 147.841 295.086 149.404 295.456 150.945L296.056 151.618ZM159.988 328.408C159.591 328.141 159.252 327.952 158.95 327.714C157.885 326.866 156.801 326.046 155.801 325.135C155.618 324.772 155.528 324.371 155.538 323.965C155.976 323.895 156.573 323.6 156.827 323.79C158.108 324.719 159.339 325.715 160.514 326.775C160.624 326.922 160.701 327.092 160.739 327.273C160.777 327.453 160.776 327.639 160.734 327.819C160.54 328.076 160.283 328.279 159.988 328.408ZM230.602 345.555C231.031 346.013 231.4 346.524 231.699 347.076C232.101 348.424 232.418 349.795 232.65 351.182C232.711 351.575 232.26 352.051 232.045 352.486C231.64 352.294 231.288 352.005 231.021 351.645C230.602 350.245 230.271 348.819 230.03 347.377C229.961 346.964 230.295 346.48 230.602 345.555ZM256.296 439.633C256.049 441.294 255.955 442.534 255.644 443.726C255.376 444.25 255.007 444.716 254.559 445.099C254.277 444.632 254.084 444.116 253.989 443.579C254.027 442.343 254.181 441.114 254.45 439.907C254.695 439.423 255.038 438.995 255.459 438.652C255.798 439.052 256.138 439.451 256.296 439.633ZM268.808 254.617C268.685 254.898 268.534 255.165 268.357 255.416C267.415 256.474 266.5 257.567 265.467 258.534C265.17 258.814 264.51 258.702 264.016 258.765C263.973 258.303 264.038 257.838 264.207 257.406C265.136 256.258 266.126 255.161 267.174 254.119C267.325 254.007 267.498 253.927 267.681 253.885C267.865 253.843 268.055 253.839 268.24 253.874C268.49 254.069 268.685 254.325 268.808 254.617ZM233.867 47.8484C234.932 48.6071 235.956 49.4235 236.933 50.2941C237.494 50.8407 238.291 52.1091 238.125 52.2913C237.109 53.4196 236.517 52.0809 235.817 51.6114C234.927 51.0123 234.089 50.3397 233.312 49.6003C233.186 49.4378 233.095 49.2515 233.044 49.0527C232.993 48.8539 232.983 48.6467 233.015 48.444C233.245 48.1778 233.537 47.9731 233.867 47.8484ZM256.991 423.544C256.651 424.279 256.329 425.625 255.966 425.639C254.389 425.688 255.13 424.266 254.958 423.46C254.76 422.572 254.683 421.662 254.73 420.755C254.873 420.221 255.111 419.718 255.432 419.269C255.829 419.629 256.154 420.062 256.387 420.545C256.565 421.489 256.678 422.444 256.727 423.404C256.817 423.453 256.904 423.502 256.991 423.544ZM65.277 545.274C64.6456 545.428 63.9994 545.807 63.7243 545.624C62.3294 544.67 60.9875 543.641 59.7047 542.541C59.6145 542.381 59.5667 542.2 59.5658 542.016C59.565 541.832 59.6111 541.651 59.6998 541.49C59.835 541.372 59.9981 541.292 60.1734 541.255C60.3488 541.218 60.5306 541.227 60.7017 541.28C62.0853 542.247 63.4163 543.291 64.748 544.335C64.9656 544.623 65.1435 544.939 65.277 545.274ZM204.301 33.1183C202.595 32.4665 200.938 31.8779 199.32 31.1912C199.198 31.0545 199.111 30.8916 199.063 30.7152C199.016 30.5388 199.011 30.3539 199.047 30.1751C199.122 30.0357 199.231 29.9178 199.365 29.8331C199.498 29.7483 199.651 29.6997 199.809 29.6916C201.476 30.2382 203.129 30.8407 204.752 31.5065C204.876 31.6385 204.968 31.7981 205.019 31.9723C205.07 32.1465 205.079 32.3302 205.045 32.5085C204.854 32.7724 204.598 32.9825 204.301 33.1183ZM195.044 495.968C195.775 495.92 196.51 495.932 197.239 496.003C197.602 496.18 197.921 496.436 198.171 496.753C197.89 497.054 197.622 497.601 197.329 497.622C195.698 497.706 194.057 497.713 192.425 497.636C192.13 497.622 191.863 497.082 191.583 496.781C191.828 496.455 192.147 496.193 192.515 496.017C193.358 495.949 194.205 495.938 195.05 495.982V495.968H195.044ZM217.175 491.546C216.909 491.914 216.597 492.246 216.246 492.534C214.809 493.193 213.37 493.873 211.888 494.405C211.601 494.51 211.102 494.027 210.701 493.817C210.836 493.438 211.056 493.095 211.346 492.815C212.652 492.142 214 491.555 215.382 491.056C215.781 490.923 216.362 491.308 217.175 491.546ZM225.41 486.564C225.234 486.904 225.014 487.22 224.755 487.503C223.458 488.393 222.159 489.283 220.808 490.096C220.452 490.151 220.086 490.112 219.749 489.983C219.807 489.591 219.721 489.016 219.948 488.841C221.23 487.849 222.568 486.932 223.956 486.094C224.215 485.94 224.814 486.361 225.41 486.564ZM139.509 313.944C141.153 314.694 142.707 315.359 144.202 316.137C144.339 316.286 144.437 316.466 144.49 316.661C144.543 316.856 144.548 317.061 144.506 317.258C144.39 317.396 144.241 317.502 144.074 317.567C143.906 317.632 143.724 317.653 143.546 317.63C141.981 317.006 140.438 316.312 138.929 315.57C138.801 315.442 138.708 315.285 138.658 315.112C138.608 314.939 138.603 314.757 138.642 314.581C138.875 314.301 139.172 314.083 139.509 313.944ZM78.7119 310.72C78.3174 311.107 77.8764 311.444 77.3991 311.722C75.9867 312.136 74.5652 312.535 73.1227 312.822C72.6703 312.771 72.2362 312.615 71.8548 312.367C72.1488 311.968 72.3642 311.337 72.7515 311.204C74.0911 310.745 75.4631 310.387 76.8561 310.132C77.2904 310.055 77.8061 310.419 78.7119 310.72ZM243.089 378.807C242.911 379.13 242.658 379.407 242.352 379.613C242.172 379.646 241.987 379.634 241.814 379.577C241.64 379.521 241.483 379.422 241.357 379.29C240.611 377.728 239.934 376.123 239.302 374.511C239.303 374.355 239.34 374.201 239.41 374.062C239.48 373.922 239.581 373.8 239.705 373.705C239.826 373.658 239.957 373.643 240.085 373.662C240.213 373.68 240.335 373.731 240.437 373.81C241.332 375.422 242.175 377.062 243.089 378.807ZM44.0625 327.412C43.7487 327.901 43.4038 328.369 43.0297 328.814C42.0601 329.757 41.0438 330.65 39.9846 331.491C39.6542 331.743 39.0276 331.596 38.5364 331.638C38.6066 331.183 38.5133 330.566 38.7764 330.3C39.8424 329.211 40.9842 328.2 42.1934 327.272C42.4901 327.048 43.17 327.328 44.0625 327.412ZM4.89251 404.034C4.70658 405.807 4.65044 407.111 4.39575 408.372C4.30313 408.835 3.73972 409.199 3.39101 409.612C3.14333 409.171 2.67324 408.722 2.68937 408.288C2.74187 406.939 2.90118 405.596 3.16578 404.273C3.3863 403.831 3.69899 403.441 4.08282 403.13C4.42873 403.523 4.77743 403.908 4.88969 404.034H4.89251ZM255.832 415.198C255.629 415.443 255.346 415.793 255.061 416.137C254.71 415.835 254.149 415.583 254.058 415.219C253.707 413.789 253.449 412.337 253.286 410.874C253.246 410.517 253.695 410.103 253.918 409.718C254.269 410.012 254.83 410.257 254.924 410.622C255.289 412.044 255.508 413.502 255.83 415.198H255.832ZM240.975 54.2393C241.316 54.3644 241.642 54.5266 241.947 54.723C243.015 55.5623 244.034 56.463 244.998 57.4208C245.318 57.7572 245.251 58.458 245.361 58.9905C244.851 58.9993 244.346 58.899 243.879 58.6963C242.783 57.7976 241.738 56.8383 240.749 55.8231C240.518 55.5249 240.398 55.1557 240.41 54.7789C240.548 54.5526 240.743 54.3665 240.975 54.2393ZM250.915 457.468C249.657 459.577 248.732 461.182 247.726 462.731C247.561 462.802 247.381 462.832 247.202 462.817C247.023 462.803 246.85 462.744 246.699 462.647C246.591 462.496 246.522 462.322 246.498 462.139C246.473 461.955 246.494 461.769 246.559 461.595C247.274 460.194 248.046 458.825 248.874 457.489C249 457.355 249.152 457.25 249.322 457.179C249.491 457.109 249.673 457.076 249.857 457.082C250.229 457.151 250.586 457.282 250.915 457.468ZM229.369 330.447C229.46 331.118 229.486 331.796 229.446 332.472C229.269 332.839 229.004 333.157 228.674 333.397C228.371 333.117 227.84 332.871 227.799 332.556C227.597 331.041 227.487 329.515 227.47 327.987C227.47 327.623 227.998 327.258 228.284 326.901C228.653 327.165 228.958 327.51 229.173 327.91C229.304 328.749 229.373 329.597 229.377 330.447H229.366H229.369ZM81.9654 9.28516C81.3921 9.52342 80.8427 9.96492 80.5277 9.83178C79.0204 9.19974 77.5518 8.47897 76.1299 7.67336C75.9938 7.52393 75.8952 7.34444 75.8423 7.14949C75.7894 6.95455 75.7836 6.74985 75.8254 6.55223C75.935 6.41164 76.079 6.30156 76.2436 6.23282C76.4081 6.16407 76.5877 6.13894 76.7648 6.15976C78.3119 6.83951 79.824 7.60328 81.3255 8.37413C81.5874 8.64063 81.8036 8.94846 81.9654 9.28516ZM233.016 354.967C233.385 355.35 233.712 355.773 233.989 356.228C234.489 357.477 234.913 358.754 235.258 360.054C235.263 360.64 235.153 361.221 234.934 361.764C234.433 361.44 234.001 361.021 233.662 360.531C233.181 359.269 232.801 357.97 232.526 356.648C232.444 356.277 232.754 355.815 233.016 354.967ZM103.842 308.793C103.049 308.838 102.255 308.826 101.464 308.758C101.109 308.569 100.805 308.298 100.578 307.966C100.858 307.679 101.133 307.146 101.427 307.132C103.014 307.068 104.603 307.084 106.188 307.181C106.501 307.202 106.783 307.714 107.08 308.001C106.801 308.346 106.449 308.623 106.049 308.814C105.316 308.895 104.577 308.909 103.842 308.856V308.793ZM228.319 303.383C228.851 301.75 229.253 300.328 229.798 298.968C229.939 298.611 230.527 298.436 230.911 298.183C231.078 298.646 231.467 299.172 231.372 299.578C231.048 300.954 230.626 302.305 230.109 303.621C230.007 303.818 229.857 303.985 229.673 304.109C229.489 304.232 229.277 304.308 229.057 304.329C228.727 304.259 228.515 303.663 228.318 303.383H228.319ZM253.814 405.737C253.587 406.018 253.361 406.55 253.078 406.578C252.871 406.578 252.667 406.525 252.485 406.425C252.304 406.324 252.151 406.179 252.042 406.004C251.501 404.518 251.039 403.004 250.659 401.469C250.672 401.269 250.734 401.074 250.838 400.903C250.943 400.731 251.087 400.586 251.259 400.481C251.437 400.463 251.616 400.49 251.78 400.561C251.943 400.633 252.086 400.745 252.192 400.888C252.766 402.423 253.241 403.992 253.813 405.737H253.814ZM298.765 177.729C298.812 178.464 298.8 179.202 298.73 179.936C298.556 180.3 298.3 180.619 297.983 180.868C297.67 180.546 297.116 180.251 297.087 179.908C296.964 178.435 296.936 176.956 297.001 175.479C297.162 175.062 297.421 174.689 297.756 174.393C298.143 174.697 298.458 175.082 298.68 175.521C298.771 176.253 298.785 176.993 298.722 177.729H298.765ZM3.859 415.905C3.90601 416.746 3.89241 417.589 3.81831 418.428C3.75478 418.619 3.64272 418.791 3.49308 418.926C3.34343 419.061 3.1613 419.155 2.96442 419.199C2.77495 419.146 2.60268 419.045 2.46489 418.904C2.3271 418.764 2.22862 418.59 2.1793 418.4C2.13384 416.827 2.17717 415.252 2.3091 413.684C2.33856 413.355 2.92022 413.074 3.24788 412.773C3.55956 413.03 3.80679 413.356 3.96986 413.726C4.0093 414.453 3.98888 415.182 3.90882 415.905H3.859ZM3.93407 425.898C3.98214 426.627 3.96994 427.358 3.89758 428.085C3.71626 428.441 3.45152 428.749 3.1258 428.982C2.8283 428.701 2.29647 428.442 2.27261 428.134C2.15204 426.565 2.11246 424.991 2.15404 423.418C2.30616 423.042 2.54915 422.71 2.86128 422.451C3.19105 422.759 3.74394 423.025 3.80498 423.375C3.8906 424.214 3.90562 425.058 3.84988 425.898H3.92917H3.93407ZM296.374 204C295.901 205.808 295.528 207.392 295.041 208.941C294.942 209.112 294.799 209.255 294.627 209.355C294.456 209.454 294.261 209.507 294.062 209.508C293.884 209.416 293.732 209.279 293.623 209.111C293.513 208.943 293.449 208.749 293.437 208.548C293.761 206.951 294.177 205.374 294.647 203.818C294.737 203.662 294.866 203.533 295.021 203.442C295.177 203.351 295.353 203.302 295.533 203.3C295.862 203.466 296.148 203.706 296.369 204H296.374ZM255.036 432.282C254.978 431.491 254.992 430.696 255.08 429.907C255.302 429.504 255.618 429.16 256.002 428.905C256.324 429.159 256.578 429.488 256.742 429.865C256.78 431.454 256.735 433.045 256.606 434.63C256.582 434.924 256.022 435.17 255.709 435.436C255.389 435.183 255.132 434.859 254.959 434.49C254.888 433.756 254.876 433.018 254.923 432.282H255.036ZM251.122 454.146C251.062 453.692 251.069 453.232 251.143 452.78C251.561 451.442 252.051 450.127 252.611 448.841C252.914 448.512 253.294 448.262 253.716 448.113C253.93 448.506 254.051 448.942 254.073 449.388C253.809 450.535 253.435 451.655 252.958 452.731C252.585 453.335 252.133 453.886 251.614 454.37C251.451 454.3 251.287 454.223 251.122 454.146ZM228.987 320.58C229.037 321.369 229.023 322.162 228.945 322.949C228.862 323.134 228.738 323.297 228.582 323.426C228.425 323.555 228.241 323.646 228.044 323.691C227.876 323.634 227.725 323.536 227.603 323.406C227.482 323.277 227.395 323.12 227.348 322.949C227.278 321.309 227.273 319.669 227.356 318.029C227.37 317.763 227.932 317.525 228.241 317.265C228.551 317.52 228.801 317.841 228.971 318.204C229.038 318.995 229.05 319.788 229.006 320.58H228.987ZM248.167 60.8126C248.481 60.9699 248.778 61.1602 249.051 61.3803C250.03 62.3964 251.033 63.3914 251.905 64.4846C252.164 64.814 252.023 65.4517 252.066 65.9493C251.571 65.9422 251.085 65.8249 250.641 65.6059C249.615 64.6426 248.651 63.615 247.756 62.5294C247.547 62.1671 247.469 61.744 247.536 61.3312C247.697 61.1055 247.914 60.9266 248.167 60.8126ZM255.449 268.632C255.306 268.949 255.129 269.25 254.922 269.529C253.949 270.552 252.993 271.603 251.927 272.521C251.615 272.788 250.959 272.661 250.461 272.711C250.42 272.259 250.488 271.805 250.66 271.386C251.623 270.277 252.652 269.226 253.741 268.24C254.101 268.019 254.528 267.932 254.946 267.994C255.166 268.16 255.339 268.38 255.447 268.632H255.449ZM135.437 473.501C134.109 472.415 132.746 471.364 131.475 470.215C131.2 469.963 131.256 469.353 131.159 468.904C131.654 468.911 132.317 468.708 132.613 468.953C133.735 469.886 134.786 470.901 135.758 471.988C135.997 472.254 135.851 472.871 135.882 473.326C135.734 473.382 135.585 473.445 135.437 473.501ZM124.581 461.567C124.838 461.647 125.086 461.755 125.319 461.89C126.547 463.046 127.793 464.188 128.955 465.408C129.049 465.581 129.095 465.775 129.09 465.972C129.085 466.169 129.029 466.361 128.926 466.529C128.76 466.641 128.568 466.707 128.368 466.722C128.168 466.737 127.968 466.699 127.787 466.613C126.607 465.408 125.487 464.148 124.429 462.836C124.259 462.618 124.51 462.065 124.581 461.567ZM238.939 369.949C238.825 370.204 238.645 370.425 238.417 370.587C238.264 370.611 238.107 370.599 237.96 370.551C237.812 370.504 237.678 370.422 237.568 370.313C236.85 368.842 236.172 367.349 235.568 365.822C235.55 365.643 235.578 365.463 235.65 365.299C235.722 365.134 235.835 364.991 235.978 364.882C236.145 364.819 236.326 364.798 236.504 364.82C236.682 364.842 236.852 364.907 236.999 365.009C237.692 366.62 238.294 368.267 238.939 369.949ZM144.289 479.065C143.542 479.213 142.907 479.542 142.631 479.353C141.356 478.453 140.133 477.482 138.968 476.445C138.789 476.137 138.687 475.791 138.671 475.436C139.044 475.32 139.441 475.303 139.822 475.386C141.119 476.262 142.356 477.23 143.604 478.183C143.857 478.456 144.086 478.751 144.287 479.065H144.289ZM170.095 339.767C169.661 339.351 169.296 338.868 169.013 338.337C168.943 338.106 169.422 337.714 169.652 337.398C170.101 337.711 170.503 338.086 170.845 338.513C170.939 338.653 170.473 339.157 170.093 339.767H170.095Z" fill="#32333C" stroke="white" stroke-linejoin="round"/>
<rect x="-4" y="377" width="19" height="21" fill="white"/>
<rect x="32" y="537" width="51" height="21" fill="white"/>
</g>
<defs>
<clipPath id="clip0">
<rect width="301" height="548" fill="white"/>
</clipPath>
</defs>
</svg>
