<svg width="258" height="313" viewBox="0 0 258 313" fill="none" xmlns="http://www.w3.org/2000/svg">
<g clip-path="url(#clip0)">
<path opacity="0.2" fill-rule="evenodd" clip-rule="evenodd" d="M235.376 236.563C236.044 235.582 236.416 235.043 236.88 234.352C236.205 233.745 235.559 233.164 234.985 232.653C234.785 232.651 234.587 232.694 234.406 232.778C232.727 235.541 230.442 235.195 227.893 234.214C226.236 233.565 224.383 233.413 222.767 232.695C220.407 231.659 219.036 232.501 217.991 234.712C223.931 239.077 229.89 243.47 235.812 247.822C232.903 251.428 230.357 254.716 227.616 257.824C227.178 258.322 225.869 258.101 224.959 258.129C223.448 258.184 221.782 257.161 220.443 258.57C223.988 261.762 227.397 264.815 231.257 268.269C231.396 267.194 231.38 266.106 231.21 265.036C230.684 263.954 230.58 262.714 230.918 261.56C231.257 260.405 232.014 259.418 233.041 258.792C235.528 256.858 237.4 254.163 239.888 251.414C244.999 257.037 249.989 262.522 254.972 267.992C257.183 266.68 257.679 265.05 256.354 262.673C255.279 260.739 254.776 258.488 253.765 256.512C252.89 254.799 252.904 253.486 254.456 252.271C254.805 251.902 255.11 251.495 255.365 251.055C254.699 250.433 254.079 249.839 253.38 249.19C252.718 249.66 252.149 250.074 251.224 250.737C250.418 247.933 249.567 245.363 248.984 242.711C248.952 241.855 249.249 241.02 249.812 240.376C251.44 238.648 252.965 236.826 254.38 234.919C255.175 233.62 255.868 230.83 255.296 230.388C253.692 229.13 251.98 230.664 250.681 231.824C249.144 233.234 247.72 234.763 246.424 236.397C246.038 237.021 245.46 237.504 244.776 237.77C244.093 238.037 243.341 238.074 242.634 237.875C240.363 237.323 238.009 237.019 235.376 236.563ZM45.4178 276.889C45.2753 276.6 45.1089 276.323 44.9204 276.061C43.5748 274.569 42.2638 273.049 40.8201 271.653C40.7359 271.508 40.6203 271.384 40.4817 271.289C40.3432 271.194 40.1852 271.131 40.0194 271.105C39.8536 271.08 39.684 271.091 39.5231 271.139C39.3622 271.187 39.2141 271.27 39.0895 271.382C38.9649 271.495 38.867 271.634 38.803 271.789C38.7389 271.944 38.7104 272.112 38.7193 272.279C38.7283 272.447 38.7745 272.61 38.8548 272.758C38.935 272.905 39.0472 273.033 39.183 273.132C40.4529 274.689 41.8036 276.178 43.2294 277.594C43.4285 277.738 43.656 277.839 43.8967 277.889C44.1375 277.939 44.3861 277.937 44.6262 277.884C44.965 277.621 45.2344 277.28 45.4109 276.889H45.4178ZM2.36157 192.451C2.76773 194.62 3.00119 196.388 3.46676 198.088C3.81398 198.653 4.28671 199.13 4.84827 199.483C5.23384 198.903 5.49362 198.249 5.61087 197.563C5.46206 195.872 5.1587 194.198 4.70459 192.562C4.33887 191.967 3.84929 191.458 3.26919 191.07C2.90309 191.622 2.54668 192.161 2.35465 192.451H2.36157ZM63.4244 17.1097C62.8866 16.8264 62.2842 16.6886 61.6768 16.7093C60.0038 18.2566 58.4481 19.9418 56.9257 21.6549C56.8345 21.8372 56.7926 22.0402 56.804 22.2438C56.8153 22.4473 56.8797 22.6445 56.9906 22.8155C57.1705 22.9693 57.3823 23.0812 57.6107 23.1433C57.839 23.2054 58.0784 23.2162 58.3114 23.1747C59.9982 21.5307 61.5981 19.7901 63.2117 18.0632C63.3219 17.7561 63.3893 17.4351 63.4119 17.1097H63.4244ZM31.6192 261.002C31.2586 261.47 31.0211 262.021 30.9284 262.605C32.2644 264.553 33.7384 266.417 35.2429 268.255C35.4298 268.336 35.6336 268.37 35.8368 268.356C36.0399 268.342 36.2366 268.278 36.4103 268.172C36.5618 268.034 36.6772 267.862 36.7463 267.669C36.8155 267.476 36.8362 267.27 36.8068 267.067C35.3852 265.078 33.8835 263.157 32.3859 261.237C32.1441 261.119 31.8854 261.04 31.6192 261.002ZM4.34538 122.602C4.58984 123.032 4.94347 123.389 5.37047 123.638C5.63789 123.626 5.89781 123.546 6.1259 123.406C6.35399 123.266 6.54284 123.07 6.67466 122.837C7.26696 120.856 7.75346 118.846 8.13214 116.814C8.1289 116.542 8.05747 116.276 7.92446 116.039C7.79145 115.803 7.60108 115.604 7.3709 115.46C7.10918 115.448 6.84889 115.504 6.6153 115.623C6.38171 115.741 6.1828 115.919 6.03778 116.137C5.40781 118.181 4.93391 120.281 4.34538 122.602ZM22.0536 76.6391C22.6568 76.0793 23.2114 75.4691 23.7114 74.8154C24.5976 73.2723 25.3974 71.6812 26.107 70.0493C26.1779 69.3957 26.1 68.7346 25.8791 68.1153C25.2483 68.2571 24.6598 68.5456 24.1618 68.9578C23.1673 70.6093 22.2955 72.3316 21.5535 74.1109C21.5504 74.9785 21.7204 75.8381 22.0536 76.6391ZM58.5656 288.245C58.1425 288.45 57.7642 288.737 57.4521 289.088C57.369 289.28 57.3322 289.489 57.345 289.698C57.3577 289.907 57.4195 290.109 57.5253 290.29C59.4208 291.699 61.3669 293.035 63.3636 294.296C63.8025 293.844 64.207 293.359 64.5738 292.846C62.5913 291.326 60.6075 289.806 58.5656 288.245ZM149.114 309.438C146.742 309.686 144.889 309.811 143.071 310.115C142.531 310.389 142.059 310.781 141.69 311.261C142.137 311.745 142.697 312.111 143.32 312.325C145.169 312.282 147.013 312.092 148.832 311.759C149.4 311.442 149.887 310.998 150.252 310.46C149.776 310.032 149.291 309.604 149.114 309.438ZM12.6318 222.9C11.8401 220.565 11.2046 218.52 10.4144 216.545C10.3099 216.285 10.1092 216.075 9.85414 215.96C9.59906 215.844 9.30914 215.831 9.04475 215.924C8.78035 216.016 8.56178 216.207 8.43452 216.457C8.30725 216.706 8.28115 216.995 8.3615 217.263C8.9149 219.249 9.5734 221.205 10.3343 223.121C10.478 223.345 10.6755 223.529 10.9089 223.657C11.1423 223.785 11.404 223.853 11.6702 223.853C12.0762 223.635 12.4103 223.304 12.6318 222.9ZM215.79 275.784C215.455 275.975 215.14 276.197 214.846 276.447C213.527 277.842 212.162 279.21 210.978 280.716C210.769 281.338 210.716 282.003 210.823 282.65C211.423 282.669 212.018 282.546 212.561 282.291C213.923 280.939 215.206 279.509 216.403 278.008C216.666 277.523 216.753 276.962 216.651 276.42C216.421 276.139 216.125 275.921 215.79 275.784ZM69.0403 295.277C68.6141 295.504 68.2499 295.831 67.9792 296.23C67.9463 296.467 67.9721 296.708 68.0546 296.932C68.137 297.156 68.2734 297.356 68.4517 297.515C70.3181 298.579 72.2315 299.588 74.1794 300.499C74.4116 300.55 74.6526 300.542 74.881 300.477C75.1094 300.412 75.3183 300.291 75.4891 300.126C75.5917 299.916 75.6404 299.683 75.6308 299.449C75.6211 299.216 75.5535 298.988 75.4339 298.786C73.3948 297.584 71.2894 296.493 69.0403 295.277ZM173.958 303.649C171.587 304.423 169.399 305.1 167.241 305.873C167.083 306 166.958 306.163 166.876 306.348C166.795 306.533 166.759 306.735 166.773 306.937C166.919 307.166 167.111 307.363 167.336 307.515C167.561 307.667 167.815 307.771 168.082 307.822C170.228 307.255 172.344 306.564 174.429 305.791C174.615 305.642 174.76 305.449 174.851 305.229C174.942 305.009 174.975 304.77 174.948 304.533C174.703 304.154 174.359 303.848 173.952 303.649H173.958ZM104.806 308.098C104.377 308.295 104.023 308.624 103.795 309.037C103.846 309.329 103.969 309.604 104.154 309.835C104.339 310.067 104.579 310.249 104.852 310.363C106.722 310.805 108.617 311.137 110.526 311.358C111.111 311.237 111.658 310.977 112.12 310.598C111.853 310.013 111.442 309.504 110.926 309.12C109.063 308.678 107.141 308.471 104.806 308.098ZM13.2893 227.417C12.9599 228.006 12.7708 228.664 12.7367 229.338C13.424 231.293 14.2233 233.207 15.1309 235.071C15.3031 235.277 15.52 235.441 15.765 235.551C16.0101 235.662 16.277 235.715 16.5455 235.706C16.7402 235.581 16.9011 235.409 17.0138 235.207C17.1266 235.005 17.1878 234.778 17.1921 234.546C16.3936 232.405 15.4873 230.291 14.5561 228.205C14.1866 227.866 13.757 227.598 13.2893 227.417ZM32.9593 58.0855C32.7185 57.6747 32.3814 57.3286 31.9771 57.077C31.7377 57.0364 31.4922 57.0499 31.2588 57.1168C31.0254 57.1838 30.8101 57.3025 30.6287 57.4639C29.4756 59.2737 28.3993 61.1338 27.4 63.0449C27.3449 63.2727 27.3444 63.5103 27.3984 63.7384C27.4524 63.9664 27.5595 64.1788 27.7109 64.3576C27.8788 64.4726 28.0725 64.544 28.2748 64.5658C28.4771 64.5874 28.6816 64.5586 28.87 64.4818C30.2653 62.4095 31.5806 60.2821 32.9593 58.0855ZM5.49071 128.833C5.26638 128.417 4.92082 128.08 4.50011 127.866C4.21213 127.927 3.94388 128.058 3.71955 128.249C3.49523 128.439 3.32192 128.683 3.21531 128.957C2.76049 130.897 2.41957 132.862 2.19436 134.842C2.34953 135.361 2.63492 135.832 3.02332 136.21C3.56933 135.99 4.04636 135.627 4.40483 135.16C4.8552 133.226 5.09836 131.237 5.49071 128.833ZM12.2698 99.7795C12.7935 99.4187 13.2554 98.9755 13.6374 98.4671C14.3987 96.6297 15.1377 94.7646 15.718 92.8581C15.6794 92.256 15.494 91.6726 15.1778 91.1588C14.6155 91.3374 14.1027 91.6447 13.6803 92.0567C12.8447 93.8723 12.1307 95.7415 11.5431 97.6519C11.6265 98.4057 11.8746 99.1321 12.2698 99.7795ZM47.0231 37.1692C46.8598 36.7141 46.5937 36.3029 46.2453 35.9675C46.0178 35.9033 45.7787 35.8911 45.5458 35.9318C45.3129 35.9724 45.0921 36.0648 44.8997 36.2023C43.5661 37.8739 42.3029 39.6008 41.1102 41.3829C41.0256 41.6107 40.9942 41.8548 41.0181 42.0966C41.042 42.3384 41.1208 42.5715 41.2484 42.7783C41.4027 42.9096 41.5857 43.0031 41.7826 43.0511C41.9796 43.0991 42.1851 43.1002 42.3826 43.0545C43.963 41.1342 45.4716 39.1586 47.0231 37.1692ZM34.3573 53.7197C35.8466 53.7612 39.9718 47.4892 39.3391 46.8537C39.0563 46.6813 38.7341 46.5845 38.4031 46.5724C38.0722 46.5603 37.7438 46.6333 37.4492 46.7845C36.1754 48.4178 35.0269 50.145 34.0134 51.9514C33.9619 52.5613 34.081 53.1736 34.3573 53.7197ZM72.744 8.25429C72.0646 8.03186 71.34 7.98421 70.6373 8.116C69.0184 9.41523 67.4773 10.8084 66.0217 12.2882C65.8766 12.4785 65.7811 12.7021 65.744 12.9385C65.7068 13.1748 65.7291 13.4165 65.8088 13.6421C65.964 13.8179 66.1593 13.9538 66.3782 14.038C66.597 14.1222 66.8331 14.1523 67.0661 14.1257C68.9256 12.5646 70.7077 10.9068 72.4995 9.26277C72.6274 8.93957 72.7097 8.60018 72.744 8.25429ZM55.0041 27.2501C54.8344 26.7854 54.5553 26.3685 54.1904 26.0345C53.9621 25.9586 53.7193 25.9362 53.481 25.9698C53.2428 26.0033 53.0155 26.0917 52.8171 26.2278C51.3872 27.8165 50.0196 29.4883 48.7279 31.2014C48.6396 31.4253 48.6047 31.6668 48.626 31.9066C48.6474 32.1464 48.7244 32.378 48.8508 32.5829C49.0033 32.7189 49.1869 32.8153 49.3854 32.8635C49.584 32.9117 49.7913 32.9101 49.9892 32.8591C51.6884 31.0355 53.3228 29.1566 55.0041 27.2501ZM29.5663 257.009C29.2099 256.374 28.9114 255.794 28.5716 255.241C27.7206 253.86 26.9138 252.437 25.9468 251.138C25.7545 250.951 25.5171 250.818 25.2579 250.75C24.9986 250.682 24.7261 250.682 24.4671 250.751C24.274 250.925 24.1302 251.147 24.0501 251.395C23.9701 251.642 23.9567 251.906 24.0113 252.16C25.1027 254.081 26.3087 255.946 27.5562 257.769C27.7163 257.903 27.906 257.997 28.1095 258.042C28.313 258.088 28.5245 258.084 28.7263 258.032C29.0803 257.759 29.368 257.409 29.5677 257.009H29.5663ZM8.70544 210.646C8.12659 208.297 7.70661 206.335 7.12223 204.429C6.7739 204.015 6.3226 203.701 5.81391 203.517C5.40165 203.93 5.10658 204.445 4.95881 205.009C5.33779 206.969 5.84123 208.902 6.46605 210.798C6.59772 211.057 6.79253 211.279 7.03252 211.443C7.2725 211.607 7.54987 211.708 7.83921 211.737C8.233 211.471 8.53582 211.09 8.70687 210.646H8.70544ZM3.59383 141.487C3.43357 141.294 3.06473 140.824 2.69725 140.355C2.12645 140.66 1.64363 141.107 1.29499 141.653C0.979908 143.544 0.800346 145.456 0.757615 147.372C0.943013 147.924 1.26029 148.422 1.68186 148.823C2.206 148.459 2.63712 147.976 2.94043 147.414C3.26646 145.604 3.36728 143.753 3.59661 141.487H3.59383ZM11.7061 104.283C11.5563 103.885 11.2937 103.54 10.9504 103.289C10.6845 103.261 10.4158 103.298 10.1673 103.396C9.91881 103.495 9.69793 103.652 9.52335 103.855C8.78148 105.927 8.15564 108.055 7.60994 110.182C7.62701 110.415 7.70464 110.64 7.83525 110.834C7.96586 111.028 8.14493 111.184 8.35458 111.288C8.61873 111.295 8.88061 111.237 9.11701 111.119C9.35341 111.001 9.55697 110.826 9.70979 110.611C10.4406 108.607 11.0153 106.549 11.7089 104.283H11.7061ZM23.1146 246.081C21.9182 243.912 20.7826 241.771 19.5379 239.699C19.3475 239.547 19.1108 239.464 18.8671 239.465C18.6234 239.465 18.3871 239.549 18.1973 239.702C18.0076 239.855 17.8758 240.068 17.8236 240.306C17.7715 240.544 17.8021 240.793 17.9105 241.011C18.7836 242.876 19.723 244.728 20.7647 246.496C20.9533 246.692 21.1815 246.844 21.4341 246.945C21.6867 247.045 21.9577 247.09 22.2291 247.076C22.6049 246.826 22.9106 246.483 23.1174 246.081H23.1146ZM191.474 298.469C193.582 297.073 195.665 295.733 197.691 294.296C197.765 294.109 197.793 293.907 197.77 293.707C197.748 293.507 197.676 293.316 197.562 293.15C197.378 292.999 197.161 292.893 196.929 292.84C196.696 292.787 196.455 292.789 196.224 292.846C194.35 293.868 192.52 294.969 190.733 296.147C190.576 296.329 190.461 296.544 190.396 296.776C190.332 297.008 190.32 297.251 190.362 297.488C190.651 297.898 191.033 298.234 191.477 298.469H191.474ZM155.791 310.792C157.813 310.35 159.851 309.963 161.846 309.41C162.258 309.073 162.577 308.635 162.77 308.139C162.343 307.735 161.82 307.445 161.251 307.296C159.271 307.584 157.311 307.99 155.381 308.512C155.128 308.613 154.904 308.774 154.728 308.981C154.552 309.188 154.429 309.435 154.369 309.7C154.422 310.359 154.588 311.004 154.86 311.607C155.176 311.331 155.486 311.068 155.794 310.792H155.791ZM120.286 310.156C119.488 310.004 118.676 309.939 117.864 309.963C117.296 310.154 116.767 310.45 116.306 310.833C116.59 311.348 117.002 311.781 117.502 312.09C119.547 312.378 121.607 312.549 123.672 312.601C123.934 312.542 124.176 312.415 124.374 312.233C124.572 312.052 124.718 311.821 124.799 311.565C124.75 311.302 124.633 311.056 124.462 310.851C124.29 310.645 124.069 310.487 123.819 310.391C122.647 310.229 121.466 310.151 120.283 310.156H120.286ZM20.9871 80.5351C20.8002 80.1411 20.5187 79.7994 20.1678 79.5405C19.8947 79.5422 19.6248 79.6007 19.3756 79.7125C19.1263 79.8243 18.9031 79.9869 18.7201 80.1897C17.7736 82.0221 16.9255 83.9034 16.1795 85.8261C16.1446 86.0925 16.1719 86.3636 16.2594 86.6177C16.3469 86.8718 16.4922 87.1021 16.6837 87.2905C16.9067 87.3582 17.1432 87.3685 17.3713 87.3202C17.5993 87.2719 17.8114 87.1666 17.9878 87.0143C19.0419 84.9144 19.98 82.7455 20.9843 80.5351H20.9871ZM80.4335 300.831C80.0448 301.053 79.7158 301.366 79.4748 301.743C79.4428 301.979 79.4693 302.22 79.5519 302.444C79.6345 302.668 79.7708 302.868 79.9487 303.028C81.9767 303.884 84.0462 304.658 86.1392 305.349C86.3754 305.359 86.6104 305.308 86.8216 305.202C87.0327 305.095 87.2131 304.937 87.3453 304.741C87.3986 304.515 87.3924 304.279 87.3272 304.056C87.2621 303.833 87.1402 303.631 86.9736 303.47C84.8848 302.558 82.7462 301.743 80.4308 300.831H80.4335ZM206.842 284.888C206.322 285.247 205.875 285.496 205.483 285.814C204.089 286.919 202.668 287.997 201.36 289.185C201.12 289.66 201.001 290.186 201.015 290.718C201.547 290.944 202.13 291.025 202.704 290.953C204.382 289.732 205.993 288.423 207.531 287.03C207.677 286.837 207.778 286.614 207.828 286.378C207.877 286.142 207.874 285.897 207.819 285.662C207.562 285.328 207.227 285.062 206.843 284.888H206.842ZM82.8195 0.531516C82.187 0.221316 81.4901 0.0653271 80.7858 0.0758467C78.9559 1.32421 77.1986 2.67557 75.5222 4.12358C75.4052 4.33251 75.3438 4.56779 75.3438 4.80726C75.3438 5.04672 75.4052 5.28234 75.5222 5.49127C75.6963 5.65007 75.9096 5.75939 76.1402 5.80797C76.3707 5.85656 76.61 5.84256 76.8334 5.7675C78.6459 4.49651 80.3894 3.12896 82.1328 1.77508C82.4129 1.39081 82.644 0.972934 82.8208 0.531516H82.8195ZM180.031 303.856C182.183 302.876 184.218 302.005 186.177 300.983C186.357 300.786 186.486 300.549 186.555 300.292C186.624 300.035 186.631 299.765 186.574 299.505C186.421 299.327 186.226 299.191 186.006 299.108C185.787 299.026 185.55 299.001 185.318 299.035C183.268 299.85 181.252 300.748 179.271 301.729C179.104 301.896 178.982 302.103 178.916 302.33C178.851 302.557 178.844 302.797 178.897 303.028C179.204 303.39 179.592 303.674 180.031 303.856ZM100.417 308.084C99.9038 307.573 99.326 307.132 98.6985 306.772C96.8486 306.233 94.9864 305.708 93.0979 305.335C92.5061 305.399 91.9379 305.602 91.4401 305.929C91.7035 306.522 92.1063 307.044 92.6143 307.448C94.3672 308.056 96.1644 308.527 97.9898 308.858C98.8367 308.744 99.657 308.482 100.413 308.084H100.417ZM55.04 286.201C54.6313 285.558 54.1794 284.945 53.6875 284.363C52.4183 283.128 51.0876 281.956 49.7004 280.854C49.0919 280.643 48.4423 280.576 47.8036 280.661C47.7619 281.263 47.8701 281.866 48.1186 282.415C49.5115 283.844 51.0066 285.169 52.592 286.38C53.4098 286.502 54.2446 286.441 55.0358 286.201H55.04ZM3.74999 185.737C3.50685 183.402 3.43361 181.703 3.09929 180.045C2.78458 179.413 2.33573 178.856 1.78405 178.415C1.34868 178.918 1.03403 179.513 0.864028 180.156C0.931823 181.924 1.14059 183.684 1.48842 185.419C1.77705 185.997 2.1865 186.506 2.68898 186.912C3.13936 186.4 3.59664 185.903 3.74999 185.737ZM133.326 310.612C132.289 310.554 131.248 310.573 130.214 310.667C129.743 310.906 129.343 311.263 129.052 311.703C129.324 312.153 129.703 312.529 130.157 312.795C132.235 312.882 134.316 312.859 136.392 312.726C136.867 312.472 137.268 312.101 137.559 311.648C137.192 311.2 136.731 310.837 136.209 310.585C135.25 310.476 134.282 310.457 133.319 310.529V310.612H133.326ZM2.39749 170.167C2.45839 169.062 2.44038 167.954 2.34361 166.852C2.25766 166.603 2.1101 166.38 1.91467 166.204C1.71923 166.027 1.48224 165.903 1.22593 165.843C0.977879 165.914 0.752523 166.048 0.572025 166.232C0.391527 166.416 0.262137 166.644 0.196713 166.893C0.137355 168.958 0.194067 171.024 0.36662 173.083C0.667354 173.578 1.09089 173.987 1.59619 174.27C2.00212 173.933 2.32578 173.508 2.54252 173.027C2.59366 172.073 2.56688 171.117 2.46241 170.167H2.39749ZM2.49555 157.057C2.55842 156.104 2.54229 155.147 2.44724 154.197C2.20855 153.73 1.8607 153.327 1.43319 153.023C0.967241 153.283 0.580854 153.665 0.315521 154.128C0.157669 156.187 0.106025 158.253 0.160793 160.317C0.361515 160.81 0.679189 161.246 1.08638 161.588C1.59328 161.293 2.01799 160.875 2.32151 160.373C2.43406 159.271 2.45389 158.162 2.38087 157.057H2.49555ZM220.084 269.996C219.516 270.544 219.038 271.178 218.666 271.875C218.829 272.353 219.118 272.778 219.503 273.104C220.09 272.696 220.617 272.207 221.069 271.653C220.848 271.042 220.511 270.479 220.077 269.996H220.084Z" fill="black"/>
</g>
<defs>
<clipPath id="clip0">
<rect width="256.917" height="312.83" fill="white" transform="translate(0.149414 0.00939941)"/>
</clipPath>
</defs>
</svg>
