<svg width="21" height="19" viewBox="0 0 21 19" fill="none" xmlns="http://www.w3.org/2000/svg">
<path d="M0.00408131 13.7659C0.00408131 16.6577 2.2405 18.9997 5.00192 18.9997C7.76333 18.9997 9.99975 16.6577 9.99975 13.7659C9.99975 10.8741 7.76333 8.52781 5.00192 8.52781C4.43558 8.52781 3.88991 8.63171 3.38144 8.81353C4.50999 2.05595 9.54089 -2.29903 4.8779 1.28539C-0.293556 5.26374 -5.25495e-05 13.6057 0.00408131 13.7572C0.00408131 13.7616 0.00408131 13.7616 0.00408131 13.7659Z" fill="#0142BD"/>
<path d="M11.0043 13.7664C11.0043 16.6582 13.2408 19.0002 16.0022 19.0002C18.7636 19.0002 21 16.6582 21 13.7664C21 10.8746 18.7636 8.5283 16.0022 8.5283C15.4358 8.5283 14.8902 8.63219 14.3817 8.81401C15.5102 2.05644 20.5412 -2.29854 15.874 1.28588C10.7026 5.26423 10.9961 13.6019 11.0002 13.7577C11.0043 13.7621 11.0043 13.7621 11.0043 13.7664Z" fill="#0142BD"/>
</svg>
