<svg width="50" height="50" viewBox="0 0 50 50" fill="none" xmlns="http://www.w3.org/2000/svg">
<path fill-rule="evenodd" clip-rule="evenodd" d="M0.00585938 34.781V15.518C0.0304581 15.4897 0.0613972 15.4676 0.0961533 15.4535C0.130909 15.4395 0.168499 15.4338 0.20586 15.437C0.32086 15.432 0.435861 15.437 0.551861 15.437H14.4869C14.9469 15.437 14.9639 15.421 14.9639 14.961C14.9639 10.161 14.9639 5.36102 14.9639 0.561015C14.9639 0.434015 14.9639 0.307019 14.9689 0.180019C14.9648 0.154215 14.967 0.127812 14.9754 0.103061C14.9837 0.0783096 14.9979 0.055941 15.0168 0.0378677C15.0357 0.0197944 15.0586 0.00655038 15.0837 -0.000737047C15.1088 -0.00802448 15.1353 -0.00914202 15.1609 -0.00398717C15.2179 -0.00398717 15.2759 -0.00398717 15.3339 -0.00398717H34.0269C34.3949 -0.00398717 34.3979 -0.00398606 34.3979 0.369014C34.3979 4.61035 34.3979 8.85168 34.3979 13.093C34.3979 13.739 34.3979 14.3844 34.3979 15.029C34.3979 15.396 34.4389 15.437 34.8039 15.437H49.3129C49.434 15.4337 49.5552 15.4373 49.6759 15.448C49.7279 15.4544 49.7753 15.481 49.8079 15.522V34.781C49.7833 34.8093 49.7523 34.8314 49.7176 34.8455C49.6828 34.8596 49.6452 34.8652 49.6079 34.862C49.4929 34.867 49.3769 34.862 49.2619 34.862H34.8229C34.7581 34.848 34.6911 34.8478 34.6263 34.8616C34.5614 34.8754 34.5003 34.9028 34.4469 34.942C34.3622 35.15 34.3233 35.3737 34.3329 35.598C34.3329 39.148 34.3329 42.6984 34.3329 46.249C34.3329 47.3497 34.3329 48.4497 34.3329 49.549C34.3329 49.799 34.3329 49.799 34.0859 49.799H20.4229C20.3597 49.8046 20.2962 49.8016 20.2339 49.79C20.0959 49.748 20.1269 49.629 20.1199 49.531C20.0529 48.565 20.1009 47.596 20.0819 46.631C20.0709 46.083 20.0949 45.536 20.1259 44.991C20.1885 43.8884 20.2862 42.7884 20.4189 41.691C20.6999 39.333 21.1339 37.001 21.6129 34.677C21.9069 33.249 22.2339 31.829 22.5709 30.411C22.8082 29.411 23.0525 28.415 23.3039 27.423C23.2973 27.3682 23.3086 27.3128 23.3362 27.265C23.3638 27.2172 23.4061 27.1797 23.4569 27.158C23.5999 27.135 23.6269 27.282 23.6739 27.369C23.8739 27.74 24.0739 28.11 24.2609 28.485C24.3759 28.716 24.4259 28.723 24.6099 28.541C24.7939 28.359 24.9999 28.148 25.1979 27.955C25.2485 27.9087 25.2867 27.8503 25.3087 27.7852C25.3307 27.7202 25.3359 27.6506 25.3239 27.583C25.2569 27.017 25.1799 26.453 25.1239 25.883C25.1166 25.8348 25.1212 25.7856 25.1372 25.7396C25.1533 25.6936 25.1802 25.6522 25.2159 25.619C25.8999 24.942 26.5579 24.239 27.2689 23.59C27.4099 23.462 27.5379 23.321 27.6769 23.19C27.8429 23.033 27.9269 23.046 28.0349 23.246C28.3015 23.744 28.5629 24.244 28.8189 24.746C29.2189 25.536 29.6349 26.322 30.0429 27.11C30.4219 27.841 30.7929 28.576 31.1869 29.3C31.2869 29.48 31.3319 29.489 31.4809 29.342C31.7809 29.05 32.0669 28.754 32.3629 28.463C32.4125 28.4191 32.4484 28.3617 32.4662 28.2978C32.4839 28.2339 32.4828 28.1663 32.4629 28.103C32.1559 26.909 31.8439 25.716 31.5369 24.522C31.2949 23.579 31.0459 22.637 30.8069 21.694C30.7319 21.394 30.6629 21.099 30.5719 20.809C30.5294 20.701 30.5228 20.5822 30.5528 20.47C30.5829 20.3579 30.6481 20.2584 30.7389 20.186C31.8289 19.117 32.9039 18.032 33.9839 16.952C34.0857 16.8582 34.1763 16.7528 34.2539 16.638C34.3595 16.4912 34.4099 16.3117 34.3962 16.1313C34.3824 15.951 34.3055 15.7812 34.1789 15.652C34.0484 15.5106 33.8722 15.4195 33.6814 15.3949C33.4905 15.3702 33.2971 15.4134 33.1349 15.517C32.9801 15.6175 32.8371 15.7353 32.7089 15.868C31.6619 16.915 30.6089 17.959 29.5699 19.013C29.5107 19.0844 29.4311 19.1361 29.3417 19.1611C29.2524 19.1861 29.1576 19.1833 29.0699 19.153C27.2265 18.6624 25.3829 18.1743 23.5389 17.689C22.8869 17.517 22.2389 17.349 21.5839 17.171C21.5079 17.1443 21.4256 17.1415 21.348 17.1629C21.2704 17.1844 21.2013 17.2291 21.1499 17.291C20.8709 17.581 20.5799 17.861 20.2969 18.149C20.1519 18.296 20.1609 18.349 20.3429 18.441C21.2802 18.9364 22.2185 19.4293 23.1579 19.92C24.2539 20.4967 25.3499 21.0734 26.4459 21.65C26.6619 21.763 26.6789 21.86 26.5069 22.033C25.7029 22.843 24.8965 23.6504 24.0879 24.455C24.0472 24.4987 23.9962 24.5314 23.9396 24.5501C23.883 24.5688 23.8225 24.5729 23.7639 24.562C23.1989 24.492 22.6329 24.419 22.0639 24.351C22.0014 24.3404 21.9373 24.3454 21.8772 24.3657C21.8172 24.3859 21.7631 24.4207 21.7199 24.467C21.5099 24.681 21.2949 24.89 21.0849 25.104C20.9589 25.232 20.9649 25.292 21.1269 25.381C21.4409 25.551 21.7589 25.713 22.0769 25.881C22.3119 26.003 22.5419 26.136 22.7769 26.255C22.8134 26.2643 22.8465 26.2842 22.8719 26.3121C22.8973 26.34 22.914 26.3747 22.9199 26.412C22.9152 26.4524 22.8983 26.4904 22.8715 26.5209C22.8447 26.5515 22.8093 26.5731 22.7699 26.583C22.2259 26.859 21.6769 27.128 21.1319 27.404C20.2839 27.833 19.4319 28.263 18.5789 28.676C16.6959 29.585 14.8039 30.476 12.8719 31.276C11.3649 31.904 9.83986 32.476 8.28486 32.976C6.83386 33.437 5.36086 33.814 3.87186 34.131C2.69386 34.382 1.51086 34.602 0.32486 34.809C0.274472 34.835 0.217768 34.8461 0.161312 34.8411C0.104856 34.8362 0.0509575 34.8153 0.00585938 34.781ZM34.3209 34.781C34.3209 34.845 34.3139 34.908 34.3139 34.971C34.3139 39.9044 34.3139 44.8377 34.3139 49.771C34.3139 49.788 34.3139 49.805 34.3139 49.822H20.2059C20.1829 49.814 20.1809 49.802 20.1999 49.787L20.2109 49.753C20.2847 49.7864 20.3665 49.7985 20.4469 49.788H34.0369C34.2799 49.788 34.2799 49.788 34.2799 49.534C34.2799 44.7047 34.2799 39.876 34.2799 35.048C34.2572 34.9574 34.2712 34.8614 34.3189 34.781H34.3209ZM20.1989 49.781L20.2059 49.821H15.0489C15.1276 49.7847 15.2155 49.7733 15.3009 49.788L20.1989 49.781Z" fill="white"/>
</svg>
