<?xml version="1.0" encoding="utf-8"?><svg viewBox="0 0 48 48" xmlns="http://www.w3.org/2000/svg" xmlns:xlink="http://www.w3.org/1999/xlink"><style>:root>svg{display:none}:root>svg:target{display:block}</style><svg viewBox="0 0 18 13" id="ic_email" xmlns="http://www.w3.org/2000/svg"><path d="M16.418 0H1.582C.707 0 0 .733 0 1.625v9.75C0 12.275.714 13 1.582 13h14.836c.868 0 1.582-.722 1.582-1.625v-9.75C18 .733 17.293 0 16.418 0zm-.221 1.083c-.324.329-5.886 6.013-6.079 6.211a1.551 1.551 0 0 1-2.236 0c-.13-.133-5.632-5.756-6.078-6.21h14.393zM1.055 11.155v-9.31L5.61 6.504l-4.556 4.65zm.749.762L6.36 7.266l.777.79a2.583 2.583 0 0 0 3.726.004l.777-.794 4.556 4.65H1.805zm15.141-.762L12.39 6.504l4.556-4.659v9.31z"/></svg><svg viewBox="0 0 19 18" id="ic_home" xmlns="http://www.w3.org/2000/svg"><path fill-rule="evenodd" clip-rule="evenodd" d="M18.36 6.272l-3.28-2.35V1.583a.8.8 0 0 0-.8-.806h-.58a.8.8 0 0 0-.8.806v.777L9.814.151a.794.794 0 0 0-.929 0L.338 6.272a.809.809 0 0 0 .04 1.338.8.8 0 0 0 .89-.027l.88-.63v9.548a1.275 1.275 0 0 0 1.27 1.277h11.864a1.274 1.274 0 0 0 1.27-1.277V6.953l.88.63a.8.8 0 0 0 1.253-.789.81.81 0 0 0-.326-.522zm-7.446 9.894H7.782v-4.953h3.132v4.953zm4.033 0h-2.43v-5.288a1.274 1.274 0 0 0-1.27-1.277h-3.8a1.275 1.275 0 0 0-1.27 1.277v5.288h-2.43V5.805l5.6-4.009 5.6 4.009v10.361z"/></svg><svg fill="none" viewBox="0 0 48 48" id="ic_lk_menu1" xmlns="http://www.w3.org/2000/svg"><path d="M44 24H32l-4 6h-8l-4-6H4" stroke="currentColor" stroke-width="2" stroke-linecap="round" stroke-linejoin="round"/><path d="M10.9 10.22L4 24v12a4 4 0 0 0 4 4h32a4 4 0 0 0 4-4V24l-6.9-13.78A4 4 0 0 0 33.52 8H14.48a4 4 0 0 0-3.58 2.22v0z" stroke="currentColor" stroke-width="2" stroke-linecap="round" stroke-linejoin="round"/></svg><svg fill="none" viewBox="0 0 48 48" id="ic_lk_menu2" xmlns="http://www.w3.org/2000/svg"><path d="M24 44c11.046 0 20-8.954 20-20S35.046 4 24 4 4 12.954 4 24s8.954 20 20 20zM44 24h-8M12 24H4M24 12V4M24 44v-8" stroke="currentColor" stroke-width="2" stroke-linecap="round" stroke-linejoin="round"/></svg><svg fill="none" viewBox="0 0 48 48" id="ic_lk_menu3" xmlns="http://www.w3.org/2000/svg"><path d="M22 38c8.837 0 16-7.163 16-16S30.837 6 22 6 6 13.163 6 22s7.163 16 16 16zM42 42l-8.7-8.7" stroke="currentColor" stroke-width="2" stroke-linecap="round" stroke-linejoin="round"/></svg><svg fill="none" viewBox="0 0 48 48" id="ic_lk_menu4" xmlns="http://www.w3.org/2000/svg"><path d="M36 16a12 12 0 0 0-24 0c0 14-6 18-6 18h36s-6-4-6-18zM27.46 42a4 4 0 0 1-6.92 0" stroke="currentColor" stroke-width="2" stroke-linecap="round" stroke-linejoin="round"/></svg><svg fill="none" viewBox="0 0 48 48" id="ic_lk_menu5" xmlns="http://www.w3.org/2000/svg"><path d="M24 30a6 6 0 1 0 0-12 6 6 0 0 0 0 12z" stroke="currentColor" stroke-width="2" stroke-linecap="round" stroke-linejoin="round"/><path d="M38.8 30a3.3 3.3 0 0 0 .66 3.64l.12.12a4 4 0 0 1-1.298 6.528 4 4 0 0 1-4.362-.868l-.12-.12a3.3 3.3 0 0 0-3.64-.66 3.3 3.3 0 0 0-2 3.02V42a4 4 0 1 1-8 0v-.18A3.3 3.3 0 0 0 18 38.8a3.3 3.3 0 0 0-3.64.66l-.12.12a4 4 0 0 1-6.528-1.298 4 4 0 0 1 .868-4.362l.12-.12a3.3 3.3 0 0 0 .66-3.64 3.3 3.3 0 0 0-3.02-2H6a4 4 0 1 1 0-8h.18A3.3 3.3 0 0 0 9.2 18a3.3 3.3 0 0 0-.66-3.64l-.12-.12a4 4 0 0 1 1.298-6.528 4 4 0 0 1 4.362.868l.12.12a3.3 3.3 0 0 0 3.64.66H18a3.3 3.3 0 0 0 2-3.02V6a4 4 0 1 1 8 0v.18a3.3 3.3 0 0 0 2 3.02 3.3 3.3 0 0 0 3.64-.66l.12-.12a4 4 0 0 1 6.528 1.298 4 4 0 0 1-.868 4.362l-.12.12a3.3 3.3 0 0 0-.66 3.64V18a3.3 3.3 0 0 0 3.02 2H42a4 4 0 1 1 0 8h-.18a3.3 3.3 0 0 0-3.02 2v0z" stroke="currentColor" stroke-width="2" stroke-linecap="round" stroke-linejoin="round"/></svg><svg fill="none" viewBox="0 0 48 48" id="ic_lk_menu6" xmlns="http://www.w3.org/2000/svg"><path d="M42 30a4 4 0 0 1-4 4H14l-8 8V10a4 4 0 0 1 4-4h28a4 4 0 0 1 4 4v20z" stroke="currentColor" stroke-width="2" stroke-linecap="round" stroke-linejoin="round"/></svg><svg viewBox="0 0 14 18" id="ic_location" xmlns="http://www.w3.org/2000/svg"><path d="M12.747 3.129C11.425 1.143 9.33 0 7 0 4.67 0 2.58 1.143 1.258 3.129a7.516 7.516 0 0 0-.814 6.697 5.777 5.777 0 0 0 1.014 1.74l5.083 6.209c.115.14.284.222.46.222.176 0 .345-.081.46-.222l5.08-6.209a5.72 5.72 0 0 0 1.014-1.74 7.505 7.505 0 0 0-.808-6.697zm-.321 6.261a4.522 4.522 0 0 1-.798 1.36l-.003.004L7 16.4l-4.624-5.65a4.58 4.58 0 0 1-.801-1.363 6.216 6.216 0 0 1 .676-5.54C3.344 2.2 5.074 1.258 7 1.258c1.926 0 3.657.942 4.749 2.587a6.221 6.221 0 0 1 .676 5.544z"/><path d="M7 3.734c-1.869 0-3.39 1.582-3.39 3.526 0 1.944 1.521 3.526 3.39 3.526 1.87 0 3.39-1.582 3.39-3.526 0-1.944-1.52-3.526-3.39-3.526zm0 5.79c-1.2 0-2.176-1.016-2.176-2.264 0-1.248.977-2.264 2.176-2.264 1.2 0 2.177 1.016 2.177 2.264 0 1.248-.973 2.264-2.176 2.264z"/></svg><svg viewBox="0 0 21 21" id="ic_pdf" xmlns="http://www.w3.org/2000/svg"><path d="M5.24 8.572H3.936a.615.615 0 0 0-.615.617l.01 4.674a.615.615 0 0 0 1.23 0v-1.419l.677-.002c1.081 0 1.96-.868 1.96-1.935 0-1.067-.879-1.935-1.96-1.935zm0 2.64c-.16 0-.429 0-.682.002a170.619 170.619 0 0 1-.003-1.411h.684c.396 0 .73.322.73.704 0 .382-.334.704-.73.704zM10.473 8.572H9.187a.615.615 0 0 0-.615.617l.01 4.538a.615.615 0 0 0 .615.613h.002c.039 0 .955-.004 1.322-.01 1.39-.024 2.399-1.233 2.399-2.874 0-1.725-.983-2.884-2.447-2.884zm.026 4.528c-.159.002-.433.005-.69.006l-.005-3.303h.668c1.13 0 1.218 1.265 1.218 1.653 0 .808-.368 1.63-1.19 1.644zM16.975 9.755a.615.615 0 1 0 0-1.23h-1.881a.615.615 0 0 0-.615.615v4.641a.615.615 0 0 0 1.23 0v-1.75h1.116a.615.615 0 1 0 0-1.23H15.71V9.756h1.266z"/><path d="M18.785 5.947h-.451v-.175c0-.791-.3-1.543-.844-2.117L14.935.96A3.09 3.09 0 0 0 12.702 0h-8.19a1.848 1.848 0 0 0-1.846 1.846v4.101h-.451A1.848 1.848 0 0 0 .369 7.793v7.383c0 1.018.828 1.845 1.846 1.845h.451v2.133c0 1.018.828 1.846 1.846 1.846h11.976a1.848 1.848 0 0 0 1.846-1.846v-2.133h.451a1.848 1.848 0 0 0 1.846-1.845V7.793a1.848 1.848 0 0 0-1.846-1.846zM3.896 1.846c0-.34.276-.616.616-.616h8.19c.505 0 .993.21 1.34.576l2.555 2.696c.327.344.506.795.506 1.27v.175H3.896V1.846zm13.207 17.308c0 .34-.276.616-.615.616H4.512a.616.616 0 0 1-.616-.616v-2.133h13.207v2.133zm2.297-3.978c0 .339-.276.615-.615.615H2.215a.616.616 0 0 1-.615-.615V7.793c0-.34.276-.615.615-.615h16.57c.34 0 .615.276.615.615v7.383z"/></svg><svg viewBox="0 0 39 39" id="ic_question" xmlns="http://www.w3.org/2000/svg"><path d="M16.491 5.629a8.528 8.528 0 0 0-5.37 7.907 2.287 2.287 0 0 0 2.285 2.285 2.282 2.282 0 0 0 2.285-2.285 3.925 3.925 0 0 1 3.93-3.93c2.141 0 3.939 1.804 3.939 3.93 0 1.645-.99 3.085-2.521 3.679a5.778 5.778 0 0 0-2.69 2.102c-1.203 1.744-1.005 3.215-1.005 5.492 0 .183.023.358.061.54.061.26.29.435.556.435.374 0 .64-.35.556-.708-.045-.183-.03-.054-.03-2.522 0-1.904 1.165-3.58 2.963-4.273 3.397-1.302 4.395-5.682 1.76-8.318-3.207-3.207-8.661-.922-8.654 3.58 0 .625-.51 1.143-1.142 1.143-.632 0-1.143-.51-1.143-1.143 0-4.12 3.458-7.625 7.83-7.343 3.794.236 6.894 3.42 6.894 7.343a7.311 7.311 0 0 1-4.722 6.87 2.372 2.372 0 0 0-1.09.839c-.518.739-.41 1.165-.41 3.557a1.15 1.15 0 0 1-1.143 1.143.575.575 0 0 0-.572.57c0 1.197 2.857.473 2.857-1.713v-2.262c0-.48.297-.892.761-1.074a8.484 8.484 0 0 0 5.454-7.937c0-5.965-6.063-10.124-11.639-7.907zM21.58 30.507c-.892-1.478-2.948-1.447-3.855-.084-.998 1.5.046 3.55 1.92 3.55 1.729 0 2.871-1.905 1.934-3.466zm-2.225 2.285a1.109 1.109 0 0 1-.845-.884c-.236-1.264 1.432-1.904 2.087-.815a1.133 1.133 0 0 1-1.242 1.699z"/><path d="M29.28 2.628C19.132-3.261 6.092 1.127 1.53 11.913a19.53 19.53 0 0 0-.556 13.696c1.013 3.062 2.674 5.293 2.803 5.415l.008.008c.213.183.396.13.472.13.008 0 .06-.016.107-.03l.015-.009c.365-.16.434-.624.236-.86C-4.19 18.09 4.623 1.15 19.499 1.15c10.268 0 18.357 8.379 18.357 18.35 0 10.138-8.21 18.35-18.357 18.35a18.246 18.246 0 0 1-10.763-3.482.57.57 0 0 0-.61-.038l-6.413 3.474c-.305.16-.58-.107-.58-.336 0-.137-.136.16 2.438-4.593a.575.575 0 0 0-.502-.845.568.568 0 0 0-.503.297c-2.582 4.791-2.567 4.631-2.567 5.142 0 1.12 1.219 1.911 2.262 1.34l6.102-3.306c6.596 4.601 15.379 4.662 22.044.16 11.928-8.051 11.327-25.807-1.128-33.035z"/></svg><svg viewBox="0 0 36 17" id="ic_quick_start_links1" xmlns="http://www.w3.org/2000/svg"><path d="M14.152 13.112h-8.4L4.096 17H.88L8.44.2h3.072L19.096 17h-3.264l-1.68-3.888zm-1.032-2.448L9.952 3.32l-3.144 7.344h6.312zM35.702.2L28.382 17H25.31L17.966.2h3.384l5.592 12.96L32.582.2h3.12z"/></svg><svg viewBox="0 0 25 18" id="ic_quick_start_links2" xmlns="http://www.w3.org/2000/svg"><path d="M24.023 7.983H7.046c-.537 0-.977.458-.977 1.017 0 .56.44 1.017.977 1.017h16.977c.538 0 .977-.458.977-1.017 0-.56-.44-1.017-.977-1.017zM24.023.356H7.046c-.537 0-.977.458-.977 1.017 0 .56.44 1.017.977 1.017h16.977c.538 0 .977-.458.977-1.017 0-.56-.44-1.017-.977-1.017zM24.023 15.61H7.046c-.537 0-.977.458-.977 1.017 0 .56.44 1.017.977 1.017h16.977c.538 0 .977-.457.977-1.017 0-.56-.44-1.017-.977-1.017zM1.318 2.746c.728 0 1.319-.615 1.319-1.373S2.047 0 1.318 0C.59 0 0 .615 0 1.373s.59 1.373 1.318 1.373zM1.318 10.373c.728 0 1.319-.615 1.319-1.373s-.59-1.373-1.319-1.373C.59 7.627 0 8.242 0 9s.59 1.373 1.318 1.373zM1.318 18c.728 0 1.319-.615 1.319-1.373s-.59-1.373-1.319-1.373C.59 15.254 0 15.87 0 16.627S.59 18 1.318 18z"/></svg><svg viewBox="0 0 26 20" id="ic_quick_start_links3" xmlns="http://www.w3.org/2000/svg"><path d="M23 0H3A2.503 2.503 0 0 0 .5 2.5v15C.5 18.879 1.621 20 3 20h20c1.379 0 2.5-1.121 2.5-2.5v-15C25.5 1.121 24.379 0 23 0zm0 2.5v.639l-10 7.779L3 3.14V2.5h20zm-20 15V6.305l9.232 7.181c.226.176.497.264.768.264s.543-.088.768-.264L23 6.305l.003 11.195H3z"/></svg><svg viewBox="0 0 18 18" id="ic_slider_arrow" xmlns="http://www.w3.org/2000/svg"><path d="M12.424.548L5.47 7.498H2.387c-.485 0-.977.11-1.434.32l-.3.159A1.12 1.12 0 0 0 0 9c0 .443.25.833.636 1.012l.334.176c.44.204.932.313 1.417.313H5.47l6.95 6.95c.356.356.827.549 1.326.549h.879a.369.369 0 0 0 .327-.193.375.375 0 0 0-.014-.384l-4.528-7.066a79.846 79.846 0 0 0 3.234-.281l1.181-.12 1.734 2.626c.07.106.186.17.313.17h.748a.377.377 0 0 0 .366-.458L17.255 9l.73-3.294a.382.382 0 0 0-.07-.316.377.377 0 0 0-.291-.141h-.749a.375.375 0 0 0-.313.169L14.83 8.044l-1.185-.12a79.661 79.661 0 0 0-3.23-.281L14.94.577a.376.376 0 1 0-.313-.58h-.878a1.867 1.867 0 0 0-1.326.551z"/></svg><svg viewBox="0 0 21 17" id="ic_telegram" xmlns="http://www.w3.org/2000/svg"><path d="M19.824 0L0 7.612v1.102l5.677 1.665 1.798 5.465H8.91l2.31-2.242 4.879 3.402.951-.345L20.643.651 19.824 0zM16.06 15.55l-6.427-4.478-.718.926 1.319.918-1.871 1.78-1.468-4.466 8.5-4.818-.621-.988-8.62 4.891L1.98 8.091 19.224 1.47l-3.165 14.08z"/></svg><svg fill="none" viewBox="0 0 15 15" id="ic_user" xmlns="http://www.w3.org/2000/svg"><path d="M12.5 13.125v-1.25a2.5 2.5 0 0 0-2.5-2.5H5a2.5 2.5 0 0 0-2.5 2.5v1.25M7.5 6.875a2.5 2.5 0 1 0 0-5 2.5 2.5 0 0 0 0 5z" stroke="currentColor" stroke-width="2" stroke-linecap="round" stroke-linejoin="round"/></svg><svg viewBox="0 0 20 20" id="ic_viber" xmlns="http://www.w3.org/2000/svg"><path d="M20 7.059c0-1.88-.803-3.649-2.267-4.985C16.27.738 14.34 0 12.286 0H7.714C5.661 0 3.727.734 2.267 2.074.803 3.41 0 5.18 0 7.06v3.289c0 1.453.487 2.855 1.404 4.046a7.648 7.648 0 0 0 3.168 2.395v1.887c0 .976.598 1.324 1.11 1.324.367 0 .73-.164 1.089-.492l2.3-2.106h3.22c2.053 0 3.986-.734 5.446-2.074 1.46-1.336 2.267-3.11 2.267-4.984L20 7.059zm-7.714 9.175H8.803a.671.671 0 0 0-.453.172l-2.489 2.278-.008.007v-2.293a.586.586 0 0 0-.414-.546c-2.49-.872-4.158-3.082-4.158-5.504v-3.29c0-1.566.67-3.042 1.89-4.156 1.217-1.117 2.831-1.73 4.543-1.73h4.572c1.712 0 3.325.613 4.542 1.73C18.05 4.02 18.72 5.496 18.72 7.06v3.289c0 3.246-2.886 5.886-6.433 5.886z"/><path d="M11.7 9.582a.679.679 0 0 0-.904 0l-.517.473-2.006-1.832.516-.473a.561.561 0 0 0 .188-.414.561.561 0 0 0-.188-.414L6.365 4.703a.67.67 0 0 0-.453-.172.67.67 0 0 0-.452.172l-1.7 1.555c-.917.84-.917 2.207 0 3.047l5.337 4.883a2.448 2.448 0 0 0 1.665.628c.631 0 1.22-.222 1.665-.629l1.699-1.554a.561.561 0 0 0 .188-.414.561.561 0 0 0-.188-.414L11.7 9.582zm-.174 3.773c-.2.184-.47.286-.76.286-.29 0-.56-.102-.76-.286L4.67 8.473a.927.927 0 0 1 0-1.391l1.246-1.14 1.52 1.39-.52.477a.561.561 0 0 0-.188.414c0 .156.068.304.187.414L9.827 11.3c.252.23.657.23.905 0l.516-.473 1.52 1.39-1.242 1.137zM10.156 2.594c-.354 0-.64.261-.64.586 0 .324.286.586.64.586 1.464 0 2.843.523 3.88 1.468 1.038.95 1.606 2.207 1.606 3.551 0 .324.286.586.64.586.354 0 .64-.262.64-.586 0-1.652-.704-3.21-1.98-4.379-1.277-1.168-2.98-1.812-4.786-1.812z"/><path d="M12.896 8.785c0 .324.286.586.64.586.355 0 .64-.262.64-.586 0-2.031-1.805-3.683-4.025-3.683-.354 0-.64.261-.64.585 0 .325.286.586.64.586 1.516 0 2.745 1.125 2.745 2.512z"/></svg><svg viewBox="0 0 20 20" id="ic_whatsapp" xmlns="http://www.w3.org/2000/svg"><path d="M17.16 2.84A9.638 9.638 0 0 0 10.3 0C9.02 0 7.77.25 6.59.738A9.64 9.64 0 0 0 3.445 2.84 9.626 9.626 0 0 0 .602 9.7c0 1.546.37 3.081 1.078 4.448L.05 18.805a.898.898 0 0 0 1.145 1.148l4.657-1.633a9.714 9.714 0 0 0 4.449 1.078 9.638 9.638 0 0 0 6.86-2.84A9.638 9.638 0 0 0 20 9.7a9.639 9.639 0 0 0-2.84-6.86zm-.832 12.887a8.469 8.469 0 0 1-6.027 2.496 8.551 8.551 0 0 1-4.004-.996.905.905 0 0 0-.719-.055l-4.23 1.48 1.48-4.23a.904.904 0 0 0-.054-.719 8.554 8.554 0 0 1-1-4.004c0-2.277.886-4.418 2.496-6.027a8.468 8.468 0 0 1 6.027-2.496 8.438 8.438 0 0 1 6.031 2.496 8.468 8.468 0 0 1 2.496 6.027 8.452 8.452 0 0 1-2.496 6.028z"/><path d="M13.906 10.566a1.146 1.146 0 0 0-1.617 0l-.488.489a7.106 7.106 0 0 1-2.852-2.852l.489-.488a1.146 1.146 0 0 0 0-1.617L8.12 4.78a1.146 1.146 0 0 0-1.617 0l-1.05 1.051c-.602.602-.634 1.637-.087 2.918.477 1.11 1.348 2.332 2.453 3.434 1.106 1.101 2.325 1.976 3.434 2.453.61.261 1.16.39 1.637.39.527 0 .965-.16 1.281-.476l1.05-1.051a1.141 1.141 0 0 0 0-1.617l-1.316-1.317zm-.566 3.157c-.172.171-.7.23-1.625-.164-.977-.418-2.066-1.2-3.066-2.204-1-1.003-1.786-2.09-2.204-3.066-.394-.926-.335-1.453-.164-1.625l1.032-1.031 1.273 1.273-.61.61a.89.89 0 0 0-.163 1.043 8.269 8.269 0 0 0 3.632 3.632.902.902 0 0 0 1.043-.164l.61-.609 1.273 1.273-1.031 1.032z"/></svg></svg>